<svg id="mermaid-1770211548155" width="100%" xmlns="http://www.w3.org/2000/svg" xmlns:xlink="http://www.w3.org/1999/xlink" class="classDiagram" style="max-width: 1547px;" viewBox="-8 -8 1547 643" role="graphics-document document" aria-roledescription="class" aria-describedby="chart-desc-mermaid-1770211548155" aria-labelledby="chart-title-mermaid-1770211548155" height="auto"><title id="chart-title-mermaid-1770211548155">Graph OLAP SDK Exception Hierarchy</title><desc id="chart-desc-mermaid-1770211548155">Shows the inheritance structure of SDK exceptions from the base GraphOLAPError</desc><style>#mermaid-1770211548155{font-family:"trebuchet ms",verdana,arial,sans-serif;font-size:16px;fill:#333;}@keyframes edge-animation-frame{from{stroke-dashoffset:0;}}@keyframes dash{to{stroke-dashoffset:0;}}#mermaid-1770211548155 .edge-animation-slow{stroke-dasharray:9,5!important;stroke-dashoffset:900;animation:dash 50s linear infinite;stroke-linecap:round;}#mermaid-1770211548155 .edge-animation-fast{stroke-dasharray:9,5!important;stroke-dashoffset:900;animation:dash 20s linear infinite;stroke-linecap:round;}#mermaid-1770211548155 .error-icon{fill:#552222;}#mermaid-1770211548155 .error-text{fill:#552222;stroke:#552222;}#mermaid-1770211548155 .edge-thickness-normal{stroke-width:1px;}#mermaid-1770211548155 .edge-thickness-thick{stroke-width:3.5px;}#mermaid-1770211548155 .edge-pattern-solid{stroke-dasharray:0;}#mermaid-1770211548155 .edge-thickness-invisible{stroke-width:0;fill:none;}#mermaid-1770211548155 .edge-pattern-dashed{stroke-dasharray:3;}#mermaid-1770211548155 .edge-pattern-dotted{stroke-dasharray:2;}#mermaid-1770211548155 .marker{fill:#333333;stroke:#333333;}#mermaid-1770211548155 .marker.cross{stroke:#333333;}#mermaid-1770211548155 svg{font-family:"trebuchet ms",verdana,arial,sans-serif;font-size:16px;}#mermaid-1770211548155 p{margin:0;}#mermaid-1770211548155 g.classGroup text{fill:#9370DB;stroke:none;font-family:"trebuchet ms",verdana,arial,sans-serif;font-size:10px;}#mermaid-1770211548155 g.classGroup text .title{font-weight:bolder;}#mermaid-1770211548155 .nodeLabel,#mermaid-1770211548155 .edgeLabel{color:#131300;}#mermaid-1770211548155 .edgeLabel .label rect{fill:#ECECFF;}#mermaid-1770211548155 .label text{fill:#131300;}#mermaid-1770211548155 .labelBkg{background:#ECECFF;}#mermaid-1770211548155 .edgeLabel .label span{background:#ECECFF;}#mermaid-1770211548155 .classTitle{font-weight:bolder;}#mermaid-1770211548155 .node rect,#mermaid-1770211548155 .node circle,#mermaid-1770211548155 .node ellipse,#mermaid-1770211548155 .node polygon,#mermaid-1770211548155 .node path{fill:#ECECFF;stroke:#9370DB;stroke-width:1px;}#mermaid-1770211548155 .divider{stroke:#9370DB;stroke-width:1;}#mermaid-1770211548155 g.clickable{cursor:pointer;}#mermaid-1770211548155 g.classGroup rect{fill:#ECECFF;stroke:#9370DB;}#mermaid-1770211548155 g.classGroup line{stroke:#9370DB;stroke-width:1;}#mermaid-1770211548155 .classLabel .box{stroke:none;stroke-width:0;fill:#ECECFF;opacity:0.5;}#mermaid-1770211548155 .classLabel .label{fill:#9370DB;font-size:10px;}#mermaid-1770211548155 .relation{stroke:#333333;stroke-width:1;fill:none;}#mermaid-1770211548155 .dashed-line{stroke-dasharray:3;}#mermaid-1770211548155 .dotted-line{stroke-dasharray:1 2;}#mermaid-1770211548155 #compositionStart,#mermaid-1770211548155 .composition{fill:#333333!important;stroke:#333333!important;stroke-width:1;}#mermaid-1770211548155 #compositionEnd,#mermaid-1770211548155 .composition{fill:#333333!important;stroke:#333333!important;stroke-width:1;}#mermaid-1770211548155 #dependencyStart,#mermaid-1770211548155 .dependency{fill:#333333!important;stroke:#333333!important;stroke-width:1;}#mermaid-1770211548155 #dependencyStart,#mermaid-1770211548155 .dependency{fill:#333333!important;stroke:#333333!important;stroke-width:1;}#mermaid-1770211548155 #extensionStart,#mermaid-1770211548155 .extension{fill:transparent!important;stroke:#333333!important;stroke-width:1;}#mermaid-1770211548155 #extensionEnd,#mermaid-1770211548155 .extension{fill:transparent!important;stroke:#333333!important;stroke-width:1;}#mermaid-1770211548155 #aggregationStart,#mermaid-1770211548155 .aggregation{fill:transparent!important;stroke:#333333!important;stroke-width:1;}#mermaid-1770211548155 #aggregationEnd,#mermaid-1770211548155 .aggregation{fill:transparent!important;stroke:#333333!important;stroke-width:1;}#mermaid-1770211548155 #lollipopStart,#mermaid-1770211548155 .lollipop{fill:#ECECFF!important;stroke:#333333!important;stroke-width:1;}#mermaid-1770211548155 #lollipopEnd,#mermaid-1770211548155 .lollipop{fill:#ECECFF!important;stroke:#333333!important;stroke-width:1;}#mermaid-1770211548155 .edgeTerminals{font-size:11px;line-height:initial;}#mermaid-1770211548155 .classTitleText{text-anchor:middle;font-size:18px;fill:#333;}#mermaid-1770211548155 .label-icon{display:inline-block;height:1em;overflow:visible;vertical-align:-0.125em;}#mermaid-1770211548155 .node .label-icon path{fill:currentColor;stroke:revert;stroke-width:revert;}#mermaid-1770211548155 :root{--mermaid-font-family:"trebuchet ms",verdana,arial,sans-serif;}</style><g><defs><marker id="mermaid-1770211548155_class-aggregationStart" class="marker aggregation class" refX="18" refY="7" markerWidth="190" markerHeight="240" orient="auto"><path d="M 18,7 L9,13 L1,7 L9,1 Z"></path></marker></defs><defs><marker id="mermaid-1770211548155_class-aggregationEnd" class="marker aggregation class" refX="1" refY="7" markerWidth="20" markerHeight="28" orient="auto"><path d="M 18,7 L9,13 L1,7 L9,1 Z"></path></marker></defs><defs><marker id="mermaid-1770211548155_class-extensionStart" class="marker extension class" refX="18" refY="7" markerWidth="190" markerHeight="240" orient="auto"><path d="M 1,7 L18,13 V 1 Z"></path></marker></defs><defs><marker id="mermaid-1770211548155_class-extensionEnd" class="marker extension class" refX="1" refY="7" markerWidth="20" markerHeight="28" orient="auto"><path d="M 1,1 V 13 L18,7 Z"></path></marker></defs><defs><marker id="mermaid-1770211548155_class-compositionStart" class="marker composition class" refX="18" refY="7" markerWidth="190" markerHeight="240" orient="auto"><path d="M 18,7 L9,13 L1,7 L9,1 Z"></path></marker></defs><defs><marker id="mermaid-1770211548155_class-compositionEnd" class="marker composition class" refX="1" refY="7" markerWidth="20" markerHeight="28" orient="auto"><path d="M 18,7 L9,13 L1,7 L9,1 Z"></path></marker></defs><defs><marker id="mermaid-1770211548155_class-dependencyStart" class="marker dependency class" refX="6" refY="7" markerWidth="190" markerHeight="240" orient="auto"><path d="M 5,7 L9,13 L1,7 L9,1 Z"></path></marker></defs><defs><marker id="mermaid-1770211548155_class-dependencyEnd" class="marker dependency class" refX="13" refY="7" markerWidth="20" markerHeight="28" orient="auto"><path d="M 18,7 L9,13 L14,7 L9,1 Z"></path></marker></defs><defs><marker id="mermaid-1770211548155_class-lollipopStart" class="marker lollipop class" refX="13" refY="7" markerWidth="190" markerHeight="240" orient="auto"><circle stroke="black" fill="transparent" cx="7" cy="7" r="6"></circle></marker></defs><defs><marker id="mermaid-1770211548155_class-lollipopEnd" class="marker lollipop class" refX="1" refY="7" markerWidth="190" markerHeight="240" orient="auto"><circle stroke="black" fill="transparent" cx="7" cy="7" r="6"></circle></marker></defs></g><g class="subgraphs"></g><g class="nodes"><g class="node default" id="classId-GraphOLAPError-0" transform="translate(241.03776041666669, 108)"><g class="basic label-container"><path d="M-131.06640625 -96 L131.06640625 -96 L131.06640625 96 L-131.06640625 96" stroke="none" stroke-width="0" fill="#ECECFF" style=""></path><path d="M-131.06640625 -96 C-38.328230039946405 -96, 54.40994617010719 -96, 131.06640625 -96 M-131.06640625 -96 C-49.39783945560755 -96, 32.270727338784894 -96, 131.06640625 -96 M131.06640625 -96 C131.06640625 -41.18086847605191, 131.06640625 13.638263047896174, 131.06640625 96 M131.06640625 -96 C131.06640625 -26.734044430079223, 131.06640625 42.531911139841554, 131.06640625 96 M131.06640625 96 C50.91256492074835 96, -29.241276408503296 96, -131.06640625 96 M131.06640625 96 C61.16507773439717 96, -8.736250781205655 96, -131.06640625 96 M-131.06640625 96 C-131.06640625 43.438760323362914, -131.06640625 -9.122479353274173, -131.06640625 -96 M-131.06640625 96 C-131.06640625 52.7195449255059, -131.06640625 9.4390898510118, -131.06640625 -96" stroke="#9370DB" stroke-width="1.3" fill="none" stroke-dasharray="0 0" style=""></path></g><g class="annotation-group text" transform="translate(-69.0859375, -72)"><g class="label" style="" transform="translate(0,-12)"><foreignObject width="138.171875" height="24"><div xmlns="http://www.w3.org/1999/xhtml" style="display: table-cell; white-space: nowrap; line-height: 1.5; max-width: 175px; text-align: center;"><span class="nodeLabel markdown-node-label" style=""><p>«base exception=''»</p></span></div></foreignObject></g></g><g class="label-group text" transform="translate(-61.34375, -48)"><g class="label" style="font-weight: bolder" transform="translate(0,-12)"><foreignObject width="122.6875" height="24"><div xmlns="http://www.w3.org/1999/xhtml" style="display: table-cell; white-space: nowrap; line-height: 1.5; max-width: 166px; text-align: center;"><span class="nodeLabel markdown-node-label" style=""><p>GraphOLAPError</p></span></div></foreignObject></g></g><g class="members-group text" transform="translate(-119.06640625, 0)"><g class="label" style="" transform="translate(0,-12)"><foreignObject width="98.25" height="24"><div xmlns="http://www.w3.org/1999/xhtml" style="display: table-cell; white-space: nowrap; line-height: 1.5; max-width: 143px; text-align: center;"><span class="nodeLabel markdown-node-label" style=""><p>+message: str</p></span></div></foreignObject></g><g class="label" style="" transform="translate(0,12)"><foreignObject width="124.0625" height="24"><div xmlns="http://www.w3.org/1999/xhtml" style="display: table-cell; white-space: nowrap; line-height: 1.5; max-width: 164px; text-align: center;"><span class="nodeLabel markdown-node-label" style=""><p>+status_code: int</p></span></div></foreignObject></g><g class="label" style="" transform="translate(0,36)"><foreignObject width="169.046875" height="24"><div xmlns="http://www.w3.org/1999/xhtml" style="display: table-cell; white-space: nowrap; line-height: 1.5; max-width: 209px; text-align: center;"><span class="nodeLabel markdown-node-label" style=""><p>Catch-all for SDK errors</p></span></div></foreignObject></g></g><g class="methods-group text" transform="translate(-119.06640625, 96)"></g><g class="divider" style=""><path d="M-131.06640625 -24 C-43.35508194701899 -24, 44.356242355962024 -24, 131.06640625 -24 M-131.06640625 -24 C-73.46768304164351 -24, -15.868959833287036 -24, 131.06640625 -24" stroke="#9370DB" stroke-width="1.3" fill="none" stroke-dasharray="0 0" style=""></path></g><g class="divider" style=""><path d="M-131.06640625 72 C-47.687845617357695 72, 35.69071501528461 72, 131.06640625 72 M-131.06640625 72 C-60.64729004491676 72, 9.771826160166484 72, 131.06640625 72" stroke="#9370DB" stroke-width="1.3" fill="none" stroke-dasharray="0 0" style=""></path></g></g><g class="node default" id="classId-NotFoundError-1" transform="translate(153.66015625, 363.5)"><g class="basic label-container"><path d="M-141.66015625 -72 L141.66015625 -72 L141.66015625 72 L-141.66015625 72" stroke="none" stroke-width="0" fill="#ECECFF" style=""></path><path d="M-141.66015625 -72 C-82.02518859230796 -72, -22.390220934615925 -72, 141.66015625 -72 M-141.66015625 -72 C-48.526332105325494 -72, 44.60749203934901 -72, 141.66015625 -72 M141.66015625 -72 C141.66015625 -24.769734157840773, 141.66015625 22.460531684318454, 141.66015625 72 M141.66015625 -72 C141.66015625 -19.85565654425305, 141.66015625 32.2886869114939, 141.66015625 72 M141.66015625 72 C42.58270720898423 72, -56.494741832031536 72, -141.66015625 72 M141.66015625 72 C59.94958493445449 72, -21.760986381091016 72, -141.66015625 72 M-141.66015625 72 C-141.66015625 20.239602203138226, -141.66015625 -31.520795593723548, -141.66015625 -72 M-141.66015625 72 C-141.66015625 40.85531899278458, -141.66015625 9.710637985569164, -141.66015625 -72" stroke="#9370DB" stroke-width="1.3" fill="none" stroke-dasharray="0 0" style=""></path></g><g class="annotation-group text" transform="translate(0, -48)"></g><g class="label-group text" transform="translate(-55.2890625, -48)"><g class="label" style="font-weight: bolder" transform="translate(0,-12)"><foreignObject width="110.578125" height="24"><div xmlns="http://www.w3.org/1999/xhtml" style="display: table-cell; white-space: nowrap; line-height: 1.5; max-width: 149px; text-align: center;"><span class="nodeLabel markdown-node-label" style=""><p>NotFoundError</p></span></div></foreignObject></g></g><g class="members-group text" transform="translate(-129.66015625, 0)"><g class="label" style="" transform="translate(0,-12)"><foreignObject width="182.921875" height="24"><div xmlns="http://www.w3.org/1999/xhtml" style="display: table-cell; white-space: nowrap; line-height: 1.5; max-width: 220px; text-align: center;"><span class="nodeLabel markdown-node-label" style=""><p>404 - Resource Not Found</p></span></div></foreignObject></g><g class="label" style="" transform="translate(0,12)"><foreignObject width="204.03125" height="24"><div xmlns="http://www.w3.org/1999/xhtml" style="display: table-cell; white-space: nowrap; line-height: 1.5; max-width: 236px; text-align: center;"><span class="nodeLabel markdown-node-label" style=""><p>Mapping, Snapshot, Instance</p></span></div></foreignObject></g></g><g class="methods-group text" transform="translate(-129.66015625, 72)"></g><g class="divider" style=""><path d="M-141.66015625 -24 C-82.17160691158874 -24, -22.68305757317748 -24, 141.66015625 -24 M-141.66015625 -24 C-64.31680412543888 -24, 13.026547999122243 -24, 141.66015625 -24" stroke="#9370DB" stroke-width="1.3" fill="none" stroke-dasharray="0 0" style=""></path></g><g class="divider" style=""><path d="M-141.66015625 48 C-83.45211450086884 48, -25.244072751737704 48, 141.66015625 48 M-141.66015625 48 C-37.77158251737097 48, 66.11699121525805 48, 141.66015625 48" stroke="#9370DB" stroke-width="1.3" fill="none" stroke-dasharray="0 0" style=""></path></g></g><g class="node default" id="classId-ValidationError-2" transform="translate(477.15625, 363.5)"><g class="basic label-container"><path d="M-146.8359375 -72 L146.8359375 -72 L146.8359375 72 L-146.8359375 72" stroke="none" stroke-width="0" fill="#ECECFF" style=""></path><path d="M-146.8359375 -72 C-54.551272355484585 -72, 37.73339278903083 -72, 146.8359375 -72 M-146.8359375 -72 C-37.41372677451149 -72, 72.00848395097702 -72, 146.8359375 -72 M146.8359375 -72 C146.8359375 -39.35046573115658, 146.8359375 -6.700931462313164, 146.8359375 72 M146.8359375 -72 C146.8359375 -37.115282426041446, 146.8359375 -2.2305648520828925, 146.8359375 72 M146.8359375 72 C30.070362026927484 72, -86.69521344614503 72, -146.8359375 72 M146.8359375 72 C33.13120119476643 72, -80.57353511046713 72, -146.8359375 72 M-146.8359375 72 C-146.8359375 31.434829369535407, -146.8359375 -9.130341260929185, -146.8359375 -72 M-146.8359375 72 C-146.8359375 21.986192052427484, -146.8359375 -28.027615895145033, -146.8359375 -72" stroke="#9370DB" stroke-width="1.3" fill="none" stroke-dasharray="0 0" style=""></path></g><g class="annotation-group text" transform="translate(0, -48)"></g><g class="label-group text" transform="translate(-56.4375, -48)"><g class="label" style="font-weight: bolder" transform="translate(0,-12)"><foreignObject width="112.875" height="24"><div xmlns="http://www.w3.org/1999/xhtml" style="display: table-cell; white-space: nowrap; line-height: 1.5; max-width: 150px; text-align: center;"><span class="nodeLabel markdown-node-label" style=""><p>ValidationError</p></span></div></foreignObject></g></g><g class="members-group text" transform="translate(-134.8359375, 0)"><g class="label" style="" transform="translate(0,-12)"><foreignObject width="130.34375" height="24"><div xmlns="http://www.w3.org/1999/xhtml" style="display: table-cell; white-space: nowrap; line-height: 1.5; max-width: 170px; text-align: center;"><span class="nodeLabel markdown-node-label" style=""><p>422 - Invalid Input</p></span></div></foreignObject></g><g class="label" style="" transform="translate(0,12)"><foreignObject width="213.234375" height="24"><div xmlns="http://www.w3.org/1999/xhtml" style="display: table-cell; white-space: nowrap; line-height: 1.5; max-width: 243px; text-align: center;"><span class="nodeLabel markdown-node-label" style=""><p>Invalid mappings, bad params</p></span></div></foreignObject></g></g><g class="methods-group text" transform="translate(-134.8359375, 72)"></g><g class="divider" style=""><path d="M-146.8359375 -24 C-58.0213590888321 -24, 30.7932193223358 -24, 146.8359375 -24 M-146.8359375 -24 C-78.69944464638188 -24, -10.562951792763755 -24, 146.8359375 -24" stroke="#9370DB" stroke-width="1.3" fill="none" stroke-dasharray="0 0" style=""></path></g><g class="divider" style=""><path d="M-146.8359375 48 C-87.06891076262863 48, -27.30188402525725 48, 146.8359375 48 M-146.8359375 48 C-37.47250382110437 48, 71.89092985779126 48, 146.8359375 48" stroke="#9370DB" stroke-width="1.3" fill="none" stroke-dasharray="0 0" style=""></path></g></g><g class="node default" id="classId-ForbiddenError-3" transform="translate(785, 363.5)"><g class="basic label-container"><path d="M-126.0078125 -72 L126.0078125 -72 L126.0078125 72 L-126.0078125 72" stroke="none" stroke-width="0" fill="#ECECFF" style=""></path><path d="M-126.0078125 -72 C-66.98742289985482 -72, -7.967033299709641 -72, 126.0078125 -72 M-126.0078125 -72 C-38.1053527670943 -72, 49.797106965811395 -72, 126.0078125 -72 M126.0078125 -72 C126.0078125 -41.11516861514952, 126.0078125 -10.230337230299043, 126.0078125 72 M126.0078125 -72 C126.0078125 -22.31735912016081, 126.0078125 27.365281759678382, 126.0078125 72 M126.0078125 72 C59.70832648044117 72, -6.591159539117655 72, -126.0078125 72 M126.0078125 72 C30.994701443537707 72, -64.01840961292459 72, -126.0078125 72 M-126.0078125 72 C-126.0078125 17.396331239498487, -126.0078125 -37.207337521003026, -126.0078125 -72 M-126.0078125 72 C-126.0078125 29.201166693827744, -126.0078125 -13.597666612344511, -126.0078125 -72" stroke="#9370DB" stroke-width="1.3" fill="none" stroke-dasharray="0 0" style=""></path></g><g class="annotation-group text" transform="translate(0, -48)"></g><g class="label-group text" transform="translate(-57.21875, -48)"><g class="label" style="font-weight: bolder" transform="translate(0,-12)"><foreignObject width="114.4375" height="24"><div xmlns="http://www.w3.org/1999/xhtml" style="display: table-cell; white-space: nowrap; line-height: 1.5; max-width: 150px; text-align: center;"><span class="nodeLabel markdown-node-label" style=""><p>ForbiddenError</p></span></div></foreignObject></g></g><g class="members-group text" transform="translate(-114.0078125, 0)"><g class="label" style="" transform="translate(0,-12)"><foreignObject width="170.796875" height="24"><div xmlns="http://www.w3.org/1999/xhtml" style="display: table-cell; white-space: nowrap; line-height: 1.5; max-width: 209px; text-align: center;"><span class="nodeLabel markdown-node-label" style=""><p>403 - Permission Denied</p></span></div></foreignObject></g><g class="label" style="" transform="translate(0,12)"><foreignObject width="161.140625" height="24"><div xmlns="http://www.w3.org/1999/xhtml" style="display: table-cell; white-space: nowrap; line-height: 1.5; max-width: 199px; text-align: center;"><span class="nodeLabel markdown-node-label" style=""><p>Admin-only operations</p></span></div></foreignObject></g></g><g class="methods-group text" transform="translate(-114.0078125, 72)"></g><g class="divider" style=""><path d="M-126.0078125 -24 C-49.057070940223724 -24, 27.89367061955255 -24, 126.0078125 -24 M-126.0078125 -24 C-45.92018095269417 -24, 34.167450594611665 -24, 126.0078125 -24" stroke="#9370DB" stroke-width="1.3" fill="none" stroke-dasharray="0 0" style=""></path></g><g class="divider" style=""><path d="M-126.0078125 48 C-57.7747121610458 48, 10.458388177908404 48, 126.0078125 48 M-126.0078125 48 C-44.460632269381634 48, 37.08654796123673 48, 126.0078125 48" stroke="#9370DB" stroke-width="1.3" fill="none" stroke-dasharray="0 0" style=""></path></g></g><g class="node default" id="classId-RyugraphError-4" transform="translate(1076.6171875, 363.5)"><g class="basic label-container"><path d="M-130.609375 -72 L130.609375 -72 L130.609375 72 L-130.609375 72" stroke="none" stroke-width="0" fill="#ECECFF" style=""></path><path d="M-130.609375 -72 C-45.75171816280631 -72, 39.105938674387374 -72, 130.609375 -72 M-130.609375 -72 C-32.411081608616655 -72, 65.78721178276669 -72, 130.609375 -72 M130.609375 -72 C130.609375 -17.051623258426964, 130.609375 37.89675348314607, 130.609375 72 M130.609375 -72 C130.609375 -15.023404388940207, 130.609375 41.953191222119585, 130.609375 72 M130.609375 72 C61.72194964587425 72, -7.165475708251506 72, -130.609375 72 M130.609375 72 C52.846060360053784 72, -24.917254279892433 72, -130.609375 72 M-130.609375 72 C-130.609375 28.074127206761936, -130.609375 -15.851745586476127, -130.609375 -72 M-130.609375 72 C-130.609375 40.235717016817006, -130.609375 8.471434033634019, -130.609375 -72" stroke="#9370DB" stroke-width="1.3" fill="none" stroke-dasharray="0 0" style=""></path></g><g class="annotation-group text" transform="translate(0, -48)"></g><g class="label-group text" transform="translate(-54.0625, -48)"><g class="label" style="font-weight: bolder" transform="translate(0,-12)"><foreignObject width="108.125" height="24"><div xmlns="http://www.w3.org/1999/xhtml" style="display: table-cell; white-space: nowrap; line-height: 1.5; max-width: 146px; text-align: center;"><span class="nodeLabel markdown-node-label" style=""><p>RyugraphError</p></span></div></foreignObject></g></g><g class="members-group text" transform="translate(-118.609375, 0)"><g class="label" style="" transform="translate(0,-12)"><foreignObject width="135.9375" height="24"><div xmlns="http://www.w3.org/1999/xhtml" style="display: table-cell; white-space: nowrap; line-height: 1.5; max-width: 177px; text-align: center;"><span class="nodeLabel markdown-node-label" style=""><p>Graph Engine Error</p></span></div></foreignObject></g><g class="label" style="" transform="translate(0,12)"><foreignObject width="183.15625" height="24"><div xmlns="http://www.w3.org/1999/xhtml" style="display: table-cell; white-space: nowrap; line-height: 1.5; max-width: 213px; text-align: center;"><span class="nodeLabel markdown-node-label" style=""><p>Query failures, mutations</p></span></div></foreignObject></g></g><g class="methods-group text" transform="translate(-118.609375, 72)"></g><g class="divider" style=""><path d="M-130.609375 -24 C-31.99337577852131 -24, 66.62262344295738 -24, 130.609375 -24 M-130.609375 -24 C-39.10888803405899 -24, 52.391598931882015 -24, 130.609375 -24" stroke="#9370DB" stroke-width="1.3" fill="none" stroke-dasharray="0 0" style=""></path></g><g class="divider" style=""><path d="M-130.609375 48 C-37.37175636986984 48, 55.865862260260315 48, 130.609375 48 M-130.609375 48 C-44.81335177950031 48, 40.98267144099938 48, 130.609375 48" stroke="#9370DB" stroke-width="1.3" fill="none" stroke-dasharray="0 0" style=""></path></g></g><g class="node default" id="classId-InvalidStateError-5" transform="translate(1380.14453125, 363.5)"><g class="basic label-container"><path d="M-137.91796875 -72 L137.91796875 -72 L137.91796875 72 L-137.91796875 72" stroke="none" stroke-width="0" fill="#ECECFF" style=""></path><path d="M-137.91796875 -72 C-48.29626733257378 -72, 41.325434084852446 -72, 137.91796875 -72 M-137.91796875 -72 C-28.025517434262767 -72, 81.86693388147447 -72, 137.91796875 -72 M137.91796875 -72 C137.91796875 -42.05491505390127, 137.91796875 -12.109830107802537, 137.91796875 72 M137.91796875 -72 C137.91796875 -21.82192830156079, 137.91796875 28.356143396878423, 137.91796875 72 M137.91796875 72 C82.03425413521256 72, 26.15053952042514 72, -137.91796875 72 M137.91796875 72 C41.785624569603144 72, -54.34671961079371 72, -137.91796875 72 M-137.91796875 72 C-137.91796875 33.89249146281331, -137.91796875 -4.215017074373378, -137.91796875 -72 M-137.91796875 72 C-137.91796875 20.29137903816104, -137.91796875 -31.41724192367792, -137.91796875 -72" stroke="#9370DB" stroke-width="1.3" fill="none" stroke-dasharray="0 0" style=""></path></g><g class="annotation-group text" transform="translate(0, -48)"></g><g class="label-group text" transform="translate(-63.4453125, -48)"><g class="label" style="font-weight: bolder" transform="translate(0,-12)"><foreignObject width="126.890625" height="24"><div xmlns="http://www.w3.org/1999/xhtml" style="display: table-cell; white-space: nowrap; line-height: 1.5; max-width: 161px; text-align: center;"><span class="nodeLabel markdown-node-label" style=""><p>InvalidStateError</p></span></div></foreignObject></g></g><g class="members-group text" transform="translate(-125.91796875, 0)"><g class="label" style="" transform="translate(0,-12)"><foreignObject width="188.390625" height="24"><div xmlns="http://www.w3.org/1999/xhtml" style="display: table-cell; white-space: nowrap; line-height: 1.5; max-width: 220px; text-align: center;"><span class="nodeLabel markdown-node-label" style=""><p>Wrong State for Operation</p></span></div></foreignObject></g><g class="label" style="" transform="translate(0,12)"><foreignObject width="180.640625" height="24"><div xmlns="http://www.w3.org/1999/xhtml" style="display: table-cell; white-space: nowrap; line-height: 1.5; max-width: 209px; text-align: center;"><span class="nodeLabel markdown-node-label" style=""><p>Non-ready snapshot, etc.</p></span></div></foreignObject></g></g><g class="methods-group text" transform="translate(-125.91796875, 72)"></g><g class="divider" style=""><path d="M-137.91796875 -24 C-44.04737055502957 -24, 49.82322763994085 -24, 137.91796875 -24 M-137.91796875 -24 C-74.18208932208955 -24, -10.44620989417912 -24, 137.91796875 -24" stroke="#9370DB" stroke-width="1.3" fill="none" stroke-dasharray="0 0" style=""></path></g><g class="divider" style=""><path d="M-137.91796875 48 C-31.067532546123658 48, 75.78290365775268 48, 137.91796875 48 M-137.91796875 48 C-57.27281669422668 48, 23.372335361546646 48, 137.91796875 48" stroke="#9370DB" stroke-width="1.3" fill="none" stroke-dasharray="0 0" style=""></path></g></g><g class="node default" id="classId-AlgorithmNotFoundError-6" transform="translate(1076.6171875, 542.5)"><g class="basic label-container"><path d="M-127.44140625 -72 L127.44140625 -72 L127.44140625 72 L-127.44140625 72" stroke="none" stroke-width="0" fill="#ECECFF" style=""></path><path d="M-127.44140625 -72 C-71.0810952792197 -72, -14.720784308439391 -72, 127.44140625 -72 M-127.44140625 -72 C-32.875674241609275 -72, 61.69005776678145 -72, 127.44140625 -72 M127.44140625 -72 C127.44140625 -24.591742132955474, 127.44140625 22.81651573408905, 127.44140625 72 M127.44140625 -72 C127.44140625 -18.070770564177742, 127.44140625 35.858458871644515, 127.44140625 72 M127.44140625 72 C46.05045124461553 72, -35.34050376076894 72, -127.44140625 72 M127.44140625 72 C54.23248345989181 72, -18.97643933021638 72, -127.44140625 72 M-127.44140625 72 C-127.44140625 26.758994540269995, -127.44140625 -18.48201091946001, -127.44140625 -72 M-127.44140625 72 C-127.44140625 29.521598698356584, -127.44140625 -12.956802603286832, -127.44140625 -72" stroke="#9370DB" stroke-width="1.3" fill="none" stroke-dasharray="0 0" style=""></path></g><g class="annotation-group text" transform="translate(0, -48)"></g><g class="label-group text" transform="translate(-91.8515625, -48)"><g class="label" style="font-weight: bolder" transform="translate(0,-12)"><foreignObject width="183.703125" height="24"><div xmlns="http://www.w3.org/1999/xhtml" style="display: table-cell; white-space: nowrap; line-height: 1.5; max-width: 215px; text-align: center;"><span class="nodeLabel markdown-node-label" style=""><p>AlgorithmNotFoundError</p></span></div></foreignObject></g></g><g class="members-group text" transform="translate(-115.44140625, 0)"><g class="label" style="" transform="translate(0,-12)"><foreignObject width="139.03125" height="24"><div xmlns="http://www.w3.org/1999/xhtml" style="display: table-cell; white-space: nowrap; line-height: 1.5; max-width: 183px; text-align: center;"><span class="nodeLabel markdown-node-label" style=""><p>Unknown Algorithm</p></span></div></foreignObject></g><g class="label" style="" transform="translate(0,12)"><foreignObject width="126.171875" height="24"><div xmlns="http://www.w3.org/1999/xhtml" style="display: table-cell; white-space: nowrap; line-height: 1.5; max-width: 166px; text-align: center;"><span class="nodeLabel markdown-node-label" style=""><p>Invalid algo name</p></span></div></foreignObject></g></g><g class="methods-group text" transform="translate(-115.44140625, 72)"></g><g class="divider" style=""><path d="M-127.44140625 -24 C-49.745450114289724 -24, 27.95050602142055 -24, 127.44140625 -24 M-127.44140625 -24 C-54.98727174500357 -24, 17.466862759992864 -24, 127.44140625 -24" stroke="#9370DB" stroke-width="1.3" fill="none" stroke-dasharray="0 0" style=""></path></g><g class="divider" style=""><path d="M-127.44140625 48 C-60.11269759102717 48, 7.216011067945658 48, 127.44140625 48 M-127.44140625 48 C-56.73556485554239 48, 13.970276538915215 48, 127.44140625 48" stroke="#9370DB" stroke-width="1.3" fill="none" stroke-dasharray="0 0" style=""></path></g></g></g><g class="edges edgePaths"><path d="M153.66,221.25L153.66,291.5" id="id_GraphOLAPError_NotFoundError_1_0" class="edge-thickness-normal edge-pattern-solid relation" style=";;;" data-edge="true" data-et="edge" data-id="id_GraphOLAPError_NotFoundError_1_0" data-points="W3sieCI6MTUzLjY2MDE1NjI1LCJ5IjoyMDR9LHsieCI6MTUzLjY2MDE1NjI1LCJ5IjoyOTEuNX1d" marker-start="url(#mermaid-1770211548155_class-extensionStart)"></path><path d="M197.349,221.25L197.349,229.208C197.349,237.167,197.349,253.083,197.711,261.513C198.073,269.943,198.797,270.886,199.63,271.719C200.463,272.552,201.406,273.276,246.845,273.638C292.285,274,382.22,274,427.66,274.362C473.099,274.724,474.042,275.448,474.875,276.281C475.709,277.114,476.432,278.057,476.794,280.612C477.156,283.167,477.156,287.333,477.156,289.417L477.156,291.5" id="id_GraphOLAPError_ValidationError_2_0" class="edge-thickness-normal edge-pattern-solid relation" style=";;;" data-edge="true" data-et="edge" data-id="id_GraphOLAPError_ValidationError_2_0" data-points="W3sieCI6MTk3LjM0ODk1ODMzMzMzMzMxLCJ5IjoyMDR9LHsieCI6MTk3LjM0ODk1ODMzMzMzMzMxLCJ5IjoyNzR9LHsieCI6NDc3LjE1NjI1LCJ5IjoyNzR9LHsieCI6NDc3LjE1NjI1LCJ5IjoyOTEuNX1d" marker-start="url(#mermaid-1770211548155_class-extensionStart)"></path><path d="M241.038,221.25L241.038,226.292C241.038,231.333,241.038,241.417,241.4,246.93C241.762,252.443,242.485,253.386,243.319,254.219C244.152,255.052,245.095,255.776,334.56,256.138C424.025,256.5,602.013,256.5,691.478,256.862C780.943,257.224,781.886,257.948,782.719,258.781C783.552,259.614,784.276,260.557,784.638,266.029C785,271.5,785,281.5,785,286.5L785,291.5" id="id_GraphOLAPError_ForbiddenError_3_0" class="edge-thickness-normal edge-pattern-solid relation" style=";;;" data-edge="true" data-et="edge" data-id="id_GraphOLAPError_ForbiddenError_3_0" data-points="W3sieCI6MjQxLjAzNzc2MDQxNjY2NjY5LCJ5IjoyMDR9LHsieCI6MjQxLjAzNzc2MDQxNjY2NjY5LCJ5IjoyNTYuNX0seyJ4Ijo3ODUsInkiOjI1Ni41fSx7IngiOjc4NSwieSI6MjkxLjV9XQ==" marker-start="url(#mermaid-1770211548155_class-extensionStart)"></path><path d="M284.727,221.25L284.727,223.375C284.727,225.5,284.727,229.75,285.088,232.346C285.45,234.943,286.174,235.886,287.008,236.719C287.841,237.552,288.784,238.276,419.57,238.638C550.357,239,810.987,239,941.773,239.362C1072.56,239.724,1073.503,240.448,1074.336,241.281C1075.169,242.114,1075.893,243.057,1076.255,251.445C1076.617,259.833,1076.617,275.667,1076.617,283.583L1076.617,291.5" id="id_GraphOLAPError_RyugraphError_4_0" class="edge-thickness-normal edge-pattern-solid relation" style=";;;" data-edge="true" data-et="edge" data-id="id_GraphOLAPError_RyugraphError_4_0" data-points="W3sieCI6Mjg0LjcyNjU2MjUsInkiOjIwNH0seyJ4IjoyODQuNzI2NTYyNSwieSI6MjM5fSx7IngiOjEwNzYuNjE3MTg3NSwieSI6MjM5fSx7IngiOjEwNzYuNjE3MTg3NSwieSI6MjkxLjV9XQ==" marker-start="url(#mermaid-1770211548155_class-extensionStart)"></path><path d="M328.415,221.25L328.415,221.417C328.415,221.583,328.415,221.917,331.457,222.083C334.499,222.25,340.582,222.25,341.415,222.125C342.249,222,337.832,221.75,509.245,221.625C680.658,221.5,1027.901,221.5,1201.994,221.862C1376.087,222.224,1377.03,222.948,1377.863,223.781C1378.697,224.614,1379.421,225.557,1379.783,236.862C1380.145,248.167,1380.145,269.833,1380.145,280.667L1380.145,291.5" id="id_GraphOLAPError_InvalidStateError_5_0" class="edge-thickness-normal edge-pattern-solid relation" style=";;;" data-edge="true" data-et="edge" data-id="id_GraphOLAPError_InvalidStateError_5_0" data-points="W3sieCI6MzI4LjQxNTM2NDU4MzMzMzMsInkiOjIwNH0seyJ4IjozMjguNDE1MzY0NTgzMzMzMywieSI6MjIxLjV9LHsieCI6MTM4MC4xNDQ1MzEyNSwieSI6MjIxLjV9LHsieCI6MTM4MC4xNDQ1MzEyNSwieSI6MjkxLjV9XQ==" marker-start="url(#mermaid-1770211548155_class-extensionStart)"></path><path d="M1076.617,452.75L1076.617,470.5" id="id_RyugraphError_AlgorithmNotFoundError_6_0" class="edge-thickness-normal edge-pattern-solid relation" style=";;;" data-edge="true" data-et="edge" data-id="id_RyugraphError_AlgorithmNotFoundError_6_0" data-points="W3sieCI6MTA3Ni42MTcxODc1LCJ5Ijo0MzUuNX0seyJ4IjoxMDc2LjYxNzE4NzUsInkiOjQ3MC41fV0=" marker-start="url(#mermaid-1770211548155_class-extensionStart)"></path></g><g class="edgeLabels"><g class="edgeLabel"><g class="label" data-id="id_GraphOLAPError_NotFoundError_1_0" transform="translate(0, 0)"><foreignObject width="0" height="0"><div xmlns="http://www.w3.org/1999/xhtml" class="labelBkg" style="display: table-cell; white-space: nowrap; line-height: 1.5; max-width: 200px; text-align: center;"><span class="edgeLabel"></span></div></foreignObject></g></g><g class="edgeLabel"><g class="label" data-id="id_GraphOLAPError_ValidationError_2_0" transform="translate(0, 0)"><foreignObject width="0" height="0"><div xmlns="http://www.w3.org/1999/xhtml" class="labelBkg" style="display: table-cell; white-space: nowrap; line-height: 1.5; max-width: 200px; text-align: center;"><span class="edgeLabel"></span></div></foreignObject></g></g><g class="edgeLabel"><g class="label" data-id="id_GraphOLAPError_ForbiddenError_3_0" transform="translate(0, 0)"><foreignObject width="0" height="0"><div xmlns="http://www.w3.org/1999/xhtml" class="labelBkg" style="display: table-cell; white-space: nowrap; line-height: 1.5; max-width: 200px; text-align: center;"><span class="edgeLabel"></span></div></foreignObject></g></g><g class="edgeLabel"><g class="label" data-id="id_GraphOLAPError_RyugraphError_4_0" transform="translate(0, 0)"><foreignObject width="0" height="0"><div xmlns="http://www.w3.org/1999/xhtml" class="labelBkg" style="display: table-cell; white-space: nowrap; line-height: 1.5; max-width: 200px; text-align: center;"><span class="edgeLabel"></span></div></foreignObject></g></g><g class="edgeLabel"><g class="label" data-id="id_GraphOLAPError_InvalidStateError_5_0" transform="translate(0, 0)"><foreignObject width="0" height="0"><div xmlns="http://www.w3.org/1999/xhtml" class="labelBkg" style="display: table-cell; white-space: nowrap; line-height: 1.5; max-width: 200px; text-align: center;"><span class="edgeLabel"></span></div></foreignObject></g></g><g class="edgeLabel"><g class="label" data-id="id_RyugraphError_AlgorithmNotFoundError_6_0" transform="translate(0, 0)"><foreignObject width="0" height="0"><div xmlns="http://www.w3.org/1999/xhtml" class="labelBkg" style="display: table-cell; white-space: nowrap; line-height: 1.5; max-width: 200px; text-align: center;"><span class="edgeLabel"></span></div></foreignObject></g></g></g></svg>