<svg id="mermaid-1770215511200" width="100%" xmlns="http://www.w3.org/2000/svg" xmlns:xlink="http://www.w3.org/1999/xlink" class="flowchart" style="max-width: 1017px;" viewBox="-8 -8 1017 386" role="graphics-document document" aria-roledescription="flowchart-v2" aria-describedby="chart-desc-mermaid-1770215511200" aria-labelledby="chart-title-mermaid-1770215511200" height="auto"><title id="chart-title-mermaid-1770215511200">Resource Ownership Model</title><desc id="chart-desc-mermaid-1770215511200">Shows how ownership is assigned when creating resources</desc><style>#mermaid-1770215511200{font-family:"trebuchet ms",verdana,arial,sans-serif;font-size:16px;fill:#333;}@keyframes edge-animation-frame{from{stroke-dashoffset:0;}}@keyframes dash{to{stroke-dashoffset:0;}}#mermaid-1770215511200 .edge-animation-slow{stroke-dasharray:9,5!important;stroke-dashoffset:900;animation:dash 50s linear infinite;stroke-linecap:round;}#mermaid-1770215511200 .edge-animation-fast{stroke-dasharray:9,5!important;stroke-dashoffset:900;animation:dash 20s linear infinite;stroke-linecap:round;}#mermaid-1770215511200 .error-icon{fill:#552222;}#mermaid-1770215511200 .error-text{fill:#552222;stroke:#552222;}#mermaid-1770215511200 .edge-thickness-normal{stroke-width:1px;}#mermaid-1770215511200 .edge-thickness-thick{stroke-width:3.5px;}#mermaid-1770215511200 .edge-pattern-solid{stroke-dasharray:0;}#mermaid-1770215511200 .edge-thickness-invisible{stroke-width:0;fill:none;}#mermaid-1770215511200 .edge-pattern-dashed{stroke-dasharray:3;}#mermaid-1770215511200 .edge-pattern-dotted{stroke-dasharray:2;}#mermaid-1770215511200 .marker{fill:#333333;stroke:#333333;}#mermaid-1770215511200 .marker.cross{stroke:#333333;}#mermaid-1770215511200 svg{font-family:"trebuchet ms",verdana,arial,sans-serif;font-size:16px;}#mermaid-1770215511200 p{margin:0;}#mermaid-1770215511200 .label{font-family:"trebuchet ms",verdana,arial,sans-serif;color:#333;}#mermaid-1770215511200 .cluster-label text{fill:#333;}#mermaid-1770215511200 .cluster-label span{color:#333;}#mermaid-1770215511200 .cluster-label span p{background-color:transparent;}#mermaid-1770215511200 .label text,#mermaid-1770215511200 span{fill:#333;color:#333;}#mermaid-1770215511200 .node rect,#mermaid-1770215511200 .node circle,#mermaid-1770215511200 .node ellipse,#mermaid-1770215511200 .node polygon,#mermaid-1770215511200 .node path{fill:#ECECFF;stroke:#9370DB;stroke-width:1px;}#mermaid-1770215511200 .rough-node .label text,#mermaid-1770215511200 .node .label text,#mermaid-1770215511200 .image-shape .label,#mermaid-1770215511200 .icon-shape .label{text-anchor:middle;}#mermaid-1770215511200 .node .katex path{fill:#000;stroke:#000;stroke-width:1px;}#mermaid-1770215511200 .rough-node .label,#mermaid-1770215511200 .node .label,#mermaid-1770215511200 .image-shape .label,#mermaid-1770215511200 .icon-shape .label{text-align:center;}#mermaid-1770215511200 .node.clickable{cursor:pointer;}#mermaid-1770215511200 .root .anchor path{fill:#333333!important;stroke-width:0;stroke:#333333;}#mermaid-1770215511200 .arrowheadPath{fill:#333333;}#mermaid-1770215511200 .edgePath .path{stroke:#333333;stroke-width:2.0px;}#mermaid-1770215511200 .flowchart-link{stroke:#333333;fill:none;}#mermaid-1770215511200 .edgeLabel{background-color:rgba(232,232,232, 0.8);text-align:center;}#mermaid-1770215511200 .edgeLabel p{background-color:rgba(232,232,232, 0.8);}#mermaid-1770215511200 .edgeLabel rect{opacity:0.5;background-color:rgba(232,232,232, 0.8);fill:rgba(232,232,232, 0.8);}#mermaid-1770215511200 .labelBkg{background-color:rgba(232, 232, 232, 0.5);}#mermaid-1770215511200 .cluster rect{fill:#ffffde;stroke:#aaaa33;stroke-width:1px;}#mermaid-1770215511200 .cluster text{fill:#333;}#mermaid-1770215511200 .cluster span{color:#333;}#mermaid-1770215511200 div.mermaidTooltip{position:absolute;text-align:center;max-width:200px;padding:2px;font-family:"trebuchet ms",verdana,arial,sans-serif;font-size:12px;background:hsl(80, 100%, 96.2745098039%);border:1px solid #aaaa33;border-radius:2px;pointer-events:none;z-index:100;}#mermaid-1770215511200 .flowchartTitleText{text-anchor:middle;font-size:18px;fill:#333;}#mermaid-1770215511200 rect.text{fill:none;stroke-width:0;}#mermaid-1770215511200 .icon-shape,#mermaid-1770215511200 .image-shape{background-color:rgba(232,232,232, 0.8);text-align:center;}#mermaid-1770215511200 .icon-shape p,#mermaid-1770215511200 .image-shape p{background-color:rgba(232,232,232, 0.8);padding:2px;}#mermaid-1770215511200 .icon-shape rect,#mermaid-1770215511200 .image-shape rect{opacity:0.5;background-color:rgba(232,232,232, 0.8);fill:rgba(232,232,232, 0.8);}#mermaid-1770215511200 .label-icon{display:inline-block;height:1em;overflow:visible;vertical-align:-0.125em;}#mermaid-1770215511200 .node .label-icon path{fill:currentColor;stroke:revert;stroke-width:revert;}#mermaid-1770215511200 :root{--mermaid-font-family:"trebuchet ms",verdana,arial,sans-serif;}#mermaid-1770215511200 .user&gt;*{fill:#F3E5F5!important;stroke:#7B1FA2!important;stroke-width:2px!important;color:#4A148C!important;}#mermaid-1770215511200 .user span{fill:#F3E5F5!important;stroke:#7B1FA2!important;stroke-width:2px!important;color:#4A148C!important;}#mermaid-1770215511200 .user tspan{fill:#4A148C!important;}#mermaid-1770215511200 .mapping&gt;*{fill:#E3F2FD!important;stroke:#1565C0!important;stroke-width:2px!important;color:#0D47A1!important;}#mermaid-1770215511200 .mapping span{fill:#E3F2FD!important;stroke:#1565C0!important;stroke-width:2px!important;color:#0D47A1!important;}#mermaid-1770215511200 .mapping tspan{fill:#0D47A1!important;}#mermaid-1770215511200 .snapshot&gt;*{fill:#E8F5E9!important;stroke:#2E7D32!important;stroke-width:2px!important;color:#1B5E20!important;}#mermaid-1770215511200 .snapshot span{fill:#E8F5E9!important;stroke:#2E7D32!important;stroke-width:2px!important;color:#1B5E20!important;}#mermaid-1770215511200 .snapshot tspan{fill:#1B5E20!important;}#mermaid-1770215511200 .instance&gt;*{fill:#FFF8E1!important;stroke:#F57F17!important;stroke-width:2px!important;color:#E65100!important;}#mermaid-1770215511200 .instance span{fill:#FFF8E1!important;stroke:#F57F17!important;stroke-width:2px!important;color:#E65100!important;}#mermaid-1770215511200 .instance tspan{fill:#E65100!important;}</style><g><marker id="mermaid-1770215511200_flowchart-v2-pointEnd" class="marker flowchart-v2" viewBox="0 0 10 10" refX="5" refY="5" markerUnits="userSpaceOnUse" markerWidth="8" markerHeight="8" orient="auto"><path d="M 0 0 L 10 5 L 0 10 z" class="arrowMarkerPath" style="stroke-width: 1; stroke-dasharray: 1, 0;"></path></marker><marker id="mermaid-1770215511200_flowchart-v2-pointStart" class="marker flowchart-v2" viewBox="0 0 10 10" refX="4.5" refY="5" markerUnits="userSpaceOnUse" markerWidth="8" markerHeight="8" orient="auto"><path d="M 0 5 L 10 10 L 10 0 z" class="arrowMarkerPath" style="stroke-width: 1; stroke-dasharray: 1, 0;"></path></marker><marker id="mermaid-1770215511200_flowchart-v2-circleEnd" class="marker flowchart-v2" viewBox="0 0 10 10" refX="11" refY="5" markerUnits="userSpaceOnUse" markerWidth="11" markerHeight="11" orient="auto"><circle cx="5" cy="5" r="5" class="arrowMarkerPath" style="stroke-width: 1; stroke-dasharray: 1, 0;"></circle></marker><marker id="mermaid-1770215511200_flowchart-v2-circleStart" class="marker flowchart-v2" viewBox="0 0 10 10" refX="-1" refY="5" markerUnits="userSpaceOnUse" markerWidth="11" markerHeight="11" orient="auto"><circle cx="5" cy="5" r="5" class="arrowMarkerPath" style="stroke-width: 1; stroke-dasharray: 1, 0;"></circle></marker><marker id="mermaid-1770215511200_flowchart-v2-crossEnd" class="marker cross flowchart-v2" viewBox="0 0 11 11" refX="12" refY="5.2" markerUnits="userSpaceOnUse" markerWidth="11" markerHeight="11" orient="auto"><path d="M 1,1 l 9,9 M 10,1 l -9,9" class="arrowMarkerPath" style="stroke-width: 2; stroke-dasharray: 1, 0;"></path></marker><marker id="mermaid-1770215511200_flowchart-v2-crossStart" class="marker cross flowchart-v2" viewBox="0 0 11 11" refX="-1" refY="5.2" markerUnits="userSpaceOnUse" markerWidth="11" markerHeight="11" orient="auto"><path d="M 1,1 l 9,9 M 10,1 l -9,9" class="arrowMarkerPath" style="stroke-width: 2; stroke-dasharray: 1, 0;"></path></marker></g><g class="subgraphs"><g class="subgraph"><g class="cluster" id="Resources" data-look="classic"><rect style="" x="424.4375" y="12" width="563.96875" height="346"></rect><g class="cluster-label" transform="translate(634.4453125, 12)"><foreignObject width="143.953125" height="24"><div xmlns="http://www.w3.org/1999/xhtml" style="display: table-cell; white-space: nowrap; line-height: 1.5; max-width: 200px; text-align: center;"><span class="nodeLabel"><p>Resource Ownership</p></span></div></foreignObject></g></g></g><g class="subgraph"><g class="cluster" id="Bob" data-look="classic"><rect style="" x="19.921875" y="119" width="249.1875" height="90"></rect><g class="cluster-label" transform="translate(96.9453125, 119)"><foreignObject width="95.140625" height="24"><div xmlns="http://www.w3.org/1999/xhtml" style="display: table-cell; white-space: nowrap; line-height: 1.5; max-width: 200px; text-align: center;"><span class="nodeLabel"><p>Bob (Analyst)</p></span></div></foreignObject></g></g></g><g class="subgraph"><g class="cluster" id="Alice" data-look="classic"><rect style="" x="12" y="244" width="257.109375" height="90"></rect><g class="cluster-label" transform="translate(88.578125, 244)"><foreignObject width="103.953125" height="24"><div xmlns="http://www.w3.org/1999/xhtml" style="display: table-cell; white-space: nowrap; line-height: 1.5; max-width: 200px; text-align: center;"><span class="nodeLabel"><p>Alice (Analyst)</p></span></div></foreignObject></g></g></g></g><g class="nodes"><g class="node default mapping" id="flowchart-M1-2" transform="translate(516.9921875, 132)"><rect class="basic label-container" style="fill:#E3F2FD !important;stroke:#1565C0 !important;stroke-width:2px !important" x="-80.5546875" y="-39" width="161.109375" height="78"></rect><g class="label" style="color:#0D47A1 !important" transform="translate(-50.5546875, -24)"><rect></rect><foreignObject width="101.109375" height="48"><div style="color: rgb(13, 71, 161) !important; display: table-cell; white-space: nowrap; line-height: 1.5; max-width: 200px; text-align: center;" xmlns="http://www.w3.org/1999/xhtml"><span style="color:#0D47A1 !important" class="nodeLabel"><p>Mapping A<br/>(owner: Alice)</p></span></div></foreignObject></g></g><g class="node default snapshot" id="flowchart-S1-3" transform="translate(516.9921875, 241)"><rect class="basic label-container" style="fill:#E8F5E9 !important;stroke:#2E7D32 !important;stroke-width:2px !important" x="-80.5546875" y="-39" width="161.109375" height="78"></rect><g class="label" style="color:#1B5E20 !important" transform="translate(-50.5546875, -24)"><rect></rect><foreignObject width="101.109375" height="48"><div style="color: rgb(27, 94, 32) !important; display: table-cell; white-space: nowrap; line-height: 1.5; max-width: 200px; text-align: center;" xmlns="http://www.w3.org/1999/xhtml"><span style="color:#1B5E20 !important" class="nodeLabel"><p>Snapshot 1<br/>(owner: Alice)</p></span></div></foreignObject></g></g><g class="node default snapshot" id="flowchart-S2-4" transform="translate(891.890625, 90)"><rect class="basic label-container" style="fill:#E8F5E9 !important;stroke:#2E7D32 !important;stroke-width:2px !important" x="-76.59375" y="-39" width="153.1875" height="78"></rect><g class="label" style="color:#1B5E20 !important" transform="translate(-46.59375, -24)"><rect></rect><foreignObject width="93.1875" height="48"><div style="color: rgb(27, 94, 32) !important; display: table-cell; white-space: nowrap; line-height: 1.5; max-width: 200px; text-align: center;" xmlns="http://www.w3.org/1999/xhtml"><span style="color:#1B5E20 !important" class="nodeLabel"><p>Snapshot 2<br/>(owner: Bob)</p></span></div></foreignObject></g></g><g class="node default instance" id="flowchart-I1-5" transform="translate(895.8515625, 307)"><rect class="basic label-container" style="fill:#FFF8E1 !important;stroke:#F57F17 !important;stroke-width:2px !important" x="-80.5546875" y="-39" width="161.109375" height="78"></rect><g class="label" style="color:#E65100 !important" transform="translate(-50.5546875, -24)"><rect></rect><foreignObject width="101.109375" height="48"><div style="color: rgb(230, 81, 0) !important; display: table-cell; white-space: nowrap; line-height: 1.5; max-width: 200px; text-align: center;" xmlns="http://www.w3.org/1999/xhtml"><span style="color:#E65100 !important" class="nodeLabel"><p>Instance X<br/>(owner: Alice)</p></span></div></foreignObject></g></g><g class="node default instance" id="flowchart-I2-6" transform="translate(891.890625, 199)"><rect class="basic label-container" style="fill:#FFF8E1 !important;stroke:#F57F17 !important;stroke-width:2px !important" x="-76.59375" y="-39" width="153.1875" height="78"></rect><g class="label" style="color:#E65100 !important" transform="translate(-46.59375, -24)"><rect></rect><foreignObject width="93.1875" height="48"><div style="color: rgb(230, 81, 0) !important; display: table-cell; white-space: nowrap; line-height: 1.5; max-width: 200px; text-align: center;" xmlns="http://www.w3.org/1999/xhtml"><span style="color:#E65100 !important" class="nodeLabel"><p>Instance Y<br/>(owner: Bob)</p></span></div></foreignObject></g></g><g class="node default user" id="flowchart-BOB-1" transform="translate(129.515625, 177.5)"><polygon points="0,0 179.1875,0 179.1875,-39 0,-39 0,0 -8,0 187.1875,0 187.1875,-39 -8,-39 -8,0" class="label-container" transform="translate(-89.59375,19.5)" style="fill:#F3E5F5 !important;stroke:#7B1FA2 !important;stroke-width:2px !important"></polygon><g class="label" style="color:#4A148C !important" transform="translate(-82.09375, -12)"><rect></rect><foreignObject width="164.1875" height="24"><div style="color: rgb(74, 20, 140) !important; display: table-cell; white-space: nowrap; line-height: 1.5; max-width: 200px; text-align: center;" xmlns="http://www.w3.org/1999/xhtml"><span style="color:#4A148C !important" class="nodeLabel"><p>analyst_bob@e2e.local</p></span></div></foreignObject></g></g><g class="node default user" id="flowchart-ALICE-0" transform="translate(125.5546875, 302.5)"><polygon points="0,0 187.109375,0 187.109375,-39 0,-39 0,0 -8,0 195.109375,0 195.109375,-39 -8,-39 -8,0" class="label-container" transform="translate(-93.5546875,19.5)" style="fill:#F3E5F5 !important;stroke:#7B1FA2 !important;stroke-width:2px !important"></polygon><g class="label" style="color:#4A148C !important" transform="translate(-86.0546875, -12)"><rect></rect><foreignObject width="172.109375" height="24"><div style="color: rgb(74, 20, 140) !important; display: table-cell; white-space: nowrap; line-height: 1.5; max-width: 200px; text-align: center;" xmlns="http://www.w3.org/1999/xhtml"><span style="color:#4A148C !important" class="nodeLabel"><p>analyst_alice@e2e.local</p></span></div></foreignObject></g></g></g><g class="edges edgePaths"><path d="M227.109,296L235.359,296C243.609,296,260.109,296,273.359,296C286.609,296,296.609,296,302.081,295.638C307.552,295.276,308.495,294.552,309.328,293.719C310.162,292.886,310.886,291.943,311.247,267.721C311.609,243.5,311.609,196,311.971,171.779C312.333,147.557,313.057,146.614,313.89,145.781C314.724,144.948,315.667,144.224,329.109,143.862C342.552,143.5,368.495,143.5,381.938,143.138C395.38,142.776,396.323,142.052,397.156,141.219C397.99,140.386,398.714,139.443,399.076,138.721C399.438,138,399.438,137.5,399.799,136.779C400.161,136.057,400.885,135.114,401.719,134.281C402.552,133.448,403.495,132.724,406.049,132.362C408.604,132,412.771,132,417.438,132C422.104,132,427.271,132,429.854,132L432.438,132" id="L_ALICE_M1_0_0" class="edge-thickness-normal edge-pattern-solid edge-thickness-normal edge-pattern-solid flowchart-link" style=";" data-edge="true" data-et="edge" data-id="L_ALICE_M1_0_0" data-points="W3sieCI6MjI3LjEwOTM3NSwieSI6Mjk2fSx7IngiOjI3Ni42MDkzNzUsInkiOjI5Nn0seyJ4IjozMTEuNjA5Mzc1LCJ5IjoyOTZ9LHsieCI6MzExLjYwOTM3NSwieSI6MTQzLjV9LHsieCI6Mzk5LjQzNzUsInkiOjE0My41fSx7IngiOjM5OS40Mzc1LCJ5IjoxMzJ9LHsieCI6NDE2LjkzNzUsInkiOjEzMn0seyJ4Ijo0MzYuNDM3NSwieSI6MTMyfV0=" marker-end="url(#mermaid-1770215511200_flowchart-v2-pointEnd)"></path><path d="M597.547,132L630.505,132C663.464,132,729.38,132,762.81,131.638C796.24,131.276,797.182,130.552,798.016,129.719C798.849,128.886,799.573,127.943,799.935,124.305C800.297,120.667,800.297,114.333,800.659,110.695C801.021,107.057,801.745,106.114,802.578,105.281C803.411,104.448,804.354,103.724,805.825,103.362C807.297,103,809.297,103,810.297,103L811.297,103" id="L_M1_S2_0_0" class="edge-thickness-normal edge-pattern-solid edge-thickness-normal edge-pattern-solid flowchart-link" style=";" data-edge="true" data-et="edge" data-id="L_M1_S2_0_0" data-points="W3sieCI6NTk3LjU0Njg3NSwieSI6MTMyfSx7IngiOjgwMC4yOTY4NzUsInkiOjEzMn0seyJ4Ijo4MDAuMjk2ODc1LCJ5IjoxMDN9LHsieCI6ODE1LjI5Njg3NSwieSI6MTAzfV0=" marker-end="url(#mermaid-1770215511200_flowchart-v2-pointEnd)"></path><path d="M227.109,309L229.609,309C232.109,309,237.109,309,239.609,309.333C242.109,309.667,242.109,310.333,247.859,310.667C253.609,311,265.109,311,290.497,311C315.885,311,355.161,311,375.271,310.638C395.38,310.276,396.323,309.552,397.156,308.719C397.99,307.886,398.714,306.943,399.076,296.471C399.438,286,399.438,266,399.799,255.529C400.161,245.057,400.885,244.114,401.719,243.281C402.552,242.448,403.495,241.724,406.049,241.362C408.604,241,412.771,241,417.438,241C422.104,241,427.271,241,429.854,241L432.438,241" id="L_ALICE_S1_0_0" class="edge-thickness-normal edge-pattern-solid edge-thickness-normal edge-pattern-solid flowchart-link" style=";" data-edge="true" data-et="edge" data-id="L_ALICE_S1_0_0" data-points="W3sieCI6MjI3LjEwOTM3NSwieSI6MzA5fSx7IngiOjI0Mi4xMDkzNzUsInkiOjMwOX0seyJ4IjoyNDIuMTA5Mzc1LCJ5IjozMTF9LHsieCI6Mjc2LjYwOTM3NSwieSI6MzExfSx7IngiOjM5OS40Mzc1LCJ5IjozMTF9LHsieCI6Mzk5LjQzNzUsInkiOjI0MX0seyJ4Ijo0MTYuOTM3NSwieSI6MjQxfSx7IngiOjQzNi40Mzc1LCJ5IjoyNDF9XQ==" marker-end="url(#mermaid-1770215511200_flowchart-v2-pointEnd)"></path><path d="M597.547,254L599.214,254C600.88,254,604.214,254,606.352,254.362C608.49,254.724,609.432,255.448,610.266,256.281C611.099,257.114,611.823,258.057,612.185,265.695C612.547,273.333,612.547,287.667,612.909,295.305C613.271,302.943,613.995,303.886,614.828,304.719C615.661,305.552,616.604,306.276,649.367,306.638C682.13,307,746.714,307,779.005,307L811.297,307" id="L_S1_I1_0_0" class="edge-thickness-normal edge-pattern-solid edge-thickness-normal edge-pattern-solid flowchart-link" style=";" data-edge="true" data-et="edge" data-id="L_S1_I1_0_0" data-points="W3sieCI6NTk3LjU0Njg3NSwieSI6MjU0fSx7IngiOjYxMi41NDY4NzUsInkiOjI1NH0seyJ4Ijo2MTIuNTQ2ODc1LCJ5IjozMDd9LHsieCI6ODE1LjI5Njg3NSwieSI6MzA3fV0=" marker-end="url(#mermaid-1770215511200_flowchart-v2-pointEnd)"></path><path d="M597.547,228L630.505,228C663.464,228,729.38,228,762.81,227.638C796.24,227.276,797.182,226.552,798.016,225.719C798.849,224.886,799.573,223.943,799.935,222.471C800.297,221,800.297,219,800.659,217.529C801.021,216.057,801.745,215.114,802.578,214.281C803.411,213.448,804.354,212.724,805.825,212.362C807.297,212,809.297,212,810.297,212L811.297,212" id="L_S1_I2_0_0" class="edge-thickness-normal edge-pattern-solid edge-thickness-normal edge-pattern-solid flowchart-link" style=";" data-edge="true" data-et="edge" data-id="L_S1_I2_0_0" data-points="W3sieCI6NTk3LjU0Njg3NSwieSI6MjI4fSx7IngiOjgwMC4yOTY4NzUsInkiOjIyOH0seyJ4Ijo4MDAuMjk2ODc1LCJ5IjoyMTJ9LHsieCI6ODE1LjI5Njg3NSwieSI6MjEyfV0=" marker-end="url(#mermaid-1770215511200_flowchart-v2-pointEnd)"></path><path d="M227.109,171L235.359,171C243.609,171,260.109,171,270.443,171C280.776,171,284.943,171,287.497,170.638C290.052,170.276,290.995,169.552,291.828,168.719C292.662,167.886,293.386,166.943,293.747,156.471C294.109,146,294.109,126,294.471,115.529C294.833,105.057,295.557,104.114,296.39,103.281C297.224,102.448,298.167,101.724,314.526,101.362C330.885,101,362.661,101,379.021,100.638C395.38,100.276,396.323,99.552,397.156,98.719C397.99,97.886,398.714,96.943,399.076,94.138C399.438,91.333,399.438,86.667,399.799,83.862C400.161,81.057,400.885,80.114,401.719,79.281C402.552,78.448,403.495,77.724,406.049,77.362C408.604,77,412.771,77,480.581,77C548.391,77,679.844,77,745.57,77L811.297,77" id="L_BOB_S2_0_0" class="edge-thickness-normal edge-pattern-dotted edge-thickness-normal edge-pattern-solid flowchart-link" style=";" data-edge="true" data-et="edge" data-id="L_BOB_S2_0_0" data-points="W3sieCI6MjI3LjEwOTM3NSwieSI6MTcxfSx7IngiOjI3Ni42MDkzNzUsInkiOjE3MX0seyJ4IjoyOTQuMTA5Mzc1LCJ5IjoxNzF9LHsieCI6Mjk0LjEwOTM3NSwieSI6MTAxfSx7IngiOjM5OS40Mzc1LCJ5IjoxMDF9LHsieCI6Mzk5LjQzNzUsInkiOjc3fSx7IngiOjQxNi45Mzc1LCJ5Ijo3N30seyJ4Ijo4MTUuMjk2ODc1LCJ5Ijo3N31d" marker-end="url(#mermaid-1770215511200_flowchart-v2-pointEnd)"></path><path d="M227.109,184L229.609,184C232.109,184,237.109,184,239.609,184.333C242.109,184.667,242.109,185.333,247.859,185.667C253.609,186,265.109,186,294.247,186C323.385,186,370.161,186,459.276,186C548.391,186,679.844,186,745.57,186L811.297,186" id="L_BOB_I2_0_0" class="edge-thickness-normal edge-pattern-dotted edge-thickness-normal edge-pattern-solid flowchart-link" style=";" data-edge="true" data-et="edge" data-id="L_BOB_I2_0_0" data-points="W3sieCI6MjI3LjEwOTM3NSwieSI6MTg0fSx7IngiOjI0Mi4xMDkzNzUsInkiOjE4NH0seyJ4IjoyNDIuMTA5Mzc1LCJ5IjoxODZ9LHsieCI6Mjc2LjYwOTM3NSwieSI6MTg2fSx7IngiOjQxNi45Mzc1LCJ5IjoxODZ9LHsieCI6ODE1LjI5Njg3NSwieSI6MTg2fV0=" marker-end="url(#mermaid-1770215511200_flowchart-v2-pointEnd)"></path></g><g class="edgeLabels"><g class="edgeLabel" transform="translate(355.5234375, 143)"><g class="label" data-id="L_ALICE_M1_0_0" transform="translate(-26.4140625, -12)"><foreignObject width="52.828125" height="24"><div xmlns="http://www.w3.org/1999/xhtml" class="labelBkg" style="display: table-cell; white-space: nowrap; line-height: 1.5; max-width: 200px; text-align: center;"><span class="edgeLabel"><p>creates</p></span></div></foreignObject></g></g><g class="edgeLabel" transform="translate(706.421875, 131.5)"><g class="label" data-id="L_M1_S2_0_0" transform="translate(-75.8515625, -24)"><foreignObject width="151.703125" height="48"><div xmlns="http://www.w3.org/1999/xhtml" class="labelBkg" style="display: table-cell; white-space: nowrap; line-height: 1.5; max-width: 200px; text-align: center;"><span class="edgeLabel"><p>Bob creates snapshot<br/>from Alice's mapping</p></span></div></foreignObject></g></g><g class="edgeLabel" transform="translate(355.5234375, 310.5)"><g class="label" data-id="L_ALICE_S1_0_0" transform="translate(-26.4140625, -12)"><foreignObject width="52.828125" height="24"><div xmlns="http://www.w3.org/1999/xhtml" class="labelBkg" style="display: table-cell; white-space: nowrap; line-height: 1.5; max-width: 200px; text-align: center;"><span class="edgeLabel"><p>creates</p></span></div></foreignObject></g></g><g class="edgeLabel" transform="translate(706.421875, 306.5)"><g class="label" data-id="L_S1_I1_0_0" transform="translate(-78.875, -12)"><foreignObject width="157.75" height="24"><div xmlns="http://www.w3.org/1999/xhtml" class="labelBkg" style="display: table-cell; white-space: nowrap; line-height: 1.5; max-width: 200px; text-align: center;"><span class="edgeLabel"><p>Alice creates instance</p></span></div></foreignObject></g></g><g class="edgeLabel" transform="translate(706.421875, 227.5)"><g class="label" data-id="L_S1_I2_0_0" transform="translate(-74.921875, -24)"><foreignObject width="149.84375" height="48"><div xmlns="http://www.w3.org/1999/xhtml" class="labelBkg" style="display: table-cell; white-space: nowrap; line-height: 1.5; max-width: 200px; text-align: center;"><span class="edgeLabel"><p>Bob creates instance<br/>from Alice's snapshot</p></span></div></foreignObject></g></g><g class="edgeLabel" transform="translate(355.5234375, 100.5)"><g class="label" data-id="L_BOB_S2_0_0" transform="translate(-17.859375, -12)"><foreignObject width="35.71875" height="24"><div xmlns="http://www.w3.org/1999/xhtml" class="labelBkg" style="display: table-cell; white-space: nowrap; line-height: 1.5; max-width: 200px; text-align: center;"><span class="edgeLabel"><p>owns</p></span></div></foreignObject></g></g><g class="edgeLabel" transform="translate(355.5234375, 185.5)"><g class="label" data-id="L_BOB_I2_0_0" transform="translate(-17.859375, -12)"><foreignObject width="35.71875" height="24"><div xmlns="http://www.w3.org/1999/xhtml" class="labelBkg" style="display: table-cell; white-space: nowrap; line-height: 1.5; max-width: 200px; text-align: center;"><span class="edgeLabel"><p>owns</p></span></div></foreignObject></g></g></g></svg>