<svg id="mermaid-1770215541329" width="100%" xmlns="http://www.w3.org/2000/svg" xmlns:xlink="http://www.w3.org/1999/xlink" class="flowchart" style="max-width: 1339px;" viewBox="-7.9095001220703125 -8 1339 494" role="graphics-document document" aria-roledescription="flowchart-v2" aria-describedby="chart-desc-mermaid-1770215541329" aria-labelledby="chart-title-mermaid-1770215541329" height="auto"><title id="chart-title-mermaid-1770215541329">Schema Cache Architecture</title><desc id="chart-desc-mermaid-1770215541329">Shows how schema metadata flows from Starburst through cache to SDK clients</desc><style>#mermaid-1770215541329{font-family:"trebuchet ms",verdana,arial,sans-serif;font-size:16px;fill:#333;}@keyframes edge-animation-frame{from{stroke-dashoffset:0;}}@keyframes dash{to{stroke-dashoffset:0;}}#mermaid-1770215541329 .edge-animation-slow{stroke-dasharray:9,5!important;stroke-dashoffset:900;animation:dash 50s linear infinite;stroke-linecap:round;}#mermaid-1770215541329 .edge-animation-fast{stroke-dasharray:9,5!important;stroke-dashoffset:900;animation:dash 20s linear infinite;stroke-linecap:round;}#mermaid-1770215541329 .error-icon{fill:#552222;}#mermaid-1770215541329 .error-text{fill:#552222;stroke:#552222;}#mermaid-1770215541329 .edge-thickness-normal{stroke-width:1px;}#mermaid-1770215541329 .edge-thickness-thick{stroke-width:3.5px;}#mermaid-1770215541329 .edge-pattern-solid{stroke-dasharray:0;}#mermaid-1770215541329 .edge-thickness-invisible{stroke-width:0;fill:none;}#mermaid-1770215541329 .edge-pattern-dashed{stroke-dasharray:3;}#mermaid-1770215541329 .edge-pattern-dotted{stroke-dasharray:2;}#mermaid-1770215541329 .marker{fill:#333333;stroke:#333333;}#mermaid-1770215541329 .marker.cross{stroke:#333333;}#mermaid-1770215541329 svg{font-family:"trebuchet ms",verdana,arial,sans-serif;font-size:16px;}#mermaid-1770215541329 p{margin:0;}#mermaid-1770215541329 .label{font-family:"trebuchet ms",verdana,arial,sans-serif;color:#333;}#mermaid-1770215541329 .cluster-label text{fill:#333;}#mermaid-1770215541329 .cluster-label span{color:#333;}#mermaid-1770215541329 .cluster-label span p{background-color:transparent;}#mermaid-1770215541329 .label text,#mermaid-1770215541329 span{fill:#333;color:#333;}#mermaid-1770215541329 .node rect,#mermaid-1770215541329 .node circle,#mermaid-1770215541329 .node ellipse,#mermaid-1770215541329 .node polygon,#mermaid-1770215541329 .node path{fill:#ECECFF;stroke:#9370DB;stroke-width:1px;}#mermaid-1770215541329 .rough-node .label text,#mermaid-1770215541329 .node .label text,#mermaid-1770215541329 .image-shape .label,#mermaid-1770215541329 .icon-shape .label{text-anchor:middle;}#mermaid-1770215541329 .node .katex path{fill:#000;stroke:#000;stroke-width:1px;}#mermaid-1770215541329 .rough-node .label,#mermaid-1770215541329 .node .label,#mermaid-1770215541329 .image-shape .label,#mermaid-1770215541329 .icon-shape .label{text-align:center;}#mermaid-1770215541329 .node.clickable{cursor:pointer;}#mermaid-1770215541329 .root .anchor path{fill:#333333!important;stroke-width:0;stroke:#333333;}#mermaid-1770215541329 .arrowheadPath{fill:#333333;}#mermaid-1770215541329 .edgePath .path{stroke:#333333;stroke-width:2.0px;}#mermaid-1770215541329 .flowchart-link{stroke:#333333;fill:none;}#mermaid-1770215541329 .edgeLabel{background-color:rgba(232,232,232, 0.8);text-align:center;}#mermaid-1770215541329 .edgeLabel p{background-color:rgba(232,232,232, 0.8);}#mermaid-1770215541329 .edgeLabel rect{opacity:0.5;background-color:rgba(232,232,232, 0.8);fill:rgba(232,232,232, 0.8);}#mermaid-1770215541329 .labelBkg{background-color:rgba(232, 232, 232, 0.5);}#mermaid-1770215541329 .cluster rect{fill:#ffffde;stroke:#aaaa33;stroke-width:1px;}#mermaid-1770215541329 .cluster text{fill:#333;}#mermaid-1770215541329 .cluster span{color:#333;}#mermaid-1770215541329 div.mermaidTooltip{position:absolute;text-align:center;max-width:200px;padding:2px;font-family:"trebuchet ms",verdana,arial,sans-serif;font-size:12px;background:hsl(80, 100%, 96.2745098039%);border:1px solid #aaaa33;border-radius:2px;pointer-events:none;z-index:100;}#mermaid-1770215541329 .flowchartTitleText{text-anchor:middle;font-size:18px;fill:#333;}#mermaid-1770215541329 rect.text{fill:none;stroke-width:0;}#mermaid-1770215541329 .icon-shape,#mermaid-1770215541329 .image-shape{background-color:rgba(232,232,232, 0.8);text-align:center;}#mermaid-1770215541329 .icon-shape p,#mermaid-1770215541329 .image-shape p{background-color:rgba(232,232,232, 0.8);padding:2px;}#mermaid-1770215541329 .icon-shape rect,#mermaid-1770215541329 .image-shape rect{opacity:0.5;background-color:rgba(232,232,232, 0.8);fill:rgba(232,232,232, 0.8);}#mermaid-1770215541329 .label-icon{display:inline-block;height:1em;overflow:visible;vertical-align:-0.125em;}#mermaid-1770215541329 .node .label-icon path{fill:currentColor;stroke:revert;stroke-width:revert;}#mermaid-1770215541329 :root{--mermaid-font-family:"trebuchet ms",verdana,arial,sans-serif;}#mermaid-1770215541329 .source&gt;*{fill:#ECEFF1!important;stroke:#455A64!important;stroke-width:2px!important;color:#263238!important;}#mermaid-1770215541329 .source span{fill:#ECEFF1!important;stroke:#455A64!important;stroke-width:2px!important;color:#263238!important;}#mermaid-1770215541329 .source tspan{fill:#263238!important;}#mermaid-1770215541329 .cache&gt;*{fill:#E8F5E9!important;stroke:#2E7D32!important;stroke-width:2px!important;color:#1B5E20!important;}#mermaid-1770215541329 .cache span{fill:#E8F5E9!important;stroke:#2E7D32!important;stroke-width:2px!important;color:#1B5E20!important;}#mermaid-1770215541329 .cache tspan{fill:#1B5E20!important;}#mermaid-1770215541329 .api&gt;*{fill:#E1F5FE!important;stroke:#0277BD!important;stroke-width:2px!important;color:#01579B!important;}#mermaid-1770215541329 .api span{fill:#E1F5FE!important;stroke:#0277BD!important;stroke-width:2px!important;color:#01579B!important;}#mermaid-1770215541329 .api tspan{fill:#01579B!important;}#mermaid-1770215541329 .user&gt;*{fill:#F3E5F5!important;stroke:#7B1FA2!important;stroke-width:2px!important;color:#4A148C!important;}#mermaid-1770215541329 .user span{fill:#F3E5F5!important;stroke:#7B1FA2!important;stroke-width:2px!important;color:#4A148C!important;}#mermaid-1770215541329 .user tspan{fill:#4A148C!important;}#mermaid-1770215541329 .admin&gt;*{fill:#FFF8E1!important;stroke:#F57F17!important;stroke-width:2px!important;color:#E65100!important;}#mermaid-1770215541329 .admin span{fill:#FFF8E1!important;stroke:#F57F17!important;stroke-width:2px!important;color:#E65100!important;}#mermaid-1770215541329 .admin tspan{fill:#E65100!important;}</style><g><marker id="mermaid-1770215541329_flowchart-v2-pointEnd" class="marker flowchart-v2" viewBox="0 0 10 10" refX="5" refY="5" markerUnits="userSpaceOnUse" markerWidth="8" markerHeight="8" orient="auto"><path d="M 0 0 L 10 5 L 0 10 z" class="arrowMarkerPath" style="stroke-width: 1; stroke-dasharray: 1, 0;"></path></marker><marker id="mermaid-1770215541329_flowchart-v2-pointStart" class="marker flowchart-v2" viewBox="0 0 10 10" refX="4.5" refY="5" markerUnits="userSpaceOnUse" markerWidth="8" markerHeight="8" orient="auto"><path d="M 0 5 L 10 10 L 10 0 z" class="arrowMarkerPath" style="stroke-width: 1; stroke-dasharray: 1, 0;"></path></marker><marker id="mermaid-1770215541329_flowchart-v2-circleEnd" class="marker flowchart-v2" viewBox="0 0 10 10" refX="11" refY="5" markerUnits="userSpaceOnUse" markerWidth="11" markerHeight="11" orient="auto"><circle cx="5" cy="5" r="5" class="arrowMarkerPath" style="stroke-width: 1; stroke-dasharray: 1, 0;"></circle></marker><marker id="mermaid-1770215541329_flowchart-v2-circleStart" class="marker flowchart-v2" viewBox="0 0 10 10" refX="-1" refY="5" markerUnits="userSpaceOnUse" markerWidth="11" markerHeight="11" orient="auto"><circle cx="5" cy="5" r="5" class="arrowMarkerPath" style="stroke-width: 1; stroke-dasharray: 1, 0;"></circle></marker><marker id="mermaid-1770215541329_flowchart-v2-crossEnd" class="marker cross flowchart-v2" viewBox="0 0 11 11" refX="12" refY="5.2" markerUnits="userSpaceOnUse" markerWidth="11" markerHeight="11" orient="auto"><path d="M 1,1 l 9,9 M 10,1 l -9,9" class="arrowMarkerPath" style="stroke-width: 2; stroke-dasharray: 1, 0;"></path></marker><marker id="mermaid-1770215541329_flowchart-v2-crossStart" class="marker cross flowchart-v2" viewBox="0 0 11 11" refX="-1" refY="5.2" markerUnits="userSpaceOnUse" markerWidth="11" markerHeight="11" orient="auto"><path d="M 1,1 l 9,9 M 10,1 l -9,9" class="arrowMarkerPath" style="stroke-width: 2; stroke-dasharray: 1, 0;"></path></marker></g><g class="subgraphs"><g class="subgraph"><g class="cluster" id="Users" data-look="classic"><rect style="" x="54.5" y="48" width="192.875" height="237"></rect><g class="cluster-label" transform="translate(131.796875, 48)"><foreignObject width="38.28125" height="24"><div xmlns="http://www.w3.org/1999/xhtml" style="display: table-cell; white-space: nowrap; line-height: 1.5; max-width: 200px; text-align: center;"><span class="nodeLabel"><p>Users</p></span></div></foreignObject></g></g></g><g class="subgraph"><g class="cluster" id="SDK" data-look="classic"><rect style="" x="1057.765625" y="67.5" width="210.65625" height="189"></rect><g class="cluster-label" transform="translate(1120.09375, 67.5)"><foreignObject width="86" height="24"><div xmlns="http://www.w3.org/1999/xhtml" style="display: table-cell; white-space: nowrap; line-height: 1.5; max-width: 200px; text-align: center;"><span class="nodeLabel"><p>Jupyter SDK</p></span></div></foreignObject></g></g></g><g class="subgraph"><g class="cluster" id="CP" data-look="classic"><rect style="" x="447.453125" y="49" width="471.046875" height="161"></rect><g class="cluster-label" transform="translate(634.421875, 49)"><foreignObject width="97.109375" height="24"><div xmlns="http://www.w3.org/1999/xhtml" style="display: table-cell; white-space: nowrap; line-height: 1.5; max-width: 200px; text-align: center;"><span class="nodeLabel"><p>Control Plane</p></span></div></foreignObject></g></g></g><g class="subgraph"><g class="cluster" id="Source" data-look="classic"><rect style="" x="129.421875" y="320" width="123.15625" height="145.13318634033203"></rect><g class="cluster-label" transform="translate(133.421875, 320)"><foreignObject width="115.15625" height="24"><div xmlns="http://www.w3.org/1999/xhtml" style="display: table-cell; white-space: nowrap; line-height: 1.5; max-width: 200px; text-align: center;"><span class="nodeLabel"><p>Data Warehouse</p></span></div></foreignObject></g></g></g></g><g class="nodes"><g class="node default user" id="flowchart-Analyst-7" transform="translate(138.734375, 234)"><rect class="basic label-container" style="fill:#F3E5F5 !important;stroke:#7B1FA2 !important;stroke-width:2px !important" x="-72.234375" y="-39" width="144.46875" height="78"></rect><g class="label" style="color:#4A148C !important" transform="translate(-42.234375, -24)"><rect></rect><foreignObject width="84.46875" height="48"><div style="color: rgb(74, 20, 140) !important; display: table-cell; white-space: nowrap; line-height: 1.5; max-width: 200px; text-align: center;" xmlns="http://www.w3.org/1999/xhtml"><span style="color:#4A148C !important" class="nodeLabel"><p>Analysts<br/>(Read-Only)</p></span></div></foreignObject></g></g><g class="node default admin" id="flowchart-Admin-8" transform="translate(150.9375, 126)"><rect class="basic label-container" style="fill:#FFF8E1 !important;stroke:#F57F17 !important;stroke-width:2px !important" x="-84.4375" y="-39" width="168.875" height="78"></rect><g class="label" style="color:#E65100 !important" transform="translate(-54.4375, -24)"><rect></rect><foreignObject width="108.875" height="48"><div style="color: rgb(230, 81, 0) !important; display: table-cell; white-space: nowrap; line-height: 1.5; max-width: 200px; text-align: center;" xmlns="http://www.w3.org/1999/xhtml"><span style="color:#E65100 !important" class="nodeLabel"><p>Admins<br/>(Refresh/Stats)</p></span></div></foreignObject></g></g><g class="node default api" id="flowchart-List-5" transform="translate(1163.09375, 217.5)"><rect class="basic label-container" style="fill:#E1F5FE !important;stroke:#0277BD !important;stroke-width:2px !important" x="-81.1328125" y="-27" width="162.265625" height="54"></rect><g class="label" style="color:#01579B !important" transform="translate(-51.1328125, -12)"><rect></rect><foreignObject width="102.265625" height="24"><div style="color: rgb(1, 87, 155) !important; display: table-cell; white-space: nowrap; line-height: 1.5; max-width: 200px; text-align: center;" xmlns="http://www.w3.org/1999/xhtml"><span style="color:#01579B !important" class="nodeLabel"><p>list_* methods</p></span></div></foreignObject></g></g><g class="node default api" id="flowchart-Search-6" transform="translate(1163.09375, 133.5)"><rect class="basic label-container" style="fill:#E1F5FE !important;stroke:#0277BD !important;stroke-width:2px !important" x="-93.328125" y="-27" width="186.65625" height="54"></rect><g class="label" style="color:#01579B !important" transform="translate(-63.328125, -12)"><rect></rect><foreignObject width="126.65625" height="24"><div style="color: rgb(1, 87, 155) !important; display: table-cell; white-space: nowrap; line-height: 1.5; max-width: 200px; text-align: center;" xmlns="http://www.w3.org/1999/xhtml"><span style="color:#01579B !important" class="nodeLabel"><p>search_* methods</p></span></div></foreignObject></g></g><g class="node default cache" id="flowchart-Cache-1" transform="translate(825.015625, 146.5)"><rect class="basic label-container" style="fill:#E8F5E9 !important;stroke:#2E7D32 !important;stroke-width:2px !important" x="-81.484375" y="-39" width="162.96875" height="78"></rect><g class="label" style="color:#1B5E20 !important" transform="translate(-51.484375, -24)"><rect></rect><foreignObject width="102.96875" height="48"><div style="color: rgb(27, 94, 32) !important; display: table-cell; white-space: nowrap; line-height: 1.5; max-width: 200px; text-align: center;" xmlns="http://www.w3.org/1999/xhtml"><span style="color:#1B5E20 !important" class="nodeLabel"><p>Schema Cache<br/>(SQLite Index)</p></span></div></foreignObject></g></g><g class="node default cache" id="flowchart-Refresh-2" transform="translate(535.15625, 127)"><rect class="basic label-container" style="fill:#E8F5E9 !important;stroke:#2E7D32 !important;stroke-width:2px !important" x="-75.703125" y="-39" width="151.40625" height="78"></rect><g class="label" style="color:#1B5E20 !important" transform="translate(-45.703125, -24)"><rect></rect><foreignObject width="91.40625" height="48"><div style="color: rgb(27, 94, 32) !important; display: table-cell; white-space: nowrap; line-height: 1.5; max-width: 200px; text-align: center;" xmlns="http://www.w3.org/1999/xhtml"><span style="color:#1B5E20 !important" class="nodeLabel"><p>Auto Refresh<br/>(Scheduled)</p></span></div></foreignObject></g></g><g class="node default source" id="flowchart-ST-0" transform="translate(191, 406.066593170166)"><path d="M0,10.380116959064326 a44.375,10.380116959064326 0,0,0 88.75,0 a44.375,10.380116959064326 0,0,0 -88.75,0 l0,73.38011695906432 a44.375,10.380116959064326 0,0,0 88.75,0 l0,-73.38011695906432" class="basic label-container" style="fill:#ECEFF1 !important;stroke:#455A64 !important;stroke-width:2px !important" transform="translate(-44.375, -47.070175438596486)"></path><g class="label" style="color:#263238 !important" transform="translate(-36.875, -14)"><rect></rect><foreignObject width="73.75" height="48"><div style="color: rgb(38, 50, 56) !important; display: table-cell; white-space: nowrap; line-height: 1.5; max-width: 200px; text-align: center;" xmlns="http://www.w3.org/1999/xhtml"><span style="color:#263238 !important" class="nodeLabel"><p>Starburst/<br/>Trino</p></span></div></foreignObject></g></g></g><g class="edges edgePaths"><path d="M610.859,127L739.531,127" id="L_Refresh_Cache_0_0" class="edge-thickness-normal edge-pattern-solid edge-thickness-normal edge-pattern-solid flowchart-link" style=";" data-edge="true" data-et="edge" data-id="L_Refresh_Cache_0_0" data-points="W3sieCI6NjEwLjg1OTM3NSwieSI6MTI3fSx7IngiOjc0My41MzEyNSwieSI6MTI3fV0=" marker-end="url(#mermaid-1770215541329_flowchart-v2-pointEnd)"></path><path d="M235.375,406.067L238.625,406.067C241.875,406.067,248.375,406.067,278.721,406.067C309.068,406.067,363.26,406.067,390.828,405.705C418.396,405.343,419.339,404.619,420.172,403.786C421.005,402.952,421.729,402.009,422.091,368.36C422.453,334.711,422.453,268.356,422.815,234.706C423.177,201.057,423.901,200.114,424.734,199.281C425.568,198.448,426.51,197.724,429.065,197.362C431.62,197,435.786,197,485.133,197C534.479,197,629.005,197,676.74,196.638C724.474,196.276,725.417,195.552,726.25,194.719C727.084,193.886,727.807,192.943,728.169,188.971C728.531,185,728.531,178,728.893,174.029C729.255,170.057,729.979,169.114,730.812,168.281C731.646,167.448,732.588,166.724,734.06,166.362C735.531,166,737.531,166,738.531,166L739.531,166" id="L_ST_Cache_0_0" class="edge-thickness-normal edge-pattern-solid edge-thickness-normal edge-pattern-solid flowchart-link" style=";" data-edge="true" data-et="edge" data-id="L_ST_Cache_0_0" data-points="W3sieCI6MjM1LjM3NSwieSI6NDA2LjA2NjU5MzE3MDE2Nn0seyJ4IjoyNTQuODc1LCJ5Ijo0MDYuMDY2NTkzMTcwMTY2fSx7IngiOjQyMi40NTMxMjUsInkiOjQwNi4wNjY1OTMxNzAxNjZ9LHsieCI6NDIyLjQ1MzEyNSwieSI6MTk3fSx7IngiOjQzOS45NTMxMjUsInkiOjE5N30seyJ4Ijo3MjguNTMxMjUsInkiOjE5N30seyJ4Ijo3MjguNTMxMjUsInkiOjE2Nn0seyJ4Ijo3NDMuNTMxMjUsInkiOjE2Nn1d" marker-end="url(#mermaid-1770215541329_flowchart-v2-pointEnd)"></path><path d="M906.5,159.5L909.75,159.5C913,159.5,919.5,159.5,924.833,159.5C930.167,159.5,934.333,159.5,936.888,159.862C939.443,160.224,940.386,160.948,941.219,161.781C942.052,162.614,942.776,163.557,943.138,169.112C943.5,174.667,943.5,184.833,943.862,190.388C944.224,195.943,944.948,196.886,945.781,197.719C946.614,198.552,947.557,199.276,961.24,199.638C974.922,200,1001.344,200,1015.026,200.362C1028.708,200.724,1029.651,201.448,1030.485,202.281C1031.318,203.114,1032.042,204.057,1032.404,205.779C1032.766,207.5,1032.766,210,1033.128,211.721C1033.489,213.443,1034.213,214.386,1035.047,215.219C1035.88,216.052,1036.823,216.776,1039.378,217.138C1041.932,217.5,1046.099,217.5,1052.798,217.5C1059.497,217.5,1068.729,217.5,1073.345,217.5L1077.961,217.5" id="L_Cache_List_0_0" class="edge-thickness-normal edge-pattern-solid edge-thickness-normal edge-pattern-solid flowchart-link" style=";" data-edge="true" data-et="edge" data-id="L_Cache_List_0_0" data-points="W3sieCI6OTA2LjUsInkiOjE1OS41fSx7IngiOjkyNiwieSI6MTU5LjV9LHsieCI6OTQzLjUsInkiOjE1OS41fSx7IngiOjk0My41LCJ5IjoyMDB9LHsieCI6MTAzMi43NjU2MjUsInkiOjIwMH0seyJ4IjoxMDMyLjc2NTYyNSwieSI6MjE3LjV9LHsieCI6MTA1MC4yNjU2MjUsInkiOjIxNy41fSx7IngiOjEwODEuOTYwOTM3NSwieSI6MjE3LjV9XQ==" marker-end="url(#mermaid-1770215541329_flowchart-v2-pointEnd)"></path><path d="M906.5,133.5L909.75,133.5C913,133.5,919.5,133.5,943.461,133.5C967.422,133.5,1008.844,133.5,1032.138,133.5C1055.432,133.5,1060.599,133.5,1063.182,133.5L1065.766,133.5" id="L_Cache_Search_0_0" class="edge-thickness-normal edge-pattern-solid edge-thickness-normal edge-pattern-solid flowchart-link" style=";" data-edge="true" data-et="edge" data-id="L_Cache_Search_0_0" data-points="W3sieCI6OTA2LjUsInkiOjEzMy41fSx7IngiOjkyNiwieSI6MTMzLjV9LHsieCI6MTA1MC4yNjU2MjUsInkiOjEzMy41fSx7IngiOjEwNjkuNzY1NjI1LCJ5IjoxMzMuNX1d" marker-end="url(#mermaid-1770215541329_flowchart-v2-pointEnd)"></path><path d="M1244.227,217.5L1249.509,217.5C1254.792,217.5,1265.357,217.5,1275.639,217.5C1285.922,217.5,1295.922,217.5,1301.393,217.138C1306.865,216.776,1307.807,216.052,1308.641,215.219C1309.474,214.386,1310.198,213.443,1310.56,180.388C1310.922,147.333,1310.922,82.167,1310.56,49.112C1310.198,16.057,1309.474,15.114,1308.641,14.281C1307.807,13.448,1306.865,12.724,1282.589,12.362C1258.313,12,1210.703,12,1157.738,12C1104.773,12,1046.453,12,966.434,12C886.414,12,784.695,12,677.909,12C571.122,12,459.268,12,370.595,12C281.922,12,216.43,12,161.361,12C106.292,12,61.646,12,38.852,12.362C16.057,12.724,15.114,13.448,14.281,14.281C13.448,15.114,12.724,16.057,12.362,54.029C12,92,12,167,12.362,204.971C12.724,242.943,13.448,243.886,14.281,244.719C15.114,245.552,16.057,246.276,21.529,246.638C27,247,37,247,44.583,247C52.167,247,57.333,247,59.917,247L62.5,247" id="L_List_Analyst_0_0" class="edge-thickness-normal edge-pattern-solid edge-thickness-normal edge-pattern-solid flowchart-link" style=";" data-edge="true" data-et="edge" data-id="L_List_Analyst_0_0" data-points="W3sieCI6MTI0NC4yMjY1NjI1LCJ5IjoyMTcuNX0seyJ4IjoxMjc1LjkyMTg3NSwieSI6MjE3LjV9LHsieCI6MTMxMC45MjE4NzUsInkiOjIxNy41fSx7IngiOjEzMTAuOTIxODc1LCJ5IjoxMn0seyJ4IjoxMTYzLjA5Mzc1LCJ5IjoxMn0seyJ4Ijo5ODguMTMyODEyNSwieSI6MTJ9LHsieCI6NjgyLjk3NjU2MjUsInkiOjEyfSx7IngiOjM0Ny40MTQwNjI1LCJ5IjoxMn0seyJ4IjoxNTAuOTM3NSwieSI6MTJ9LHsieCI6MTIsInkiOjEyfSx7IngiOjEyLCJ5IjoyNDd9LHsieCI6NDcsInkiOjI0N30seyJ4Ijo2Ni41LCJ5IjoyNDd9XQ==" marker-end="url(#mermaid-1770215541329_flowchart-v2-pointEnd)"></path><path d="M1256.422,133.5L1259.672,133.5C1262.922,133.5,1269.422,133.5,1274.755,133.5C1280.089,133.5,1284.255,133.5,1286.81,133.138C1289.365,132.776,1290.307,132.052,1291.141,131.219C1291.974,130.386,1292.698,129.443,1293.06,113.471C1293.422,97.5,1293.422,66.5,1293.06,50.529C1292.698,34.557,1291.974,33.614,1291.141,32.781C1290.307,31.948,1289.365,31.224,1268.005,30.862C1246.646,30.5,1204.87,30.5,1154.822,30.5C1104.773,30.5,1046.453,30.5,966.434,30.5C886.414,30.5,784.695,30.5,677.909,30.5C571.122,30.5,459.268,30.5,370.595,30.5C281.922,30.5,216.43,30.5,164.277,30.5C112.125,30.5,73.313,30.5,53.435,30.862C33.557,31.224,32.614,31.948,31.781,32.781C30.948,33.614,30.224,34.557,29.862,65.112C29.5,95.667,29.5,155.833,29.862,186.388C30.224,216.943,30.948,217.886,31.781,218.719C32.614,219.552,33.557,220.276,36.112,220.638C38.667,221,42.833,221,47.5,221C52.167,221,57.333,221,59.917,221L62.5,221" id="L_Search_Analyst_0_0" class="edge-thickness-normal edge-pattern-solid edge-thickness-normal edge-pattern-solid flowchart-link" style=";" data-edge="true" data-et="edge" data-id="L_Search_Analyst_0_0" data-points="W3sieCI6MTI1Ni40MjE4NzUsInkiOjEzMy41fSx7IngiOjEyNzUuOTIxODc1LCJ5IjoxMzMuNX0seyJ4IjoxMjkzLjQyMTg3NSwieSI6MTMzLjV9LHsieCI6MTI5My40MjE4NzUsInkiOjMwLjV9LHsieCI6MTE2My4wOTM3NSwieSI6MzAuNX0seyJ4Ijo5ODguMTMyODEyNSwieSI6MzAuNX0seyJ4Ijo2ODIuOTc2NTYyNSwieSI6MzAuNX0seyJ4IjozNDcuNDE0MDYyNSwieSI6MzAuNX0seyJ4IjoxNTAuOTM3NSwieSI6MzAuNX0seyJ4IjoyOS41LCJ5IjozMC41fSx7IngiOjI5LjUsInkiOjIyMX0seyJ4Ijo0NywieSI6MjIxfSx7IngiOjY2LjUsInkiOjIyMX1d" marker-end="url(#mermaid-1770215541329_flowchart-v2-pointEnd)"></path><path d="M235.375,113L238.625,113C241.875,113,248.375,113,278.721,113C309.068,113,363.26,113,390.828,113.362C418.396,113.724,419.339,114.448,420.172,115.281C421.005,116.114,421.729,117.057,422.091,118.195C422.453,119.333,422.453,120.667,422.815,121.805C423.177,122.943,423.901,123.886,424.734,124.719C425.568,125.552,426.51,126.276,429.065,126.638C431.62,127,435.786,127,440.453,127C445.12,127,450.286,127,452.87,127L455.453,127" id="L_Admin_Refresh_0_0" class="edge-thickness-normal edge-pattern-solid edge-thickness-normal edge-pattern-solid flowchart-link" style=";" data-edge="true" data-et="edge" data-id="L_Admin_Refresh_0_0" data-points="W3sieCI6MjM1LjM3NSwieSI6MTEzfSx7IngiOjI1NC44NzUsInkiOjExM30seyJ4Ijo0MjIuNDUzMTI1LCJ5IjoxMTN9LHsieCI6NDIyLjQ1MzEyNSwieSI6MTI3fSx7IngiOjQzOS45NTMxMjUsInkiOjEyN30seyJ4Ijo0NTkuNDUzMTI1LCJ5IjoxMjd9XQ==" marker-end="url(#mermaid-1770215541329_flowchart-v2-pointEnd)"></path><path d="M235.375,139L238.625,139C241.875,139,248.375,139,253.708,139C259.042,139,263.208,139,265.763,139.362C268.318,139.724,269.261,140.448,270.094,141.281C270.927,142.114,271.651,143.057,272.013,148.862C272.375,154.667,272.375,165.333,272.737,171.138C273.099,176.943,273.823,177.886,274.656,178.719C275.489,179.552,276.432,180.276,304,180.638C331.568,181,385.76,181,457.62,181C529.479,181,619.005,181,664.24,180.638C709.474,180.276,710.417,179.552,711.25,178.719C712.084,177.886,712.807,176.943,713.169,172.388C713.531,167.833,713.531,159.667,713.893,155.112C714.255,150.557,714.979,149.614,715.812,148.781C716.646,147.948,717.588,147.224,721.56,146.862C725.531,146.5,732.531,146.5,736.031,146.5L739.531,146.5" id="L_Admin_Cache_0_0" class="edge-thickness-normal edge-pattern-solid edge-thickness-normal edge-pattern-solid flowchart-link" style=";" data-edge="true" data-et="edge" data-id="L_Admin_Cache_0_0" data-points="W3sieCI6MjM1LjM3NSwieSI6MTM5fSx7IngiOjI1NC44NzUsInkiOjEzOX0seyJ4IjoyNzIuMzc1LCJ5IjoxMzl9LHsieCI6MjcyLjM3NSwieSI6MTgxfSx7IngiOjQzOS45NTMxMjUsInkiOjE4MX0seyJ4Ijo3MTMuNTMxMjUsInkiOjE4MX0seyJ4Ijo3MTMuNTMxMjUsInkiOjE0Ni41fSx7IngiOjc0My41MzEyNSwieSI6MTQ2LjV9XQ==" marker-end="url(#mermaid-1770215541329_flowchart-v2-pointEnd)"></path></g><g class="edgeLabels"><g class="edgeLabel" transform="translate(669.6953125, 126.5)"><g class="label" data-id="L_Refresh_Cache_0_0" transform="translate(-28.8359375, -12)"><foreignObject width="57.671875" height="24"><div xmlns="http://www.w3.org/1999/xhtml" class="labelBkg" style="display: table-cell; white-space: nowrap; line-height: 1.5; max-width: 200px; text-align: center;"><span class="edgeLabel"><p>Periodic</p></span></div></foreignObject></g></g><g class="edgeLabel" transform="translate(347.4140625, 405.566593170166)"><g class="label" data-id="L_ST_Cache_0_0" transform="translate(-33.453125, -24)"><foreignObject width="66.90625" height="48"><div xmlns="http://www.w3.org/1999/xhtml" class="labelBkg" style="display: table-cell; white-space: nowrap; line-height: 1.5; max-width: 200px; text-align: center;"><span class="edgeLabel"><p>Crawl<br/>Metadata</p></span></div></foreignObject></g></g><g class="edgeLabel" transform="translate(988.1328125, 199.5)"><g class="label" data-id="L_Cache_List_0_0" transform="translate(-27.1328125, -24)"><foreignObject width="54.265625" height="48"><div xmlns="http://www.w3.org/1999/xhtml" class="labelBkg" style="display: table-cell; white-space: nowrap; line-height: 1.5; max-width: 200px; text-align: center;"><span class="edgeLabel"><p>Fast<br/>Queries</p></span></div></foreignObject></g></g><g class="edgeLabel" transform="translate(988.1328125, 133)"><g class="label" data-id="L_Cache_Search_0_0" transform="translate(-26.4765625, -24)"><foreignObject width="52.953125" height="48"><div xmlns="http://www.w3.org/1999/xhtml" class="labelBkg" style="display: table-cell; white-space: nowrap; line-height: 1.5; max-width: 200px; text-align: center;"><span class="edgeLabel"><p>Pattern<br/>Match</p></span></div></foreignObject></g></g><g class="edgeLabel"><g class="label" data-id="L_List_Analyst_0_0" transform="translate(0, 0)"><foreignObject width="0" height="0"><div xmlns="http://www.w3.org/1999/xhtml" class="labelBkg" style="display: table-cell; white-space: nowrap; line-height: 1.5; max-width: 200px; text-align: center;"><span class="edgeLabel"></span></div></foreignObject></g></g><g class="edgeLabel"><g class="label" data-id="L_Search_Analyst_0_0" transform="translate(0, 0)"><foreignObject width="0" height="0"><div xmlns="http://www.w3.org/1999/xhtml" class="labelBkg" style="display: table-cell; white-space: nowrap; line-height: 1.5; max-width: 200px; text-align: center;"><span class="edgeLabel"></span></div></foreignObject></g></g><g class="edgeLabel" transform="translate(347.4140625, 112.5)"><g class="label" data-id="L_Admin_Refresh_0_0" transform="translate(-57.5390625, -12)"><foreignObject width="115.078125" height="24"><div xmlns="http://www.w3.org/1999/xhtml" class="labelBkg" style="display: table-cell; white-space: nowrap; line-height: 1.5; max-width: 200px; text-align: center;"><span class="edgeLabel"><p>admin_refresh()</p></span></div></foreignObject></g></g><g class="edgeLabel" transform="translate(347.4140625, 180.5)"><g class="label" data-id="L_Admin_Cache_0_0" transform="translate(-38.6484375, -12)"><foreignObject width="77.296875" height="24"><div xmlns="http://www.w3.org/1999/xhtml" class="labelBkg" style="display: table-cell; white-space: nowrap; line-height: 1.5; max-width: 200px; text-align: center;"><span class="edgeLabel"><p>get_stats()</p></span></div></foreignObject></g></g></g></svg>