<svg id="mermaid-1770215539540" width="100%" xmlns="http://www.w3.org/2000/svg" xmlns:xlink="http://www.w3.org/1999/xlink" class="flowchart" style="max-width: 915px;" viewBox="-8 -8 915 924" role="graphics-document document" aria-roledescription="flowchart-v2" aria-describedby="chart-desc-mermaid-1770215539540" aria-labelledby="chart-title-mermaid-1770215539540" height="auto"><title id="chart-title-mermaid-1770215539540">Data Warehouse Schema Hierarchy</title><desc id="chart-desc-mermaid-1770215539540">Shows the four-level hierarchy from catalog to column in data warehouse metadata</desc><style>#mermaid-1770215539540{font-family:"trebuchet ms",verdana,arial,sans-serif;font-size:16px;fill:#333;}@keyframes edge-animation-frame{from{stroke-dashoffset:0;}}@keyframes dash{to{stroke-dashoffset:0;}}#mermaid-1770215539540 .edge-animation-slow{stroke-dasharray:9,5!important;stroke-dashoffset:900;animation:dash 50s linear infinite;stroke-linecap:round;}#mermaid-1770215539540 .edge-animation-fast{stroke-dasharray:9,5!important;stroke-dashoffset:900;animation:dash 20s linear infinite;stroke-linecap:round;}#mermaid-1770215539540 .error-icon{fill:#552222;}#mermaid-1770215539540 .error-text{fill:#552222;stroke:#552222;}#mermaid-1770215539540 .edge-thickness-normal{stroke-width:1px;}#mermaid-1770215539540 .edge-thickness-thick{stroke-width:3.5px;}#mermaid-1770215539540 .edge-pattern-solid{stroke-dasharray:0;}#mermaid-1770215539540 .edge-thickness-invisible{stroke-width:0;fill:none;}#mermaid-1770215539540 .edge-pattern-dashed{stroke-dasharray:3;}#mermaid-1770215539540 .edge-pattern-dotted{stroke-dasharray:2;}#mermaid-1770215539540 .marker{fill:#333333;stroke:#333333;}#mermaid-1770215539540 .marker.cross{stroke:#333333;}#mermaid-1770215539540 svg{font-family:"trebuchet ms",verdana,arial,sans-serif;font-size:16px;}#mermaid-1770215539540 p{margin:0;}#mermaid-1770215539540 .label{font-family:"trebuchet ms",verdana,arial,sans-serif;color:#333;}#mermaid-1770215539540 .cluster-label text{fill:#333;}#mermaid-1770215539540 .cluster-label span{color:#333;}#mermaid-1770215539540 .cluster-label span p{background-color:transparent;}#mermaid-1770215539540 .label text,#mermaid-1770215539540 span{fill:#333;color:#333;}#mermaid-1770215539540 .node rect,#mermaid-1770215539540 .node circle,#mermaid-1770215539540 .node ellipse,#mermaid-1770215539540 .node polygon,#mermaid-1770215539540 .node path{fill:#ECECFF;stroke:#9370DB;stroke-width:1px;}#mermaid-1770215539540 .rough-node .label text,#mermaid-1770215539540 .node .label text,#mermaid-1770215539540 .image-shape .label,#mermaid-1770215539540 .icon-shape .label{text-anchor:middle;}#mermaid-1770215539540 .node .katex path{fill:#000;stroke:#000;stroke-width:1px;}#mermaid-1770215539540 .rough-node .label,#mermaid-1770215539540 .node .label,#mermaid-1770215539540 .image-shape .label,#mermaid-1770215539540 .icon-shape .label{text-align:center;}#mermaid-1770215539540 .node.clickable{cursor:pointer;}#mermaid-1770215539540 .root .anchor path{fill:#333333!important;stroke-width:0;stroke:#333333;}#mermaid-1770215539540 .arrowheadPath{fill:#333333;}#mermaid-1770215539540 .edgePath .path{stroke:#333333;stroke-width:2.0px;}#mermaid-1770215539540 .flowchart-link{stroke:#333333;fill:none;}#mermaid-1770215539540 .edgeLabel{background-color:rgba(232,232,232, 0.8);text-align:center;}#mermaid-1770215539540 .edgeLabel p{background-color:rgba(232,232,232, 0.8);}#mermaid-1770215539540 .edgeLabel rect{opacity:0.5;background-color:rgba(232,232,232, 0.8);fill:rgba(232,232,232, 0.8);}#mermaid-1770215539540 .labelBkg{background-color:rgba(232, 232, 232, 0.5);}#mermaid-1770215539540 .cluster rect{fill:#ffffde;stroke:#aaaa33;stroke-width:1px;}#mermaid-1770215539540 .cluster text{fill:#333;}#mermaid-1770215539540 .cluster span{color:#333;}#mermaid-1770215539540 div.mermaidTooltip{position:absolute;text-align:center;max-width:200px;padding:2px;font-family:"trebuchet ms",verdana,arial,sans-serif;font-size:12px;background:hsl(80, 100%, 96.2745098039%);border:1px solid #aaaa33;border-radius:2px;pointer-events:none;z-index:100;}#mermaid-1770215539540 .flowchartTitleText{text-anchor:middle;font-size:18px;fill:#333;}#mermaid-1770215539540 rect.text{fill:none;stroke-width:0;}#mermaid-1770215539540 .icon-shape,#mermaid-1770215539540 .image-shape{background-color:rgba(232,232,232, 0.8);text-align:center;}#mermaid-1770215539540 .icon-shape p,#mermaid-1770215539540 .image-shape p{background-color:rgba(232,232,232, 0.8);padding:2px;}#mermaid-1770215539540 .icon-shape rect,#mermaid-1770215539540 .image-shape rect{opacity:0.5;background-color:rgba(232,232,232, 0.8);fill:rgba(232,232,232, 0.8);}#mermaid-1770215539540 .label-icon{display:inline-block;height:1em;overflow:visible;vertical-align:-0.125em;}#mermaid-1770215539540 .node .label-icon path{fill:currentColor;stroke:revert;stroke-width:revert;}#mermaid-1770215539540 :root{--mermaid-font-family:"trebuchet ms",verdana,arial,sans-serif;}#mermaid-1770215539540 .level1&gt;*{fill:#E3F2FD!important;stroke:#1565C0!important;stroke-width:2px!important;color:#0D47A1!important;}#mermaid-1770215539540 .level1 span{fill:#E3F2FD!important;stroke:#1565C0!important;stroke-width:2px!important;color:#0D47A1!important;}#mermaid-1770215539540 .level1 tspan{fill:#0D47A1!important;}#mermaid-1770215539540 .level2&gt;*{fill:#E8F5E9!important;stroke:#2E7D32!important;stroke-width:2px!important;color:#1B5E20!important;}#mermaid-1770215539540 .level2 span{fill:#E8F5E9!important;stroke:#2E7D32!important;stroke-width:2px!important;color:#1B5E20!important;}#mermaid-1770215539540 .level2 tspan{fill:#1B5E20!important;}#mermaid-1770215539540 .level3&gt;*{fill:#FFF8E1!important;stroke:#F57F17!important;stroke-width:2px!important;color:#E65100!important;}#mermaid-1770215539540 .level3 span{fill:#FFF8E1!important;stroke:#F57F17!important;stroke-width:2px!important;color:#E65100!important;}#mermaid-1770215539540 .level3 tspan{fill:#E65100!important;}#mermaid-1770215539540 .level4&gt;*{fill:#F3E5F5!important;stroke:#7B1FA2!important;stroke-width:2px!important;color:#4A148C!important;}#mermaid-1770215539540 .level4 span{fill:#F3E5F5!important;stroke:#7B1FA2!important;stroke-width:2px!important;color:#4A148C!important;}#mermaid-1770215539540 .level4 tspan{fill:#4A148C!important;}#mermaid-1770215539540 .api&gt;*{fill:#E1F5FE!important;stroke:#0277BD!important;stroke-width:2px!important;color:#01579B!important;}#mermaid-1770215539540 .api span{fill:#E1F5FE!important;stroke:#0277BD!important;stroke-width:2px!important;color:#01579B!important;}#mermaid-1770215539540 .api tspan{fill:#01579B!important;}</style><g><marker id="mermaid-1770215539540_flowchart-v2-pointEnd" class="marker flowchart-v2" viewBox="0 0 10 10" refX="5" refY="5" markerUnits="userSpaceOnUse" markerWidth="8" markerHeight="8" orient="auto"><path d="M 0 0 L 10 5 L 0 10 z" class="arrowMarkerPath" style="stroke-width: 1; stroke-dasharray: 1, 0;"></path></marker><marker id="mermaid-1770215539540_flowchart-v2-pointStart" class="marker flowchart-v2" viewBox="0 0 10 10" refX="4.5" refY="5" markerUnits="userSpaceOnUse" markerWidth="8" markerHeight="8" orient="auto"><path d="M 0 5 L 10 10 L 10 0 z" class="arrowMarkerPath" style="stroke-width: 1; stroke-dasharray: 1, 0;"></path></marker><marker id="mermaid-1770215539540_flowchart-v2-circleEnd" class="marker flowchart-v2" viewBox="0 0 10 10" refX="11" refY="5" markerUnits="userSpaceOnUse" markerWidth="11" markerHeight="11" orient="auto"><circle cx="5" cy="5" r="5" class="arrowMarkerPath" style="stroke-width: 1; stroke-dasharray: 1, 0;"></circle></marker><marker id="mermaid-1770215539540_flowchart-v2-circleStart" class="marker flowchart-v2" viewBox="0 0 10 10" refX="-1" refY="5" markerUnits="userSpaceOnUse" markerWidth="11" markerHeight="11" orient="auto"><circle cx="5" cy="5" r="5" class="arrowMarkerPath" style="stroke-width: 1; stroke-dasharray: 1, 0;"></circle></marker><marker id="mermaid-1770215539540_flowchart-v2-crossEnd" class="marker cross flowchart-v2" viewBox="0 0 11 11" refX="12" refY="5.2" markerUnits="userSpaceOnUse" markerWidth="11" markerHeight="11" orient="auto"><path d="M 1,1 l 9,9 M 10,1 l -9,9" class="arrowMarkerPath" style="stroke-width: 2; stroke-dasharray: 1, 0;"></path></marker><marker id="mermaid-1770215539540_flowchart-v2-crossStart" class="marker cross flowchart-v2" viewBox="0 0 11 11" refX="-1" refY="5.2" markerUnits="userSpaceOnUse" markerWidth="11" markerHeight="11" orient="auto"><path d="M 1,1 l 9,9 M 10,1 l -9,9" class="arrowMarkerPath" style="stroke-width: 2; stroke-dasharray: 1, 0;"></path></marker></g><g class="subgraphs"><g class="subgraph"><g class="cluster" id="API" data-look="classic"><rect style="" x="74.4140625" y="490.6908264160156" width="462.828125" height="405"></rect><g class="cluster-label" transform="translate(260.484375, 490.6908264160156)"><foreignObject width="90.6875" height="24"><div xmlns="http://www.w3.org/1999/xhtml" style="display: table-cell; white-space: nowrap; line-height: 1.5; max-width: 200px; text-align: center;"><span class="nodeLabel"><p>SDK Methods</p></span></div></foreignObject></g></g></g><g class="subgraph"><g class="cluster" id="Hierarchy" data-look="classic"><rect style="" x="12" y="12" width="874.671875" height="428.6908264160156"></rect><g class="cluster-label" transform="translate(354.765625, 12)"><foreignObject width="189.140625" height="24"><div xmlns="http://www.w3.org/1999/xhtml" style="display: table-cell; white-space: nowrap; line-height: 1.5; max-width: 200px; text-align: center;"><span class="nodeLabel"><p>Data Warehouse Hierarchy</p></span></div></foreignObject></g></g></g></g><g class="nodes"><g class="node default api" id="flowchart-M1-25" transform="translate(166.984375, 556.6908264160156)"><rect class="basic label-container" style="fill:#E1F5FE !important;stroke:#0277BD !important;stroke-width:2px !important" x="-80.5703125" y="-27" width="161.140625" height="54"></rect><g class="label" style="color:#01579B !important" transform="translate(-50.5703125, -12)"><rect></rect><foreignObject width="101.140625" height="24"><div style="color: rgb(1, 87, 155) !important; display: table-cell; white-space: nowrap; line-height: 1.5; max-width: 200px; text-align: center;" xmlns="http://www.w3.org/1999/xhtml"><span style="color:#01579B !important" class="nodeLabel"><p>list_catalogs()</p></span></div></foreignObject></g></g><g class="node default api" id="flowchart-M2-26" transform="translate(385.8984375, 640.6908264160156)"><rect class="basic label-container" style="fill:#E1F5FE !important;stroke:#0277BD !important;stroke-width:2px !important" x="-107.34375" y="-27" width="214.6875" height="54"></rect><g class="label" style="color:#01579B !important" transform="translate(-77.34375, -12)"><rect></rect><foreignObject width="154.6875" height="24"><div style="color: rgb(1, 87, 155) !important; display: table-cell; white-space: nowrap; line-height: 1.5; max-width: 200px; text-align: center;" xmlns="http://www.w3.org/1999/xhtml"><span style="color:#01579B !important" class="nodeLabel"><p>list_schemas(catalog)</p></span></div></foreignObject></g></g><g class="node default api" id="flowchart-M3-27" transform="translate(305.8880208333333, 736.6908264160156)"><rect class="basic label-container" style="fill:#E1F5FE !important;stroke:#0277BD !important;stroke-width:2px !important" x="-130" y="-39" width="260" height="78"></rect><g class="label" style="color:#01579B !important" transform="translate(-100, -24)"><rect></rect><foreignObject width="200" height="48"><div style="color: rgb(1, 87, 155) !important; display: table; white-space: break-spaces; line-height: 1.5; max-width: 200px; text-align: center; width: 200px;" xmlns="http://www.w3.org/1999/xhtml"><span style="color:#01579B !important" class="nodeLabel"><p>list_tables(catalog, schema)</p></span></div></foreignObject></g></g><g class="node default api" id="flowchart-M4-28" transform="translate(349.22135416666663, 844.6908264160156)"><rect class="basic label-container" style="fill:#E1F5FE !important;stroke:#0277BD !important;stroke-width:2px !important" x="-130" y="-39" width="260" height="78"></rect><g class="label" style="color:#01579B !important" transform="translate(-100, -24)"><rect></rect><foreignObject width="200" height="48"><div style="color: rgb(1, 87, 155) !important; display: table; white-space: break-spaces; line-height: 1.5; max-width: 200px; text-align: center; width: 200px;" xmlns="http://www.w3.org/1999/xhtml"><span style="color:#01579B !important" class="nodeLabel"><p>list_columns(catalog, schema, table)</p></span></div></foreignObject></g></g><g class="node default level1" id="flowchart-C1-0" transform="translate(105.2578125, 83.84541320800781)"><path d="M0,8.896940418679549 a34.53125,8.896940418679549 0,0,0 69.0625,0 a34.53125,8.896940418679549 0,0,0 -69.0625,0 l0,47.89694041867955 a34.53125,8.896940418679549 0,0,0 69.0625,0 l0,-47.89694041867955" class="basic label-container" style="fill:#E3F2FD !important;stroke:#1565C0 !important;stroke-width:2px !important" transform="translate(-34.53125, -32.84541062801932)"></path><g class="label" style="color:#0D47A1 !important" transform="translate(-27.03125, -2)"><rect></rect><foreignObject width="54.0625" height="24"><div style="color: rgb(13, 71, 161) !important; display: table-cell; white-space: nowrap; line-height: 1.5; max-width: 200px; text-align: center;" xmlns="http://www.w3.org/1999/xhtml"><span style="color:#0D47A1 !important" class="nodeLabel"><p>Catalog</p></span></div></foreignObject></g></g><g class="node default level2" id="flowchart-S1-1" transform="translate(335.98984375, 188.69082641601562)"><rect class="basic label-container" style="fill:#E8F5E9 !important;stroke:#2E7D32 !important;stroke-width:2px !important" x="-63.9921875" y="-27" width="127.984375" height="54"></rect><g class="label" style="color:#1B5E20 !important" transform="translate(-33.9921875, -12)"><rect></rect><foreignObject width="67.984375" height="24"><div style="color: rgb(27, 94, 32) !important; display: table-cell; white-space: nowrap; line-height: 1.5; max-width: 200px; text-align: center;" xmlns="http://www.w3.org/1999/xhtml"><span style="color:#1B5E20 !important" class="nodeLabel"><p>Schema 1</p></span></div></foreignObject></g></g><g class="node default level2" id="flowchart-S2-2" transform="translate(87.9921875, 188.69082641601562)"><rect class="basic label-container" style="fill:#E8F5E9 !important;stroke:#2E7D32 !important;stroke-width:2px !important" x="-63.9921875" y="-27" width="127.984375" height="54"></rect><g class="label" style="color:#1B5E20 !important" transform="translate(-33.9921875, -12)"><rect></rect><foreignObject width="67.984375" height="24"><div style="color: rgb(27, 94, 32) !important; display: table-cell; white-space: nowrap; line-height: 1.5; max-width: 200px; text-align: center;" xmlns="http://www.w3.org/1999/xhtml"><span style="color:#1B5E20 !important" class="nodeLabel"><p>Schema 2</p></span></div></foreignObject></g></g><g class="node default level3" id="flowchart-T1-3" transform="translate(303.99375, 287.6908264160156)"><rect class="basic label-container" style="fill:#FFF8E1 !important;stroke:#F57F17 !important;stroke-width:2px !important" x="-55.71875" y="-27" width="111.4375" height="54"></rect><g class="label" style="color:#E65100 !important" transform="translate(-25.71875, -12)"><rect></rect><foreignObject width="51.4375" height="24"><div style="color: rgb(230, 81, 0) !important; display: table-cell; white-space: nowrap; line-height: 1.5; max-width: 200px; text-align: center;" xmlns="http://www.w3.org/1999/xhtml"><span style="color:#E65100 !important" class="nodeLabel"><p>Table A</p></span></div></foreignObject></g></g><g class="node default level3" id="flowchart-T2-4" transform="translate(818.703125, 287.6908264160156)"><rect class="basic label-container" style="fill:#FFF8E1 !important;stroke:#F57F17 !important;stroke-width:2px !important" x="-55.96875" y="-27" width="111.9375" height="54"></rect><g class="label" style="color:#E65100 !important" transform="translate(-25.96875, -12)"><rect></rect><foreignObject width="51.9375" height="24"><div style="color: rgb(230, 81, 0) !important; display: table-cell; white-space: nowrap; line-height: 1.5; max-width: 200px; text-align: center;" xmlns="http://www.w3.org/1999/xhtml"><span style="color:#E65100 !important" class="nodeLabel"><p>Table B</p></span></div></foreignObject></g></g><g class="node default level3" id="flowchart-T3-5" transform="translate(87.9921875, 287.6908264160156)"><rect class="basic label-container" style="fill:#FFF8E1 !important;stroke:#F57F17 !important;stroke-width:2px !important" x="-56.2265625" y="-27" width="112.453125" height="54"></rect><g class="label" style="color:#E65100 !important" transform="translate(-26.2265625, -12)"><rect></rect><foreignObject width="52.453125" height="24"><div style="color: rgb(230, 81, 0) !important; display: table-cell; white-space: nowrap; line-height: 1.5; max-width: 200px; text-align: center;" xmlns="http://www.w3.org/1999/xhtml"><span style="color:#E65100 !important" class="nodeLabel"><p>Table C</p></span></div></foreignObject></g></g><g class="node default level4" id="flowchart-Col1-6" transform="translate(443.203125, 401.6908264160156)"><rect class="basic label-container" style="fill:#F3E5F5 !important;stroke:#7B1FA2 !important;stroke-width:2px !important" x="-54.0625" y="-27" width="108.125" height="54"></rect><g class="label" style="color:#4A148C !important" transform="translate(-24.0625, -12)"><rect></rect><foreignObject width="48.125" height="24"><div style="color: rgb(74, 20, 140) !important; display: table-cell; white-space: nowrap; line-height: 1.5; max-width: 200px; text-align: center;" xmlns="http://www.w3.org/1999/xhtml"><span style="color:#4A148C !important" class="nodeLabel"><p>id: INT</p></span></div></foreignObject></g></g><g class="node default level4" id="flowchart-Col2-7" transform="translate(270.5625, 401.6908264160156)"><rect class="basic label-container" style="fill:#F3E5F5 !important;stroke:#7B1FA2 !important;stroke-width:2px !important" x="-87.578125" y="-27" width="175.15625" height="54"></rect><g class="label" style="color:#4A148C !important" transform="translate(-57.578125, -12)"><rect></rect><foreignObject width="115.15625" height="24"><div style="color: rgb(74, 20, 140) !important; display: table-cell; white-space: nowrap; line-height: 1.5; max-width: 200px; text-align: center;" xmlns="http://www.w3.org/1999/xhtml"><span style="color:#4A148C !important" class="nodeLabel"><p>name: VARCHAR</p></span></div></foreignObject></g></g><g class="node default level4" id="flowchart-Col3-8" transform="translate(629.5, 401.6908264160156)"><rect class="basic label-container" style="fill:#F3E5F5 !important;stroke:#7B1FA2 !important;stroke-width:2px !important" x="-102.234375" y="-27" width="204.46875" height="54"></rect><g class="label" style="color:#4A148C !important" transform="translate(-72.234375, -12)"><rect></rect><foreignObject width="144.46875" height="24"><div style="color: rgb(74, 20, 140) !important; display: table-cell; white-space: nowrap; line-height: 1.5; max-width: 200px; text-align: center;" xmlns="http://www.w3.org/1999/xhtml"><span style="color:#4A148C !important" class="nodeLabel"><p>created: TIMESTAMP</p></span></div></foreignObject></g></g></g><g class="edges edgePaths"><path d="M122.523,116.691L122.523,118.357C122.523,120.024,122.523,123.357,122.885,125.496C123.247,127.634,123.971,128.576,124.804,129.41C125.638,130.243,126.581,130.967,160.963,131.329C195.346,131.691,263.168,131.691,297.55,132.053C331.933,132.415,332.875,133.139,333.709,133.972C334.542,134.805,335.266,135.748,335.628,139.719C335.99,143.691,335.99,150.691,335.99,154.191L335.99,157.691" id="L_C1_S1_0_0" class="edge-thickness-normal edge-pattern-solid edge-thickness-normal edge-pattern-solid flowchart-link" style=";" data-edge="true" data-et="edge" data-id="L_C1_S1_0_0" data-points="W3sieCI6MTIyLjUyMzQzNzUsInkiOjExNi42OTA4MjY0MTYwMTU2Mn0seyJ4IjoxMjIuNTIzNDM3NSwieSI6MTMxLjY5MDgyNjQxNjAxNTYyfSx7IngiOjMzNS45ODk4NDM3NSwieSI6MTMxLjY5MDgyNjQxNjAxNTYyfSx7IngiOjMzNS45ODk4NDM3NSwieSI6MTYxLjY5MDgyNjQxNjAxNTYyfV0=" marker-end="url(#mermaid-1770215539540_flowchart-v2-pointEnd)"></path><path d="M87.992,116.691L87.992,157.691" id="L_C1_S2_0_0" class="edge-thickness-normal edge-pattern-solid edge-thickness-normal edge-pattern-solid flowchart-link" style=";" data-edge="true" data-et="edge" data-id="L_C1_S2_0_0" data-points="W3sieCI6ODcuOTkyMTg3NSwieSI6MTE2LjY5MDgyNjQxNjAxNTYyfSx7IngiOjg3Ljk5MjE4NzUsInkiOjE2MS42OTA4MjY0MTYwMTU2Mn1d" marker-end="url(#mermaid-1770215539540_flowchart-v2-pointEnd)"></path><path d="M303.994,215.691L303.994,256.691" id="L_S1_T1_0_0" class="edge-thickness-normal edge-pattern-solid edge-thickness-normal edge-pattern-solid flowchart-link" style=";" data-edge="true" data-et="edge" data-id="L_S1_T1_0_0" data-points="W3sieCI6MzAzLjk5Mzc1LCJ5IjoyMTUuNjkwODI2NDE2MDE1NjJ9LHsieCI6MzAzLjk5Mzc1LCJ5IjoyNjAuNjkwODI2NDE2MDE1Nn1d" marker-end="url(#mermaid-1770215539540_flowchart-v2-pointEnd)"></path><path d="M367.986,215.691L367.986,217.357C367.986,219.024,367.986,222.357,368.348,224.496C368.71,226.634,369.434,227.576,370.267,228.41C371.1,229.243,372.043,229.967,445.967,230.329C519.892,230.691,666.797,230.691,740.722,231.053C814.646,231.415,815.589,232.139,816.422,232.972C817.255,233.805,817.979,234.748,818.341,238.719C818.703,242.691,818.703,249.691,818.703,253.191L818.703,256.691" id="L_S1_T2_0_0" class="edge-thickness-normal edge-pattern-solid edge-thickness-normal edge-pattern-solid flowchart-link" style=";" data-edge="true" data-et="edge" data-id="L_S1_T2_0_0" data-points="W3sieCI6MzY3Ljk4NTkzNzUsInkiOjIxNS42OTA4MjY0MTYwMTU2Mn0seyJ4IjozNjcuOTg1OTM3NSwieSI6MjMwLjY5MDgyNjQxNjAxNTYyfSx7IngiOjgxOC43MDMxMjUsInkiOjIzMC42OTA4MjY0MTYwMTU2Mn0seyJ4Ijo4MTguNzAzMTI1LCJ5IjoyNjAuNjkwODI2NDE2MDE1Nn1d" marker-end="url(#mermaid-1770215539540_flowchart-v2-pointEnd)"></path><path d="M87.992,215.691L87.992,256.691" id="L_S2_T3_0_0" class="edge-thickness-normal edge-pattern-solid edge-thickness-normal edge-pattern-solid flowchart-link" style=";" data-edge="true" data-et="edge" data-id="L_S2_T3_0_0" data-points="W3sieCI6ODcuOTkyMTg3NSwieSI6MjE1LjY5MDgyNjQxNjAxNTYyfSx7IngiOjg3Ljk5MjE4NzUsInkiOjI2MC42OTA4MjY0MTYwMTU2fV0=" marker-end="url(#mermaid-1770215539540_flowchart-v2-pointEnd)"></path><path d="M315.138,314.691L315.138,318.857C315.138,323.024,315.138,331.357,315.499,335.996C315.861,340.634,316.585,341.576,317.419,342.41C318.252,343.243,319.195,343.967,339.344,344.329C359.493,344.691,398.848,344.691,418.997,345.053C439.146,345.415,440.089,346.139,440.922,346.972C441.755,347.805,442.479,348.748,442.841,352.719C443.203,356.691,443.203,363.691,443.203,367.191L443.203,370.691" id="L_T1_Col1_0_0" class="edge-thickness-normal edge-pattern-solid edge-thickness-normal edge-pattern-solid flowchart-link" style=";" data-edge="true" data-et="edge" data-id="L_T1_Col1_0_0" data-points="W3sieCI6MzE1LjEzNzUwMDAwMDAwMDA1LCJ5IjozMTQuNjkwODI2NDE2MDE1Nn0seyJ4IjozMTUuMTM3NTAwMDAwMDAwMDUsInkiOjM0NC42OTA4MjY0MTYwMTU2fSx7IngiOjQ0My4yMDMxMjUsInkiOjM0NC42OTA4MjY0MTYwMTU2fSx7IngiOjQ0My4yMDMxMjUsInkiOjM3NC42OTA4MjY0MTYwMTU2fV0=" marker-end="url(#mermaid-1770215539540_flowchart-v2-pointEnd)"></path><path d="M270.563,314.691L270.563,370.691" id="L_T1_Col2_0_0" class="edge-thickness-normal edge-pattern-solid edge-thickness-normal edge-pattern-solid flowchart-link" style=";" data-edge="true" data-et="edge" data-id="L_T1_Col2_0_0" data-points="W3sieCI6MjcwLjU2MjUsInkiOjMxNC42OTA4MjY0MTYwMTU2fSx7IngiOjI3MC41NjI1LCJ5IjozNzQuNjkwODI2NDE2MDE1Nn1d" marker-end="url(#mermaid-1770215539540_flowchart-v2-pointEnd)"></path><path d="M337.425,314.691L337.425,316.357C337.425,318.024,337.425,321.357,337.787,323.496C338.149,325.634,338.873,326.576,339.706,327.41C340.539,328.243,341.482,328.967,388.966,329.329C436.45,329.691,530.475,329.691,577.959,330.053C625.443,330.415,626.386,331.139,627.219,331.972C628.052,332.805,628.776,333.748,629.138,340.219C629.5,346.691,629.5,358.691,629.5,364.691L629.5,370.691" id="L_T1_Col3_0_0" class="edge-thickness-normal edge-pattern-solid edge-thickness-normal edge-pattern-solid flowchart-link" style=";" data-edge="true" data-et="edge" data-id="L_T1_Col3_0_0" data-points="W3sieCI6MzM3LjQyNSwieSI6MzE0LjY5MDgyNjQxNjAxNTZ9LHsieCI6MzM3LjQyNSwieSI6MzI5LjY5MDgyNjQxNjAxNTZ9LHsieCI6NjI5LjUsInkiOjMyOS42OTA4MjY0MTYwMTU2fSx7IngiOjYyOS41LCJ5IjozNzQuNjkwODI2NDE2MDE1Nn1d" marker-end="url(#mermaid-1770215539540_flowchart-v2-pointEnd)"></path><path d="M166.984,583.691L166.984,585.357C166.984,587.024,166.984,590.357,167.346,592.496C167.708,594.634,168.432,595.576,169.265,596.41C170.099,597.243,171.042,597.967,200.368,598.329C229.695,598.691,287.406,598.691,316.733,599.053C346.06,599.415,347.003,600.139,347.836,600.972C348.669,601.805,349.393,602.748,349.755,604.219C350.117,605.691,350.117,607.691,350.117,608.691L350.117,609.691" id="L_M1_M2_0_0" class="edge-thickness-normal edge-pattern-solid edge-thickness-normal edge-pattern-solid flowchart-link" style=";" data-edge="true" data-et="edge" data-id="L_M1_M2_0_0" data-points="W3sieCI6MTY2Ljk4NDM3NSwieSI6NTgzLjY5MDgyNjQxNjAxNTZ9LHsieCI6MTY2Ljk4NDM3NSwieSI6NTk4LjY5MDgyNjQxNjAxNTZ9LHsieCI6MzUwLjExNzE4NzUsInkiOjU5OC42OTA4MjY0MTYwMTU2fSx7IngiOjM1MC4xMTcxODc1LCJ5Ijo2MTMuNjkwODI2NDE2MDE1Nn1d" marker-end="url(#mermaid-1770215539540_flowchart-v2-pointEnd)"></path><path d="M385.898,667.691L385.898,669.357C385.898,671.024,385.898,674.357,385.537,676.496C385.175,678.634,384.451,679.576,383.617,680.41C382.784,681.243,381.841,681.967,376.924,682.329C372.006,682.691,363.114,682.691,358.196,683.053C353.279,683.415,352.336,684.139,351.502,684.972C350.669,685.805,349.945,686.748,349.583,688.219C349.221,689.691,349.221,691.691,349.221,692.691L349.221,693.691" id="L_M2_M3_0_0" class="edge-thickness-normal edge-pattern-solid edge-thickness-normal edge-pattern-solid flowchart-link" style=";" data-edge="true" data-et="edge" data-id="L_M2_M3_0_0" data-points="W3sieCI6Mzg1Ljg5ODQzNzUsInkiOjY2Ny42OTA4MjY0MTYwMTU2fSx7IngiOjM4NS44OTg0Mzc1LCJ5Ijo2ODIuNjkwODI2NDE2MDE1Nn0seyJ4IjozNDkuMjIxMzU0MTY2NjY2NywieSI6NjgyLjY5MDgyNjQxNjAxNTZ9LHsieCI6MzQ5LjIyMTM1NDE2NjY2NjcsInkiOjY5Ny42OTA4MjY0MTYwMTU2fV0=" marker-end="url(#mermaid-1770215539540_flowchart-v2-pointEnd)"></path><path d="M305.888,775.691L305.888,801.691" id="L_M3_M4_0_0" class="edge-thickness-normal edge-pattern-solid edge-thickness-normal edge-pattern-solid flowchart-link" style=";" data-edge="true" data-et="edge" data-id="L_M3_M4_0_0" data-points="W3sieCI6MzA1Ljg4ODAyMDgzMzMzMzMsInkiOjc3NS42OTA4MjY0MTYwMTU2fSx7IngiOjMwNS44ODgwMjA4MzMzMzMzLCJ5Ijo4MDUuNjkwODI2NDE2MDE1Nn1d" marker-end="url(#mermaid-1770215539540_flowchart-v2-pointEnd)"></path><path d="M105.258,116.691L105.258,120.857C105.258,125.024,105.258,133.357,105.62,137.996C105.982,142.634,106.706,143.576,107.539,144.41C108.372,145.243,109.315,145.967,118.408,146.329C127.5,146.691,144.742,146.691,153.835,147.053C162.927,147.415,163.87,148.139,164.703,148.972C165.537,149.805,166.261,150.748,166.622,200.636C166.984,250.524,166.984,349.357,166.984,404.607C166.984,459.857,166.984,471.524,166.984,485.107C166.984,498.691,166.984,514.191,166.984,521.941L166.984,529.691" id="L_C1_M1_0_0" class="edge-thickness-normal edge-pattern-dotted edge-thickness-normal edge-pattern-solid flowchart-link" style=";" data-edge="true" data-et="edge" data-id="L_C1_M1_0_0" data-points="W3sieCI6MTA1LjI1NzgxMjUsInkiOjExNi42OTA4MjY0MTYwMTU2Mn0seyJ4IjoxMDUuMjU3ODEyNSwieSI6MTQ2LjY5MDgyNjQxNjAxNTYyfSx7IngiOjE2Ni45ODQzNzUsInkiOjE0Ni42OTA4MjY0MTYwMTU2Mn0seyJ4IjoxNjYuOTg0Mzc1LCJ5Ijo0NDguMTkwODI2NDE2MDE1Nn0seyJ4IjoxNjYuOTg0Mzc1LCJ5Ijo0ODMuMTkwODI2NDE2MDE1Nn0seyJ4IjoxNjYuOTg0Mzc1LCJ5Ijo1MjkuNjkwODI2NDE2MDE1Nn1d"></path><path d="M335.99,215.691L335.99,219.857C335.99,224.024,335.99,232.357,336.352,236.996C336.714,241.634,337.438,242.576,338.271,243.41C339.104,244.243,340.047,244.967,407.309,245.329C474.571,245.691,608.153,245.691,675.415,246.053C742.677,246.415,743.62,247.139,744.453,247.972C745.287,248.805,746.011,249.748,746.372,283.136C746.734,316.524,746.734,382.357,746.734,417.357C746.734,452.357,746.734,456.524,746.372,459.079C746.011,461.634,745.287,462.576,744.453,463.41C743.62,464.243,742.677,464.967,706.79,465.329C670.904,465.691,600.073,465.691,564.186,466.053C528.299,466.415,527.357,467.139,526.523,467.972C525.69,468.805,524.966,469.748,524.604,472.303C524.242,474.857,524.242,479.024,524.242,499.524C524.242,520.024,524.242,556.857,523.88,575.746C523.518,594.634,522.794,595.576,521.961,596.41C521.128,597.243,520.185,597.967,504.287,598.329C488.388,598.691,457.534,598.691,441.635,599.053C425.737,599.415,424.794,600.139,423.961,600.972C423.127,601.805,422.404,602.748,422.042,604.886C421.68,607.024,421.68,610.357,421.68,612.024L421.68,613.691" id="L_S1_M2_0_0" class="edge-thickness-normal edge-pattern-dotted edge-thickness-normal edge-pattern-solid flowchart-link" style=";" data-edge="true" data-et="edge" data-id="L_S1_M2_0_0" data-points="W3sieCI6MzM1Ljk4OTg0Mzc1LCJ5IjoyMTUuNjkwODI2NDE2MDE1NjJ9LHsieCI6MzM1Ljk4OTg0Mzc1LCJ5IjoyNDUuNjkwODI2NDE2MDE1NjJ9LHsieCI6NzQ2LjczNDM3NSwieSI6MjQ1LjY5MDgyNjQxNjAxNTYyfSx7IngiOjc0Ni43MzQzNzUsInkiOjQ0OC4xOTA4MjY0MTYwMTU2fSx7IngiOjc0Ni43MzQzNzUsInkiOjQ2NS42OTA4MjY0MTYwMTU2fSx7IngiOjUyNC4yNDIxODc1LCJ5Ijo0NjUuNjkwODI2NDE2MDE1Nn0seyJ4Ijo1MjQuMjQyMTg3NSwieSI6NDgzLjE5MDgyNjQxNjAxNTZ9LHsieCI6NTI0LjI0MjE4NzUsInkiOjU5OC42OTA4MjY0MTYwMTU2fSx7IngiOjQyMS42Nzk2ODc1LCJ5Ijo1OTguNjkwODI2NDE2MDE1Nn0seyJ4Ijo0MjEuNjc5Njg3NSwieSI6NjEzLjY5MDgyNjQxNjAxNTZ9XQ=="></path><path d="M292.85,314.691L292.85,321.357C292.85,328.024,292.85,341.357,293.212,348.496C293.574,355.634,294.298,356.576,295.131,357.41C295.964,358.243,296.907,358.967,309.094,359.329C321.28,359.691,344.71,359.691,356.897,360.053C369.083,360.415,370.026,361.139,370.86,361.972C371.693,362.805,372.417,363.748,372.779,378.136C373.141,392.524,373.141,420.357,373.141,436.357C373.141,452.357,373.141,456.524,372.779,459.079C372.417,461.634,371.693,462.576,370.86,463.41C370.026,464.243,369.083,464.967,351.848,465.329C334.612,465.691,301.083,465.691,283.848,466.053C266.612,466.415,265.669,467.139,264.836,467.972C264.002,468.805,263.279,469.748,262.917,472.303C262.555,474.857,262.555,479.024,262.555,516.857C262.555,554.691,262.555,626.191,262.555,661.941L262.555,697.691" id="L_T1_M3_0_0" class="edge-thickness-normal edge-pattern-dotted edge-thickness-normal edge-pattern-solid flowchart-link" style=";" data-edge="true" data-et="edge" data-id="L_T1_M3_0_0" data-points="W3sieCI6MjkyLjg1LCJ5IjozMTQuNjkwODI2NDE2MDE1Nn0seyJ4IjoyOTIuODUsInkiOjM1OS42OTA4MjY0MTYwMTU2fSx7IngiOjM3My4xNDA2MjUsInkiOjM1OS42OTA4MjY0MTYwMTU2fSx7IngiOjM3My4xNDA2MjUsInkiOjQ0OC4xOTA4MjY0MTYwMTU2fSx7IngiOjM3My4xNDA2MjUsInkiOjQ2NS42OTA4MjY0MTYwMTU2fSx7IngiOjI2Mi41NTQ2ODc1LCJ5Ijo0NjUuNjkwODI2NDE2MDE1Nn0seyJ4IjoyNjIuNTU0Njg3NSwieSI6NDgzLjE5MDgyNjQxNjAxNTZ9LHsieCI6MjYyLjU1NDY4NzUsInkiOjY5Ny42OTA4MjY0MTYwMTU2fV0="></path><path d="M443.203,428.691L443.203,431.941C443.203,435.191,443.203,441.691,443.203,447.024C443.203,452.357,443.203,456.524,443.565,459.079C443.927,461.634,444.651,462.576,445.484,463.41C446.318,464.243,447.26,464.967,456.905,465.329C466.549,465.691,484.896,465.691,494.54,466.053C504.185,466.415,505.128,467.139,505.961,467.972C506.794,468.805,507.518,469.748,507.88,472.303C508.242,474.857,508.242,479.024,508.242,531.524C508.242,584.024,508.242,684.857,507.88,735.746C507.518,786.634,506.794,787.576,505.961,788.41C505.128,789.243,504.185,789.967,486.099,790.329C468.013,790.691,432.784,790.691,414.698,791.053C396.612,791.415,395.669,792.139,394.836,792.972C394.002,793.805,393.279,794.748,392.917,796.886C392.555,799.024,392.555,802.357,392.555,804.024L392.555,805.691" id="L_Col1_M4_0_0" class="edge-thickness-normal edge-pattern-dotted edge-thickness-normal edge-pattern-solid flowchart-link" style=";" data-edge="true" data-et="edge" data-id="L_Col1_M4_0_0" data-points="W3sieCI6NDQzLjIwMzEyNSwieSI6NDI4LjY5MDgyNjQxNjAxNTZ9LHsieCI6NDQzLjIwMzEyNSwieSI6NDQ4LjE5MDgyNjQxNjAxNTZ9LHsieCI6NDQzLjIwMzEyNSwieSI6NDY1LjY5MDgyNjQxNjAxNTZ9LHsieCI6NTA4LjI0MjE4NzUsInkiOjQ2NS42OTA4MjY0MTYwMTU2fSx7IngiOjUwOC4yNDIxODc1LCJ5Ijo0ODMuMTkwODI2NDE2MDE1Nn0seyJ4Ijo1MDguMjQyMTg3NSwieSI6NzkwLjY5MDgyNjQxNjAxNTZ9LHsieCI6MzkyLjU1NDY4NzUsInkiOjc5MC42OTA4MjY0MTYwMTU2fSx7IngiOjM5Mi41NTQ2ODc1LCJ5Ijo4MDUuNjkwODI2NDE2MDE1Nn1d"></path></g><g class="edgeLabels"><g class="edgeLabel"><g class="label" data-id="L_C1_S1_0_0" transform="translate(0, 0)"><foreignObject width="0" height="0"><div xmlns="http://www.w3.org/1999/xhtml" class="labelBkg" style="display: table-cell; white-space: nowrap; line-height: 1.5; max-width: 200px; text-align: center;"><span class="edgeLabel"></span></div></foreignObject></g></g><g class="edgeLabel"><g class="label" data-id="L_C1_S2_0_0" transform="translate(0, 0)"><foreignObject width="0" height="0"><div xmlns="http://www.w3.org/1999/xhtml" class="labelBkg" style="display: table-cell; white-space: nowrap; line-height: 1.5; max-width: 200px; text-align: center;"><span class="edgeLabel"></span></div></foreignObject></g></g><g class="edgeLabel"><g class="label" data-id="L_S1_T1_0_0" transform="translate(0, 0)"><foreignObject width="0" height="0"><div xmlns="http://www.w3.org/1999/xhtml" class="labelBkg" style="display: table-cell; white-space: nowrap; line-height: 1.5; max-width: 200px; text-align: center;"><span class="edgeLabel"></span></div></foreignObject></g></g><g class="edgeLabel"><g class="label" data-id="L_S1_T2_0_0" transform="translate(0, 0)"><foreignObject width="0" height="0"><div xmlns="http://www.w3.org/1999/xhtml" class="labelBkg" style="display: table-cell; white-space: nowrap; line-height: 1.5; max-width: 200px; text-align: center;"><span class="edgeLabel"></span></div></foreignObject></g></g><g class="edgeLabel"><g class="label" data-id="L_S2_T3_0_0" transform="translate(0, 0)"><foreignObject width="0" height="0"><div xmlns="http://www.w3.org/1999/xhtml" class="labelBkg" style="display: table-cell; white-space: nowrap; line-height: 1.5; max-width: 200px; text-align: center;"><span class="edgeLabel"></span></div></foreignObject></g></g><g class="edgeLabel"><g class="label" data-id="L_T1_Col1_0_0" transform="translate(0, 0)"><foreignObject width="0" height="0"><div xmlns="http://www.w3.org/1999/xhtml" class="labelBkg" style="display: table-cell; white-space: nowrap; line-height: 1.5; max-width: 200px; text-align: center;"><span class="edgeLabel"></span></div></foreignObject></g></g><g class="edgeLabel"><g class="label" data-id="L_T1_Col2_0_0" transform="translate(0, 0)"><foreignObject width="0" height="0"><div xmlns="http://www.w3.org/1999/xhtml" class="labelBkg" style="display: table-cell; white-space: nowrap; line-height: 1.5; max-width: 200px; text-align: center;"><span class="edgeLabel"></span></div></foreignObject></g></g><g class="edgeLabel"><g class="label" data-id="L_T1_Col3_0_0" transform="translate(0, 0)"><foreignObject width="0" height="0"><div xmlns="http://www.w3.org/1999/xhtml" class="labelBkg" style="display: table-cell; white-space: nowrap; line-height: 1.5; max-width: 200px; text-align: center;"><span class="edgeLabel"></span></div></foreignObject></g></g><g class="edgeLabel"><g class="label" data-id="L_M1_M2_0_0" transform="translate(0, 0)"><foreignObject width="0" height="0"><div xmlns="http://www.w3.org/1999/xhtml" class="labelBkg" style="display: table-cell; white-space: nowrap; line-height: 1.5; max-width: 200px; text-align: center;"><span class="edgeLabel"></span></div></foreignObject></g></g><g class="edgeLabel"><g class="label" data-id="L_M2_M3_0_0" transform="translate(0, 0)"><foreignObject width="0" height="0"><div xmlns="http://www.w3.org/1999/xhtml" class="labelBkg" style="display: table-cell; white-space: nowrap; line-height: 1.5; max-width: 200px; text-align: center;"><span class="edgeLabel"></span></div></foreignObject></g></g><g class="edgeLabel"><g class="label" data-id="L_M3_M4_0_0" transform="translate(0, 0)"><foreignObject width="0" height="0"><div xmlns="http://www.w3.org/1999/xhtml" class="labelBkg" style="display: table-cell; white-space: nowrap; line-height: 1.5; max-width: 200px; text-align: center;"><span class="edgeLabel"></span></div></foreignObject></g></g><g class="edgeLabel"><g class="label" data-id="L_C1_M1_0_0" transform="translate(0, 0)"><foreignObject width="0" height="0"><div xmlns="http://www.w3.org/1999/xhtml" class="labelBkg" style="display: table-cell; white-space: nowrap; line-height: 1.5; max-width: 200px; text-align: center;"><span class="edgeLabel"></span></div></foreignObject></g></g><g class="edgeLabel"><g class="label" data-id="L_S1_M2_0_0" transform="translate(0, 0)"><foreignObject width="0" height="0"><div xmlns="http://www.w3.org/1999/xhtml" class="labelBkg" style="display: table-cell; white-space: nowrap; line-height: 1.5; max-width: 200px; text-align: center;"><span class="edgeLabel"></span></div></foreignObject></g></g><g class="edgeLabel"><g class="label" data-id="L_T1_M3_0_0" transform="translate(0, 0)"><foreignObject width="0" height="0"><div xmlns="http://www.w3.org/1999/xhtml" class="labelBkg" style="display: table-cell; white-space: nowrap; line-height: 1.5; max-width: 200px; text-align: center;"><span class="edgeLabel"></span></div></foreignObject></g></g><g class="edgeLabel"><g class="label" data-id="L_Col1_M4_0_0" transform="translate(0, 0)"><foreignObject width="0" height="0"><div xmlns="http://www.w3.org/1999/xhtml" class="labelBkg" style="display: table-cell; white-space: nowrap; line-height: 1.5; max-width: 200px; text-align: center;"><span class="edgeLabel"></span></div></foreignObject></g></g></g></svg>