<svg id="mermaid-1770211576852" width="100%" xmlns="http://www.w3.org/2000/svg" xmlns:xlink="http://www.w3.org/1999/xlink" class="flowchart" style="max-width: 1410px;" viewBox="-8 -8 1410 577" role="graphics-document document" aria-roledescription="flowchart-v2" aria-describedby="chart-desc-mermaid-1770211576852" aria-labelledby="chart-title-mermaid-1770211576852" height="auto"><title id="chart-title-mermaid-1770211576852">Graph OLAP Platform Architecture</title><desc id="chart-desc-mermaid-1770211576852">Shows SDK connecting to Control Plane, which orchestrates Export Workers and Wrapper Pods for graph analytics</desc><style>#mermaid-1770211576852{font-family:"trebuchet ms",verdana,arial,sans-serif;font-size:16px;fill:#333;}@keyframes edge-animation-frame{from{stroke-dashoffset:0;}}@keyframes dash{to{stroke-dashoffset:0;}}#mermaid-1770211576852 .edge-animation-slow{stroke-dasharray:9,5!important;stroke-dashoffset:900;animation:dash 50s linear infinite;stroke-linecap:round;}#mermaid-1770211576852 .edge-animation-fast{stroke-dasharray:9,5!important;stroke-dashoffset:900;animation:dash 20s linear infinite;stroke-linecap:round;}#mermaid-1770211576852 .error-icon{fill:#552222;}#mermaid-1770211576852 .error-text{fill:#552222;stroke:#552222;}#mermaid-1770211576852 .edge-thickness-normal{stroke-width:1px;}#mermaid-1770211576852 .edge-thickness-thick{stroke-width:3.5px;}#mermaid-1770211576852 .edge-pattern-solid{stroke-dasharray:0;}#mermaid-1770211576852 .edge-thickness-invisible{stroke-width:0;fill:none;}#mermaid-1770211576852 .edge-pattern-dashed{stroke-dasharray:3;}#mermaid-1770211576852 .edge-pattern-dotted{stroke-dasharray:2;}#mermaid-1770211576852 .marker{fill:#333333;stroke:#333333;}#mermaid-1770211576852 .marker.cross{stroke:#333333;}#mermaid-1770211576852 svg{font-family:"trebuchet ms",verdana,arial,sans-serif;font-size:16px;}#mermaid-1770211576852 p{margin:0;}#mermaid-1770211576852 .label{font-family:"trebuchet ms",verdana,arial,sans-serif;color:#333;}#mermaid-1770211576852 .cluster-label text{fill:#333;}#mermaid-1770211576852 .cluster-label span{color:#333;}#mermaid-1770211576852 .cluster-label span p{background-color:transparent;}#mermaid-1770211576852 .label text,#mermaid-1770211576852 span{fill:#333;color:#333;}#mermaid-1770211576852 .node rect,#mermaid-1770211576852 .node circle,#mermaid-1770211576852 .node ellipse,#mermaid-1770211576852 .node polygon,#mermaid-1770211576852 .node path{fill:#ECECFF;stroke:#9370DB;stroke-width:1px;}#mermaid-1770211576852 .rough-node .label text,#mermaid-1770211576852 .node .label text,#mermaid-1770211576852 .image-shape .label,#mermaid-1770211576852 .icon-shape .label{text-anchor:middle;}#mermaid-1770211576852 .node .katex path{fill:#000;stroke:#000;stroke-width:1px;}#mermaid-1770211576852 .rough-node .label,#mermaid-1770211576852 .node .label,#mermaid-1770211576852 .image-shape .label,#mermaid-1770211576852 .icon-shape .label{text-align:center;}#mermaid-1770211576852 .node.clickable{cursor:pointer;}#mermaid-1770211576852 .root .anchor path{fill:#333333!important;stroke-width:0;stroke:#333333;}#mermaid-1770211576852 .arrowheadPath{fill:#333333;}#mermaid-1770211576852 .edgePath .path{stroke:#333333;stroke-width:2.0px;}#mermaid-1770211576852 .flowchart-link{stroke:#333333;fill:none;}#mermaid-1770211576852 .edgeLabel{background-color:rgba(232,232,232, 0.8);text-align:center;}#mermaid-1770211576852 .edgeLabel p{background-color:rgba(232,232,232, 0.8);}#mermaid-1770211576852 .edgeLabel rect{opacity:0.5;background-color:rgba(232,232,232, 0.8);fill:rgba(232,232,232, 0.8);}#mermaid-1770211576852 .labelBkg{background-color:rgba(232, 232, 232, 0.5);}#mermaid-1770211576852 .cluster rect{fill:#ffffde;stroke:#aaaa33;stroke-width:1px;}#mermaid-1770211576852 .cluster text{fill:#333;}#mermaid-1770211576852 .cluster span{color:#333;}#mermaid-1770211576852 div.mermaidTooltip{position:absolute;text-align:center;max-width:200px;padding:2px;font-family:"trebuchet ms",verdana,arial,sans-serif;font-size:12px;background:hsl(80, 100%, 96.2745098039%);border:1px solid #aaaa33;border-radius:2px;pointer-events:none;z-index:100;}#mermaid-1770211576852 .flowchartTitleText{text-anchor:middle;font-size:18px;fill:#333;}#mermaid-1770211576852 rect.text{fill:none;stroke-width:0;}#mermaid-1770211576852 .icon-shape,#mermaid-1770211576852 .image-shape{background-color:rgba(232,232,232, 0.8);text-align:center;}#mermaid-1770211576852 .icon-shape p,#mermaid-1770211576852 .image-shape p{background-color:rgba(232,232,232, 0.8);padding:2px;}#mermaid-1770211576852 .icon-shape rect,#mermaid-1770211576852 .image-shape rect{opacity:0.5;background-color:rgba(232,232,232, 0.8);fill:rgba(232,232,232, 0.8);}#mermaid-1770211576852 .label-icon{display:inline-block;height:1em;overflow:visible;vertical-align:-0.125em;}#mermaid-1770211576852 .node .label-icon path{fill:currentColor;stroke:revert;stroke-width:revert;}#mermaid-1770211576852 :root{--mermaid-font-family:"trebuchet ms",verdana,arial,sans-serif;}#mermaid-1770211576852 .user&gt;*{fill:#F3E5F5!important;stroke:#7B1FA2!important;stroke-width:2px!important;color:#4A148C!important;}#mermaid-1770211576852 .user span{fill:#F3E5F5!important;stroke:#7B1FA2!important;stroke-width:2px!important;color:#4A148C!important;}#mermaid-1770211576852 .user tspan{fill:#4A148C!important;}#mermaid-1770211576852 .interface&gt;*{fill:#E1F5FE!important;stroke:#0277BD!important;stroke-width:2px!important;color:#01579B!important;}#mermaid-1770211576852 .interface span{fill:#E1F5FE!important;stroke:#0277BD!important;stroke-width:2px!important;color:#01579B!important;}#mermaid-1770211576852 .interface tspan{fill:#01579B!important;}#mermaid-1770211576852 .service&gt;*{fill:#E8F5E9!important;stroke:#2E7D32!important;stroke-width:2px!important;color:#1B5E20!important;}#mermaid-1770211576852 .service span{fill:#E8F5E9!important;stroke:#2E7D32!important;stroke-width:2px!important;color:#1B5E20!important;}#mermaid-1770211576852 .service tspan{fill:#1B5E20!important;}#mermaid-1770211576852 .data&gt;*{fill:#FFF8E1!important;stroke:#F57F17!important;stroke-width:2px!important;color:#E65100!important;}#mermaid-1770211576852 .data span{fill:#FFF8E1!important;stroke:#F57F17!important;stroke-width:2px!important;color:#E65100!important;}#mermaid-1770211576852 .data tspan{fill:#E65100!important;}#mermaid-1770211576852 .infra&gt;*{fill:#E3F2FD!important;stroke:#1565C0!important;stroke-width:2px!important;color:#0D47A1!important;}#mermaid-1770211576852 .infra span{fill:#E3F2FD!important;stroke:#1565C0!important;stroke-width:2px!important;color:#0D47A1!important;}#mermaid-1770211576852 .infra tspan{fill:#0D47A1!important;}#mermaid-1770211576852 .external&gt;*{fill:#ECEFF1!important;stroke:#455A64!important;stroke-width:2px!important;color:#263238!important;}#mermaid-1770211576852 .external span{fill:#ECEFF1!important;stroke:#455A64!important;stroke-width:2px!important;color:#263238!important;}#mermaid-1770211576852 .external tspan{fill:#263238!important;}#mermaid-1770211576852 .wrapper&gt;*{fill:#E8F5E9!important;stroke:#2E7D32!important;stroke-width:3px!important;color:#1B5E20!important;}#mermaid-1770211576852 .wrapper span{fill:#E8F5E9!important;stroke:#2E7D32!important;stroke-width:3px!important;color:#1B5E20!important;}#mermaid-1770211576852 .wrapper tspan{fill:#1B5E20!important;}</style><g><marker id="mermaid-1770211576852_flowchart-v2-pointEnd" class="marker flowchart-v2" viewBox="0 0 10 10" refX="5" refY="5" markerUnits="userSpaceOnUse" markerWidth="8" markerHeight="8" orient="auto"><path d="M 0 0 L 10 5 L 0 10 z" class="arrowMarkerPath" style="stroke-width: 1; stroke-dasharray: 1, 0;"></path></marker><marker id="mermaid-1770211576852_flowchart-v2-pointStart" class="marker flowchart-v2" viewBox="0 0 10 10" refX="4.5" refY="5" markerUnits="userSpaceOnUse" markerWidth="8" markerHeight="8" orient="auto"><path d="M 0 5 L 10 10 L 10 0 z" class="arrowMarkerPath" style="stroke-width: 1; stroke-dasharray: 1, 0;"></path></marker><marker id="mermaid-1770211576852_flowchart-v2-circleEnd" class="marker flowchart-v2" viewBox="0 0 10 10" refX="11" refY="5" markerUnits="userSpaceOnUse" markerWidth="11" markerHeight="11" orient="auto"><circle cx="5" cy="5" r="5" class="arrowMarkerPath" style="stroke-width: 1; stroke-dasharray: 1, 0;"></circle></marker><marker id="mermaid-1770211576852_flowchart-v2-circleStart" class="marker flowchart-v2" viewBox="0 0 10 10" refX="-1" refY="5" markerUnits="userSpaceOnUse" markerWidth="11" markerHeight="11" orient="auto"><circle cx="5" cy="5" r="5" class="arrowMarkerPath" style="stroke-width: 1; stroke-dasharray: 1, 0;"></circle></marker><marker id="mermaid-1770211576852_flowchart-v2-crossEnd" class="marker cross flowchart-v2" viewBox="0 0 11 11" refX="12" refY="5.2" markerUnits="userSpaceOnUse" markerWidth="11" markerHeight="11" orient="auto"><path d="M 1,1 l 9,9 M 10,1 l -9,9" class="arrowMarkerPath" style="stroke-width: 2; stroke-dasharray: 1, 0;"></path></marker><marker id="mermaid-1770211576852_flowchart-v2-crossStart" class="marker cross flowchart-v2" viewBox="0 0 11 11" refX="-1" refY="5.2" markerUnits="userSpaceOnUse" markerWidth="11" markerHeight="11" orient="auto"><path d="M 1,1 l 9,9 M 10,1 l -9,9" class="arrowMarkerPath" style="stroke-width: 2; stroke-dasharray: 1, 0;"></path></marker></g><g class="subgraphs"><g class="subgraph"><g class="cluster" id="External" data-look="classic"><rect style="" x="1227.5625" y="18.77796173095703" width="154.15625" height="283.40050506591797"></rect><g class="cluster-label" transform="translate(1243.2734375, 18.77796173095703)"><foreignObject width="122.734375" height="24"><div xmlns="http://www.w3.org/1999/xhtml" style="display: table-cell; white-space: nowrap; line-height: 1.5; max-width: 200px; text-align: center;"><span class="nodeLabel"><p>External Services</p></span></div></foreignObject></g></g></g><g class="subgraph"><g class="cluster" id="DataPlane" data-look="classic"><rect style="" x="825.46875" y="42" width="211.15625" height="507"></rect><g class="cluster-label" transform="translate(843.9453125, 42)"><foreignObject width="174.203125" height="24"><div xmlns="http://www.w3.org/1999/xhtml" style="display: table-cell; white-space: nowrap; line-height: 1.5; max-width: 200px; text-align: center;"><span class="nodeLabel"><p>Data Plane (Kubernetes)</p></span></div></foreignObject></g></g></g><g class="subgraph"><g class="cluster" id="ControlPlane" data-look="classic"><rect style="" x="312.671875" y="42" width="327.28125" height="237"></rect><g class="cluster-label" transform="translate(427.7578125, 42)"><foreignObject width="97.109375" height="24"><div xmlns="http://www.w3.org/1999/xhtml" style="display: table-cell; white-space: nowrap; line-height: 1.5; max-width: 200px; text-align: center;"><span class="nodeLabel"><p>Control Plane</p></span></div></foreignObject></g></g></g><g class="subgraph"><g class="cluster" id="Client" data-look="classic"><rect style="" x="12" y="68" width="170" height="129"></rect><g class="cluster-label" transform="translate(53.5859375, 68)"><foreignObject width="86.828125" height="24"><div xmlns="http://www.w3.org/1999/xhtml" style="display: table-cell; white-space: nowrap; line-height: 1.5; max-width: 200px; text-align: center;"><span class="nodeLabel"><p>Client Layer</p></span></div></foreignObject></g></g></g><g class="subgraph"><g class="cluster" id="Wrappers" data-look="classic"><rect style="" x="837.46875" y="300" width="187.15625" height="237"></rect><g class="cluster-label" transform="translate(846.90625, 300)"><foreignObject width="168.28125" height="24"><div xmlns="http://www.w3.org/1999/xhtml" style="display: table-cell; white-space: nowrap; line-height: 1.5; max-width: 200px; text-align: center;"><span class="nodeLabel"><p>Ryugraph Wrapper Pods</p></span></div></foreignObject></g></g></g><g class="subgraph"><g class="cluster" id="Workers" data-look="classic"><rect style="" x="876.796875" y="81" width="134.71875" height="189"></rect><g class="cluster-label" transform="translate(889.8203125, 81)"><foreignObject width="108.671875" height="24"><div xmlns="http://www.w3.org/1999/xhtml" style="display: table-cell; white-space: nowrap; line-height: 1.5; max-width: 200px; text-align: center;"><span class="nodeLabel"><p>Export Workers</p></span></div></foreignObject></g></g></g></g><g class="nodes"><g class="node default external" id="flowchart-Starburst-12" transform="translate(1304.640625, 108.40686416625977)"><path d="M0,12.752602571953458 a65.078125,12.752602571953458 0,0,0 130.15625,0 a65.078125,12.752602571953458 0,0,0 -130.15625,0 l0,75.75260257195346 a65.078125,12.752602571953458 0,0,0 130.15625,0 l0,-75.75260257195346" class="basic label-container" style="fill:#ECEFF1 !important;stroke:#455A64 !important;stroke-width:2px !important" transform="translate(-65.078125, -50.62890385793019)"></path><g class="label" style="color:#263238 !important" transform="translate(-57.578125, -14)"><rect></rect><foreignObject width="115.15625" height="48"><div style="color: rgb(38, 50, 56) !important; display: table-cell; white-space: nowrap; line-height: 1.5; max-width: 200px; text-align: center;" xmlns="http://www.w3.org/1999/xhtml"><span style="color:#263238 !important" class="nodeLabel"><p>Starburst<br/>Data Warehouse</p></span></div></foreignObject></g></g><g class="node default external" id="flowchart-GCS-13" transform="translate(1304.2421875, 239.60711669921875)"><path d="M0,12.714233060998831 a64.6796875,12.714233060998831 0,0,0 129.359375,0 a64.6796875,12.714233060998831 0,0,0 -129.359375,0 l0,75.71423306099882 a64.6796875,12.714233060998831 0,0,0 129.359375,0 l0,-75.71423306099882" class="basic label-container" style="fill:#ECEFF1 !important;stroke:#455A64 !important;stroke-width:2px !important" transform="translate(-64.6796875, -50.57134959149824)"></path><g class="label" style="color:#263238 !important" transform="translate(-57.1796875, -14)"><rect></rect><foreignObject width="114.359375" height="48"><div style="color: rgb(38, 50, 56) !important; display: table-cell; white-space: nowrap; line-height: 1.5; max-width: 200px; text-align: center;" xmlns="http://www.w3.org/1999/xhtml"><span style="color:#263238 !important" class="nodeLabel"><p>GCS<br/>Parquet Storage</p></span></div></foreignObject></g></g><g class="node default wrapper" id="flowchart-WP1-10" transform="translate(931.046875, 378)"><rect class="basic label-container" style="fill:#E8F5E9 !important;stroke:#2E7D32 !important;stroke-width:3px !important" x="-81.578125" y="-39" width="163.15625" height="78"></rect><g class="label" style="color:#1B5E20 !important" transform="translate(-51.578125, -24)"><rect></rect><foreignObject width="103.15625" height="48"><div style="color: rgb(27, 94, 32) !important; display: table-cell; white-space: nowrap; line-height: 1.5; max-width: 200px; text-align: center;" xmlns="http://www.w3.org/1999/xhtml"><span style="color:#1B5E20 !important" class="nodeLabel"><p>Wrapper Pod<br/>+ Ryugraph DB</p></span></div></foreignObject></g></g><g class="node default wrapper" id="flowchart-WP2-11" transform="translate(931.046875, 486)"><rect class="basic label-container" style="fill:#E8F5E9 !important;stroke:#2E7D32 !important;stroke-width:3px !important" x="-81.578125" y="-39" width="163.15625" height="78"></rect><g class="label" style="color:#1B5E20 !important" transform="translate(-51.578125, -24)"><rect></rect><foreignObject width="103.15625" height="48"><div style="color: rgb(27, 94, 32) !important; display: table-cell; white-space: nowrap; line-height: 1.5; max-width: 200px; text-align: center;" xmlns="http://www.w3.org/1999/xhtml"><span style="color:#1B5E20 !important" class="nodeLabel"><p>Wrapper Pod<br/>+ Ryugraph DB</p></span></div></foreignObject></g></g><g class="node default service" id="flowchart-W1-8" transform="translate(944.15625, 147)"><rect class="basic label-container" style="fill:#E8F5E9 !important;stroke:#2E7D32 !important;stroke-width:2px !important" x="-55.359375" y="-27" width="110.71875" height="54"></rect><g class="label" style="color:#1B5E20 !important" transform="translate(-25.359375, -12)"><rect></rect><foreignObject width="50.71875" height="24"><div style="color: rgb(27, 94, 32) !important; display: table-cell; white-space: nowrap; line-height: 1.5; max-width: 200px; text-align: center;" xmlns="http://www.w3.org/1999/xhtml"><span style="color:#1B5E20 !important" class="nodeLabel"><p>Worker</p></span></div></foreignObject></g></g><g class="node default service" id="flowchart-W2-9" transform="translate(944.15625, 231)"><rect class="basic label-container" style="fill:#E8F5E9 !important;stroke:#2E7D32 !important;stroke-width:2px !important" x="-55.359375" y="-27" width="110.71875" height="54"></rect><g class="label" style="color:#1B5E20 !important" transform="translate(-25.359375, -12)"><rect></rect><foreignObject width="50.71875" height="24"><div style="color: rgb(27, 94, 32) !important; display: table-cell; white-space: nowrap; line-height: 1.5; max-width: 200px; text-align: center;" xmlns="http://www.w3.org/1999/xhtml"><span style="color:#1B5E20 !important" class="nodeLabel"><p>Worker</p></span></div></foreignObject></g></g><g class="node default service" id="flowchart-API-1" transform="translate(420.0046875, 120)"><rect class="basic label-container" style="fill:#E8F5E9 !important;stroke:#2E7D32 !important;stroke-width:2px !important" x="-60.6640625" y="-39" width="121.328125" height="78"></rect><g class="label" style="color:#1B5E20 !important" transform="translate(-30.6640625, -24)"><rect></rect><foreignObject width="61.328125" height="48"><div style="color: rgb(27, 94, 32) !important; display: table-cell; white-space: nowrap; line-height: 1.5; max-width: 200px; text-align: center;" xmlns="http://www.w3.org/1999/xhtml"><span style="color:#1B5E20 !important" class="nodeLabel"><p>REST API<br/>FastAPI</p></span></div></foreignObject></g></g><g class="node default service" id="flowchart-Jobs-2" transform="translate(414.2265625, 228)"><rect class="basic label-container" style="fill:#E8F5E9 !important;stroke:#2E7D32 !important;stroke-width:2px !important" x="-89.5546875" y="-39" width="179.109375" height="78"></rect><g class="label" style="color:#1B5E20 !important" transform="translate(-59.5546875, -24)"><rect></rect><foreignObject width="119.109375" height="48"><div style="color: rgb(27, 94, 32) !important; display: table-cell; white-space: nowrap; line-height: 1.5; max-width: 200px; text-align: center;" xmlns="http://www.w3.org/1999/xhtml"><span style="color:#1B5E20 !important" class="nodeLabel"><p>Background Jobs<br/>APScheduler</p></span></div></foreignObject></g></g><g class="node default data" id="flowchart-PostgreSQL-3" transform="translate(580.8671875, 212.13034311930338)"><path d="M0,10.741783702858772 a47.0859375,10.741783702858772 0,0,0 94.171875,0 a47.0859375,10.741783702858772 0,0,0 -94.171875,0 l0,73.74178370285877 a47.0859375,10.741783702858772 0,0,0 94.171875,0 l0,-73.74178370285877" class="basic label-container" style="fill:#FFF8E1 !important;stroke:#F57F17 !important;stroke-width:2px !important" transform="translate(-47.0859375, -47.61267555428816)"></path><g class="label" style="color:#E65100 !important" transform="translate(-39.5859375, -14)"><rect></rect><foreignObject width="79.171875" height="48"><div style="color: rgb(230, 81, 0) !important; display: table-cell; white-space: nowrap; line-height: 1.5; max-width: 200px; text-align: center;" xmlns="http://www.w3.org/1999/xhtml"><span style="color:#E65100 !important" class="nodeLabel"><p>PostgreSQL<br/>Metadata</p></span></div></foreignObject></g></g><g class="node default interface" id="flowchart-SDK-0" transform="translate(97, 146)"><rect class="basic label-container" style="fill:#E1F5FE !important;stroke:#0277BD !important;stroke-width:2px !important" x="-73" y="-39" width="146" height="78"></rect><g class="label" style="color:#01579B !important" transform="translate(-43, -24)"><rect></rect><foreignObject width="86" height="48"><div style="color: rgb(1, 87, 155) !important; display: table-cell; white-space: nowrap; line-height: 1.5; max-width: 200px; text-align: center;" xmlns="http://www.w3.org/1999/xhtml"><span style="color:#01579B !important" class="nodeLabel"><p>Jupyter SDK<br/>Python</p></span></div></foreignObject></g></g></g><g class="edges edgePaths"><path d="M480.669,139.5L486.188,139.5C491.706,139.5,502.744,139.5,508.734,139.862C514.724,140.224,515.667,140.948,516.5,141.781C517.334,142.614,518.057,143.557,518.419,151.822C518.781,160.087,518.781,175.674,519.143,183.939C519.505,192.203,520.229,193.146,521.062,193.98C521.896,194.813,522.838,195.537,524.31,195.899C525.781,196.261,527.781,196.261,528.781,196.261L529.781,196.261" id="L_API_PostgreSQL_0_0" class="edge-thickness-normal edge-pattern-solid edge-thickness-normal edge-pattern-solid flowchart-link" style=";" data-edge="true" data-et="edge" data-id="L_API_PostgreSQL_0_0" data-points="W3sieCI6NDgwLjY2ODc1LCJ5IjoxMzkuNX0seyJ4Ijo1MTguNzgxMjUsInkiOjEzOS41fSx7IngiOjUxOC43ODEyNSwieSI6MTk2LjI2MDY4NjIzODYwNjc1fSx7IngiOjUzMy43ODEyNSwieSI6MTk2LjI2MDY4NjIzODYwNjc1fV0=" marker-end="url(#mermaid-1770211576852_flowchart-v2-pointEnd)"></path><path d="M503.781,228L529.781,228" id="L_Jobs_PostgreSQL_0_0" class="edge-thickness-normal edge-pattern-solid edge-thickness-normal edge-pattern-solid flowchart-link" style=";" data-edge="true" data-et="edge" data-id="L_Jobs_PostgreSQL_0_0" data-points="W3sieCI6NTAzLjc4MTI1LCJ5IjoyMjh9LHsieCI6NTMzLjc4MTI1LCJ5IjoyMjh9XQ==" marker-end="url(#mermaid-1770211576852_flowchart-v2-pointEnd)"></path><path d="M170,133L173.25,133C176.5,133,183,133,205.529,133C228.057,133,266.615,133,294.255,133C321.895,133,338.618,133,346.979,133L355.341,133" id="L_SDK_API_0_0" class="edge-thickness-normal edge-pattern-solid edge-thickness-normal edge-pattern-solid flowchart-link" style=";" data-edge="true" data-et="edge" data-id="L_SDK_API_0_0" data-points="W3sieCI6MTcwLCJ5IjoxMzN9LHsieCI6MTg5LjUsInkiOjEzM30seyJ4IjozMDUuMTcxODc1LCJ5IjoxMzN9LHsieCI6MzU5LjM0MDYyNSwieSI6MTMzfV0=" marker-end="url(#mermaid-1770211576852_flowchart-v2-pointEnd)"></path><path d="M480.669,120L508.466,120C536.264,120,591.858,120,621.739,120C651.62,120,655.786,120,658.341,120.362C660.896,120.724,661.839,121.448,662.672,122.281C663.505,123.114,664.229,124.057,664.591,166.029C664.953,208,664.953,291,665.315,332.971C665.677,374.943,666.401,375.886,667.234,376.719C668.068,377.552,669.01,378.276,694.151,378.638C719.292,379,768.63,379,795.883,379C823.135,379,828.302,379,830.885,379L833.469,379" id="L_API_Wrappers_0_0" class="edge-thickness-normal edge-pattern-solid edge-thickness-normal edge-pattern-solid flowchart-link" style=";" data-edge="true" data-et="edge" data-id="L_API_Wrappers_0_0" data-points="W3sieCI6NDgwLjY2ODc1LCJ5IjoxMjB9LHsieCI6NjQ3LjQ1MzEyNSwieSI6MTIwfSx7IngiOjY2NC45NTMxMjUsInkiOjEyMH0seyJ4Ijo2NjQuOTUzMTI1LCJ5IjozNzl9LHsieCI6ODE3Ljk2ODc1LCJ5IjozNzl9LHsieCI6ODM3LjQ2ODc1LCJ5IjozNzl9XQ==" marker-end="url(#mermaid-1770211576852_flowchart-v2-pointEnd)"></path><path d="M480.669,100.5L508.466,100.5C536.264,100.5,591.858,100.5,644.325,100.5C696.792,100.5,746.13,100.5,771.271,100.862C796.412,101.224,797.354,101.948,798.188,102.781C799.021,103.614,799.745,104.557,800.107,115.862C800.469,127.167,800.469,148.833,800.831,160.138C801.193,171.443,801.916,172.386,802.75,173.219C803.583,174.052,804.526,174.776,807.081,175.138C809.635,175.5,813.802,175.5,825.023,175.5C836.245,175.5,854.521,175.5,863.659,175.5L872.797,175.5" id="L_API_Workers_0_0" class="edge-thickness-normal edge-pattern-solid edge-thickness-normal edge-pattern-solid flowchart-link" style=";" data-edge="true" data-et="edge" data-id="L_API_Workers_0_0" data-points="W3sieCI6NDgwLjY2ODc1LCJ5IjoxMDAuNX0seyJ4Ijo2NDcuNDUzMTI1LCJ5IjoxMDAuNX0seyJ4Ijo4MDAuNDY4NzUsInkiOjEwMC41fSx7IngiOjgwMC40Njg3NSwieSI6MTc1LjV9LHsieCI6ODE3Ljk2ODc1LCJ5IjoxNzUuNX0seyJ4Ijo4NzYuNzk2ODc1LCJ5IjoxNzUuNX1d" marker-end="url(#mermaid-1770211576852_flowchart-v2-pointEnd)"></path><path d="M1011.516,175.5L1016.951,175.5C1022.385,175.5,1033.255,175.5,1064.263,175.5C1095.271,175.5,1146.417,175.5,1172.461,175.138C1198.505,174.776,1199.448,174.052,1200.281,173.219C1201.115,172.386,1201.839,171.443,1202.201,161.456C1202.563,151.469,1202.563,132.438,1202.924,122.451C1203.286,112.464,1204.01,111.521,1204.844,110.688C1205.677,109.855,1206.62,109.131,1209.174,108.769C1211.729,108.407,1215.896,108.407,1220.563,108.407C1225.229,108.407,1230.396,108.407,1232.979,108.407L1235.563,108.407" id="L_Workers_Starburst_0_0" class="edge-thickness-normal edge-pattern-solid edge-thickness-normal edge-pattern-solid flowchart-link" style=";" data-edge="true" data-et="edge" data-id="L_Workers_Starburst_0_0" data-points="W3sieCI6MTAxMS41MTU2MjUsInkiOjE3NS41fSx7IngiOjEwNDQuMTI1LCJ5IjoxNzUuNX0seyJ4IjoxMjAyLjU2MjUsInkiOjE3NS41fSx7IngiOjEyMDIuNTYyNSwieSI6MTA4LjQwNjg2NDE2NjI1OTc3fSx7IngiOjEyMjAuMDYyNSwieSI6MTA4LjQwNjg2NDE2NjI1OTc3fSx7IngiOjEyMzkuNTYyNSwieSI6MTA4LjQwNjg2NDE2NjI1OTc3fV0=" marker-end="url(#mermaid-1770211576852_flowchart-v2-pointEnd)"></path><path d="M1011.516,222.75L1016.951,222.75C1022.385,222.75,1033.255,222.75,1068.013,222.75C1102.771,222.75,1161.417,222.75,1193.323,222.75C1225.229,222.75,1230.396,222.75,1232.979,222.75L1235.563,222.75" id="L_Workers_GCS_0_0" class="edge-thickness-normal edge-pattern-solid edge-thickness-normal edge-pattern-solid flowchart-link" style=";" data-edge="true" data-et="edge" data-id="L_Workers_GCS_0_0" data-points="W3sieCI6MTAxMS41MTU2MjUsInkiOjIyMi43NX0seyJ4IjoxMDQ0LjEyNSwieSI6MjIyLjc1fSx7IngiOjEyMjAuMDYyNSwieSI6MjIyLjc1fSx7IngiOjEyMzkuNTYyNSwieSI6MjIyLjc1fV0=" marker-end="url(#mermaid-1770211576852_flowchart-v2-pointEnd)"></path><path d="M1011.516,128.25L1016.951,128.25C1022.385,128.25,1033.255,128.25,1040.773,128.25C1048.292,128.25,1052.458,128.25,1055.013,127.888C1057.568,127.526,1058.511,126.802,1059.344,125.969C1060.177,125.136,1060.901,124.193,1061.263,108.096C1061.625,92,1061.625,60.75,1061.263,44.654C1060.901,28.557,1060.177,27.614,1059.344,26.781C1058.511,25.948,1057.568,25.224,1036.167,24.862C1014.766,24.5,972.906,24.5,876.188,24.5C779.469,24.5,627.891,24.5,521.495,24.5C415.099,24.5,353.885,24.5,322.807,24.862C291.729,25.224,290.786,25.948,289.953,26.781C289.12,27.614,288.396,28.557,288.034,41.112C287.672,53.667,287.672,77.833,288.034,90.388C288.396,102.943,289.12,103.886,289.953,104.719C290.786,105.552,291.729,106.276,294.284,106.638C296.839,107,301.005,107,311.45,107C321.895,107,338.618,107,346.979,107L355.341,107" id="L_Workers_API_0_0" class="edge-thickness-normal edge-pattern-solid edge-thickness-normal edge-pattern-solid flowchart-link" style=";" data-edge="true" data-et="edge" data-id="L_Workers_API_0_0" data-points="W3sieCI6MTAxMS41MTU2MjUsInkiOjEyOC4yNX0seyJ4IjoxMDQ0LjEyNSwieSI6MTI4LjI1fSx7IngiOjEwNjEuNjI1LCJ5IjoxMjguMjV9LHsieCI6MTA2MS42MjUsInkiOjI0LjV9LHsieCI6OTMxLjA0Njg3NSwieSI6MjQuNX0seyJ4Ijo0NzYuMzEyNSwieSI6MjQuNX0seyJ4IjoyODcuNjcxODc1LCJ5IjoyNC41fSx7IngiOjI4Ny42NzE4NzUsInkiOjEwN30seyJ4IjozMDUuMTcxODc1LCJ5IjoxMDd9LHsieCI6MzU5LjM0MDYyNSwieSI6MTA3fV0=" marker-end="url(#mermaid-1770211576852_flowchart-v2-pointEnd)"></path><path d="M1024.625,418.5L1027.875,418.5C1031.125,418.5,1037.625,418.5,1066.448,418.5C1095.271,418.5,1146.417,418.5,1172.461,418.138C1198.505,417.776,1199.448,417.052,1200.281,416.219C1201.115,415.386,1201.839,414.443,1202.201,388.632C1202.563,362.821,1202.563,312.143,1202.924,286.332C1203.286,260.521,1204.01,259.579,1204.844,258.745C1205.677,257.912,1206.62,257.188,1209.174,256.826C1211.729,256.464,1215.896,256.464,1220.563,256.464C1225.229,256.464,1230.396,256.464,1232.979,256.464L1235.563,256.464" id="L_Wrappers_GCS_0_0" class="edge-thickness-normal edge-pattern-solid edge-thickness-normal edge-pattern-solid flowchart-link" style=";" data-edge="true" data-et="edge" data-id="L_Wrappers_GCS_0_0" data-points="W3sieCI6MTAyNC42MjUsInkiOjQxOC41fSx7IngiOjEwNDQuMTI1LCJ5Ijo0MTguNX0seyJ4IjoxMjAyLjU2MjUsInkiOjQxOC41fSx7IngiOjEyMDIuNTYyNSwieSI6MjU2LjQ2NDIzMzM5ODQzNzV9LHsieCI6MTIyMC4wNjI1LCJ5IjoyNTYuNDY0MjMzMzk4NDM3NX0seyJ4IjoxMjM5LjU2MjUsInkiOjI1Ni40NjQyMzMzOTg0Mzc1fV0=" marker-end="url(#mermaid-1770211576852_flowchart-v2-pointEnd)"></path><path d="M170,159L173.25,159C176.5,159,183,159,188.333,159C193.667,159,197.833,159,200.388,159.362C202.943,159.724,203.886,160.448,204.719,161.281C205.552,162.114,206.276,163.057,206.638,203.529C207,244,207,324,207.362,364.471C207.724,404.943,208.448,405.886,209.281,406.719C210.114,407.552,211.057,408.276,217.418,408.638C223.779,409,235.557,409,322.342,409C409.128,409,570.919,409,662.275,409C753.63,409,774.549,409,785.481,409.362C796.412,409.724,797.354,410.448,798.188,411.281C799.021,412.114,799.745,413.057,800.107,420.029C800.469,427,800.469,440,800.831,446.971C801.193,453.943,801.916,454.886,802.75,455.719C803.583,456.552,804.526,457.276,807.081,457.638C809.635,458,813.802,458,818.469,458C823.135,458,828.302,458,830.885,458L833.469,458" id="L_SDK_Wrappers_0_0" class="edge-thickness-normal edge-pattern-solid edge-thickness-normal edge-pattern-solid flowchart-link" style=";" data-edge="true" data-et="edge" data-id="L_SDK_Wrappers_0_0" data-points="W3sieCI6MTcwLCJ5IjoxNTl9LHsieCI6MTg5LjUsInkiOjE1OX0seyJ4IjoyMDcsInkiOjE1OX0seyJ4IjoyMDcsInkiOjQwOX0seyJ4IjoyNDcuMzM1OTM3NSwieSI6NDA5fSx7IngiOjczMi43MTA5Mzc1LCJ5Ijo0MDl9LHsieCI6ODAwLjQ2ODc1LCJ5Ijo0MDl9LHsieCI6ODAwLjQ2ODc1LCJ5Ijo0NTh9LHsieCI6ODE3Ljk2ODc1LCJ5Ijo0NTh9LHsieCI6ODM3LjQ2ODc1LCJ5Ijo0NTh9XQ==" marker-end="url(#mermaid-1770211576852_flowchart-v2-pointEnd)"></path></g><g class="edgeLabels"><g class="edgeLabel"><g class="label" data-id="L_API_PostgreSQL_0_0" transform="translate(0, 0)"><foreignObject width="0" height="0"><div xmlns="http://www.w3.org/1999/xhtml" class="labelBkg" style="display: table-cell; white-space: nowrap; line-height: 1.5; max-width: 200px; text-align: center;"><span class="edgeLabel"></span></div></foreignObject></g></g><g class="edgeLabel"><g class="label" data-id="L_Jobs_PostgreSQL_0_0" transform="translate(0, 0)"><foreignObject width="0" height="0"><div xmlns="http://www.w3.org/1999/xhtml" class="labelBkg" style="display: table-cell; white-space: nowrap; line-height: 1.5; max-width: 200px; text-align: center;"><span class="edgeLabel"></span></div></foreignObject></g></g><g class="edgeLabel" transform="translate(247.3359375, 132.5)"><g class="label" data-id="L_SDK_API_0_0" transform="translate(-22.8359375, -12)"><foreignObject width="45.671875" height="24"><div xmlns="http://www.w3.org/1999/xhtml" class="labelBkg" style="display: table-cell; white-space: nowrap; line-height: 1.5; max-width: 200px; text-align: center;"><span class="edgeLabel"><p>HTTPS</p></span></div></foreignObject></g></g><g class="edgeLabel" transform="translate(732.7109375, 378.5)"><g class="label" data-id="L_API_Wrappers_0_0" transform="translate(-42.484375, -12)"><foreignObject width="84.96875" height="24"><div xmlns="http://www.w3.org/1999/xhtml" class="labelBkg" style="display: table-cell; white-space: nowrap; line-height: 1.5; max-width: 200px; text-align: center;"><span class="edgeLabel"><p>Create Pods</p></span></div></foreignObject></g></g><g class="edgeLabel" transform="translate(732.7109375, 100)"><g class="label" data-id="L_API_Workers_0_0" transform="translate(-41.0859375, -12)"><foreignObject width="82.171875" height="24"><div xmlns="http://www.w3.org/1999/xhtml" class="labelBkg" style="display: table-cell; white-space: nowrap; line-height: 1.5; max-width: 200px; text-align: center;"><span class="edgeLabel"><p>Queue Jobs</p></span></div></foreignObject></g></g><g class="edgeLabel" transform="translate(1132.09375, 175)"><g class="label" data-id="L_Workers_Starburst_0_0" transform="translate(-52.96875, -12)"><foreignObject width="105.9375" height="24"><div xmlns="http://www.w3.org/1999/xhtml" class="labelBkg" style="display: table-cell; white-space: nowrap; line-height: 1.5; max-width: 200px; text-align: center;"><span class="edgeLabel"><p>UNLOAD Query</p></span></div></foreignObject></g></g><g class="edgeLabel" transform="translate(1132.09375, 222.25)"><g class="label" data-id="L_Workers_GCS_0_0" transform="translate(-49.515625, -12)"><foreignObject width="99.03125" height="24"><div xmlns="http://www.w3.org/1999/xhtml" class="labelBkg" style="display: table-cell; white-space: nowrap; line-height: 1.5; max-width: 200px; text-align: center;"><span class="edgeLabel"><p>Write Parquet</p></span></div></foreignObject></g></g><g class="edgeLabel" transform="translate(732.7109375, 24)"><g class="label" data-id="L_Workers_API_0_0" transform="translate(-50.2578125, -12)"><foreignObject width="100.515625" height="24"><div xmlns="http://www.w3.org/1999/xhtml" class="labelBkg" style="display: table-cell; white-space: nowrap; line-height: 1.5; max-width: 200px; text-align: center;"><span class="edgeLabel"><p>Update Status</p></span></div></foreignObject></g></g><g class="edgeLabel" transform="translate(1132.09375, 418)"><g class="label" data-id="L_Wrappers_GCS_0_0" transform="translate(-35.8984375, -12)"><foreignObject width="71.796875" height="24"><div xmlns="http://www.w3.org/1999/xhtml" class="labelBkg" style="display: table-cell; white-space: nowrap; line-height: 1.5; max-width: 200px; text-align: center;"><span class="edgeLabel"><p>Load Data</p></span></div></foreignObject></g></g><g class="edgeLabel" transform="translate(476.3125, 408.5)"><g class="label" data-id="L_SDK_Wrappers_0_0" transform="translate(-54.578125, -12)"><foreignObject width="109.15625" height="24"><div xmlns="http://www.w3.org/1999/xhtml" class="labelBkg" style="display: table-cell; white-space: nowrap; line-height: 1.5; max-width: 200px; text-align: center;"><span class="edgeLabel"><p>Cypher Queries</p></span></div></foreignObject></g></g></g></svg>