<svg id="mermaid-1770211555563" width="100%" xmlns="http://www.w3.org/2000/svg" xmlns:xlink="http://www.w3.org/1999/xlink" class="flowchart" style="max-width: 1248px;" viewBox="-8 -8 1248 549" role="graphics-document document" aria-roledescription="flowchart-v2" aria-describedby="chart-desc-mermaid-1770211555563" aria-labelledby="chart-title-mermaid-1770211555563" height="auto"><title id="chart-title-mermaid-1770211555563">Kubernetes Health Check Architecture</title><desc id="chart-desc-mermaid-1770211555563">Shows how Kubernetes kubelet probes Control Plane and Wrapper pods for liveness and readiness</desc><style>#mermaid-1770211555563{font-family:"trebuchet ms",verdana,arial,sans-serif;font-size:16px;fill:#333;}@keyframes edge-animation-frame{from{stroke-dashoffset:0;}}@keyframes dash{to{stroke-dashoffset:0;}}#mermaid-1770211555563 .edge-animation-slow{stroke-dasharray:9,5!important;stroke-dashoffset:900;animation:dash 50s linear infinite;stroke-linecap:round;}#mermaid-1770211555563 .edge-animation-fast{stroke-dasharray:9,5!important;stroke-dashoffset:900;animation:dash 20s linear infinite;stroke-linecap:round;}#mermaid-1770211555563 .error-icon{fill:#552222;}#mermaid-1770211555563 .error-text{fill:#552222;stroke:#552222;}#mermaid-1770211555563 .edge-thickness-normal{stroke-width:1px;}#mermaid-1770211555563 .edge-thickness-thick{stroke-width:3.5px;}#mermaid-1770211555563 .edge-pattern-solid{stroke-dasharray:0;}#mermaid-1770211555563 .edge-thickness-invisible{stroke-width:0;fill:none;}#mermaid-1770211555563 .edge-pattern-dashed{stroke-dasharray:3;}#mermaid-1770211555563 .edge-pattern-dotted{stroke-dasharray:2;}#mermaid-1770211555563 .marker{fill:#333333;stroke:#333333;}#mermaid-1770211555563 .marker.cross{stroke:#333333;}#mermaid-1770211555563 svg{font-family:"trebuchet ms",verdana,arial,sans-serif;font-size:16px;}#mermaid-1770211555563 p{margin:0;}#mermaid-1770211555563 .label{font-family:"trebuchet ms",verdana,arial,sans-serif;color:#333;}#mermaid-1770211555563 .cluster-label text{fill:#333;}#mermaid-1770211555563 .cluster-label span{color:#333;}#mermaid-1770211555563 .cluster-label span p{background-color:transparent;}#mermaid-1770211555563 .label text,#mermaid-1770211555563 span{fill:#333;color:#333;}#mermaid-1770211555563 .node rect,#mermaid-1770211555563 .node circle,#mermaid-1770211555563 .node ellipse,#mermaid-1770211555563 .node polygon,#mermaid-1770211555563 .node path{fill:#ECECFF;stroke:#9370DB;stroke-width:1px;}#mermaid-1770211555563 .rough-node .label text,#mermaid-1770211555563 .node .label text,#mermaid-1770211555563 .image-shape .label,#mermaid-1770211555563 .icon-shape .label{text-anchor:middle;}#mermaid-1770211555563 .node .katex path{fill:#000;stroke:#000;stroke-width:1px;}#mermaid-1770211555563 .rough-node .label,#mermaid-1770211555563 .node .label,#mermaid-1770211555563 .image-shape .label,#mermaid-1770211555563 .icon-shape .label{text-align:center;}#mermaid-1770211555563 .node.clickable{cursor:pointer;}#mermaid-1770211555563 .root .anchor path{fill:#333333!important;stroke-width:0;stroke:#333333;}#mermaid-1770211555563 .arrowheadPath{fill:#333333;}#mermaid-1770211555563 .edgePath .path{stroke:#333333;stroke-width:2.0px;}#mermaid-1770211555563 .flowchart-link{stroke:#333333;fill:none;}#mermaid-1770211555563 .edgeLabel{background-color:rgba(232,232,232, 0.8);text-align:center;}#mermaid-1770211555563 .edgeLabel p{background-color:rgba(232,232,232, 0.8);}#mermaid-1770211555563 .edgeLabel rect{opacity:0.5;background-color:rgba(232,232,232, 0.8);fill:rgba(232,232,232, 0.8);}#mermaid-1770211555563 .labelBkg{background-color:rgba(232, 232, 232, 0.5);}#mermaid-1770211555563 .cluster rect{fill:#ffffde;stroke:#aaaa33;stroke-width:1px;}#mermaid-1770211555563 .cluster text{fill:#333;}#mermaid-1770211555563 .cluster span{color:#333;}#mermaid-1770211555563 div.mermaidTooltip{position:absolute;text-align:center;max-width:200px;padding:2px;font-family:"trebuchet ms",verdana,arial,sans-serif;font-size:12px;background:hsl(80, 100%, 96.2745098039%);border:1px solid #aaaa33;border-radius:2px;pointer-events:none;z-index:100;}#mermaid-1770211555563 .flowchartTitleText{text-anchor:middle;font-size:18px;fill:#333;}#mermaid-1770211555563 rect.text{fill:none;stroke-width:0;}#mermaid-1770211555563 .icon-shape,#mermaid-1770211555563 .image-shape{background-color:rgba(232,232,232, 0.8);text-align:center;}#mermaid-1770211555563 .icon-shape p,#mermaid-1770211555563 .image-shape p{background-color:rgba(232,232,232, 0.8);padding:2px;}#mermaid-1770211555563 .icon-shape rect,#mermaid-1770211555563 .image-shape rect{opacity:0.5;background-color:rgba(232,232,232, 0.8);fill:rgba(232,232,232, 0.8);}#mermaid-1770211555563 .label-icon{display:inline-block;height:1em;overflow:visible;vertical-align:-0.125em;}#mermaid-1770211555563 .node .label-icon path{fill:currentColor;stroke:revert;stroke-width:revert;}#mermaid-1770211555563 :root{--mermaid-font-family:"trebuchet ms",verdana,arial,sans-serif;}#mermaid-1770211555563 .infra&gt;*{fill:#E3F2FD!important;stroke:#1565C0!important;stroke-width:2px!important;color:#0D47A1!important;}#mermaid-1770211555563 .infra span{fill:#E3F2FD!important;stroke:#1565C0!important;stroke-width:2px!important;color:#0D47A1!important;}#mermaid-1770211555563 .infra tspan{fill:#0D47A1!important;}#mermaid-1770211555563 .service&gt;*{fill:#E8F5E9!important;stroke:#2E7D32!important;stroke-width:2px!important;color:#1B5E20!important;}#mermaid-1770211555563 .service span{fill:#E8F5E9!important;stroke:#2E7D32!important;stroke-width:2px!important;color:#1B5E20!important;}#mermaid-1770211555563 .service tspan{fill:#1B5E20!important;}#mermaid-1770211555563 .process&gt;*{fill:#E1F5FE!important;stroke:#0277BD!important;stroke-width:2px!important;color:#01579B!important;}#mermaid-1770211555563 .process span{fill:#E1F5FE!important;stroke:#0277BD!important;stroke-width:2px!important;color:#01579B!important;}#mermaid-1770211555563 .process tspan{fill:#01579B!important;}#mermaid-1770211555563 .success&gt;*{fill:#C8E6C9!important;stroke:#2E7D32!important;stroke-width:2px!important;color:#1B5E20!important;}#mermaid-1770211555563 .success span{fill:#C8E6C9!important;stroke:#2E7D32!important;stroke-width:2px!important;color:#1B5E20!important;}#mermaid-1770211555563 .success tspan{fill:#1B5E20!important;}#mermaid-1770211555563 .error&gt;*{fill:#FFCDD2!important;stroke:#C62828!important;stroke-width:2px!important;color:#B71C1C!important;}#mermaid-1770211555563 .error span{fill:#FFCDD2!important;stroke:#C62828!important;stroke-width:2px!important;color:#B71C1C!important;}#mermaid-1770211555563 .error tspan{fill:#B71C1C!important;}</style><g><marker id="mermaid-1770211555563_flowchart-v2-pointEnd" class="marker flowchart-v2" viewBox="0 0 10 10" refX="5" refY="5" markerUnits="userSpaceOnUse" markerWidth="8" markerHeight="8" orient="auto"><path d="M 0 0 L 10 5 L 0 10 z" class="arrowMarkerPath" style="stroke-width: 1; stroke-dasharray: 1, 0;"></path></marker><marker id="mermaid-1770211555563_flowchart-v2-pointStart" class="marker flowchart-v2" viewBox="0 0 10 10" refX="4.5" refY="5" markerUnits="userSpaceOnUse" markerWidth="8" markerHeight="8" orient="auto"><path d="M 0 5 L 10 10 L 10 0 z" class="arrowMarkerPath" style="stroke-width: 1; stroke-dasharray: 1, 0;"></path></marker><marker id="mermaid-1770211555563_flowchart-v2-circleEnd" class="marker flowchart-v2" viewBox="0 0 10 10" refX="11" refY="5" markerUnits="userSpaceOnUse" markerWidth="11" markerHeight="11" orient="auto"><circle cx="5" cy="5" r="5" class="arrowMarkerPath" style="stroke-width: 1; stroke-dasharray: 1, 0;"></circle></marker><marker id="mermaid-1770211555563_flowchart-v2-circleStart" class="marker flowchart-v2" viewBox="0 0 10 10" refX="-1" refY="5" markerUnits="userSpaceOnUse" markerWidth="11" markerHeight="11" orient="auto"><circle cx="5" cy="5" r="5" class="arrowMarkerPath" style="stroke-width: 1; stroke-dasharray: 1, 0;"></circle></marker><marker id="mermaid-1770211555563_flowchart-v2-crossEnd" class="marker cross flowchart-v2" viewBox="0 0 11 11" refX="12" refY="5.2" markerUnits="userSpaceOnUse" markerWidth="11" markerHeight="11" orient="auto"><path d="M 1,1 l 9,9 M 10,1 l -9,9" class="arrowMarkerPath" style="stroke-width: 2; stroke-dasharray: 1, 0;"></path></marker><marker id="mermaid-1770211555563_flowchart-v2-crossStart" class="marker cross flowchart-v2" viewBox="0 0 11 11" refX="-1" refY="5.2" markerUnits="userSpaceOnUse" markerWidth="11" markerHeight="11" orient="auto"><path d="M 1,1 l 9,9 M 10,1 l -9,9" class="arrowMarkerPath" style="stroke-width: 2; stroke-dasharray: 1, 0;"></path></marker></g><g class="subgraphs"><g class="subgraph"><g class="cluster" id="Outcomes" data-look="classic"><rect style="" x="969.015625" y="90" width="250.171875" height="321"></rect><g class="cluster-label" transform="translate(1035.953125, 90)"><foreignObject width="116.296875" height="24"><div xmlns="http://www.w3.org/1999/xhtml" style="display: table-cell; white-space: nowrap; line-height: 1.5; max-width: 200px; text-align: center;"><span class="nodeLabel"><p>Probe Outcomes</p></span></div></foreignObject></g></g></g><g class="subgraph"><g class="cluster" id="WrapperPod" data-look="classic"><rect style="" x="632.271875" y="284" width="195.1875" height="237"></rect><g class="cluster-label" transform="translate(648.9671875, 284)"><foreignObject width="161.796875" height="24"><div xmlns="http://www.w3.org/1999/xhtml" style="display: table-cell; white-space: nowrap; line-height: 1.5; max-width: 200px; text-align: center;"><span class="nodeLabel"><p>Ryugraph Wrapper Pod</p></span></div></foreignObject></g></g></g><g class="subgraph"><g class="cluster" id="ControlPlane" data-look="classic"><rect style="" x="617.984375" y="12" width="219" height="237"></rect><g class="cluster-label" transform="translate(663.6875, 12)"><foreignObject width="127.59375" height="24"><div xmlns="http://www.w3.org/1999/xhtml" style="display: table-cell; white-space: nowrap; line-height: 1.5; max-width: 200px; text-align: center;"><span class="nodeLabel"><p>Control Plane Pod</p></span></div></foreignObject></g></g></g><g class="subgraph"><g class="cluster" id="Probes" data-look="classic"><rect style="" x="227.65625" y="271" width="199.140625" height="237"></rect><g class="cluster-label" transform="translate(277.5625, 271)"><foreignObject width="99.328125" height="24"><div xmlns="http://www.w3.org/1999/xhtml" style="display: table-cell; white-space: nowrap; line-height: 1.5; max-width: 200px; text-align: center;"><span class="nodeLabel"><p>Health Probes</p></span></div></foreignObject></g></g></g><g class="subgraph"><g class="cluster" id="Kubernetes" data-look="classic"><rect style="" x="12" y="284" width="165.65625" height="129"></rect><g class="cluster-label" transform="translate(54.6640625, 284)"><foreignObject width="80.328125" height="24"><div xmlns="http://www.w3.org/1999/xhtml" style="display: table-cell; white-space: nowrap; line-height: 1.5; max-width: 200px; text-align: center;"><span class="nodeLabel"><p>Kubernetes</p></span></div></foreignObject></g></g></g></g><g class="nodes"><g class="node default error" id="flowchart-Restart-7" transform="translate(1111.8515625, 156)"><rect class="basic label-container" style="fill:#FFCDD2 !important;stroke:#C62828 !important;stroke-width:2px !important" x="-70.8359375" y="-27" width="141.671875" height="54"></rect><g class="label" style="color:#B71C1C !important" transform="translate(-40.8359375, -12)"><rect></rect><foreignObject width="81.671875" height="24"><div style="color: rgb(183, 28, 28) !important; display: table-cell; white-space: nowrap; line-height: 1.5; max-width: 200px; text-align: center;" xmlns="http://www.w3.org/1999/xhtml"><span style="color:#B71C1C !important" class="nodeLabel"><p>Restart Pod</p></span></div></foreignObject></g></g><g class="node default error" id="flowchart-RemoveService-8" transform="translate(1118.3359375, 252)"><rect class="basic label-container" style="fill:#FFCDD2 !important;stroke:#C62828 !important;stroke-width:2px !important" x="-77.3203125" y="-39" width="154.640625" height="78"></rect><g class="label" style="color:#B71C1C !important" transform="translate(-47.3203125, -24)"><rect></rect><foreignObject width="94.640625" height="48"><div style="color: rgb(183, 28, 28) !important; display: table-cell; white-space: nowrap; line-height: 1.5; max-width: 200px; text-align: center;" xmlns="http://www.w3.org/1999/xhtml"><span style="color:#B71C1C !important" class="nodeLabel"><p>Remove from<br/>Service</p></span></div></foreignObject></g></g><g class="node default success" id="flowchart-Healthy-9" transform="translate(1124.1015625, 360)"><rect class="basic label-container" style="fill:#C8E6C9 !important;stroke:#2E7D32 !important;stroke-width:2px !important" x="-83.0859375" y="-39" width="166.171875" height="78"></rect><g class="label" style="color:#1B5E20 !important" transform="translate(-53.0859375, -24)"><rect></rect><foreignObject width="106.171875" height="48"><div style="color: rgb(27, 94, 32) !important; display: table-cell; white-space: nowrap; line-height: 1.5; max-width: 200px; text-align: center;" xmlns="http://www.w3.org/1999/xhtml"><span style="color:#1B5E20 !important" class="nodeLabel"><p>Pod Healthy<br/>Receive Traffic</p></span></div></foreignObject></g></g><g class="node default service" id="flowchart-WP_Health-5" transform="translate(729.865625, 362)"><rect class="basic label-container" style="fill:#E8F5E9 !important;stroke:#2E7D32 !important;stroke-width:2px !important" x="-85.59375" y="-39" width="171.1875" height="78"></rect><g class="label" style="color:#1B5E20 !important" transform="translate(-55.59375, -24)"><rect></rect><foreignObject width="111.1875" height="48"><div style="color: rgb(27, 94, 32) !important; display: table-cell; white-space: nowrap; line-height: 1.5; max-width: 200px; text-align: center;" xmlns="http://www.w3.org/1999/xhtml"><span style="color:#1B5E20 !important" class="nodeLabel"><p>/health<br/>Process running</p></span></div></foreignObject></g></g><g class="node default service" id="flowchart-WP_Ready-6" transform="translate(732.365625, 470)"><rect class="basic label-container" style="fill:#E8F5E9 !important;stroke:#2E7D32 !important;stroke-width:2px !important" x="-78.09375" y="-39" width="156.1875" height="78"></rect><g class="label" style="color:#1B5E20 !important" transform="translate(-48.09375, -24)"><rect></rect><foreignObject width="96.1875" height="48"><div style="color: rgb(27, 94, 32) !important; display: table-cell; white-space: nowrap; line-height: 1.5; max-width: 200px; text-align: center;" xmlns="http://www.w3.org/1999/xhtml"><span style="color:#1B5E20 !important" class="nodeLabel"><p>/ready<br/>Graph loaded</p></span></div></foreignObject></g></g><g class="node default service" id="flowchart-CP_Health-3" transform="translate(727.484375, 90)"><rect class="basic label-container" style="fill:#E8F5E9 !important;stroke:#2E7D32 !important;stroke-width:2px !important" x="-90.8515625" y="-39" width="181.703125" height="78"></rect><g class="label" style="color:#1B5E20 !important" transform="translate(-60.8515625, -24)"><rect></rect><foreignObject width="121.703125" height="48"><div style="color: rgb(27, 94, 32) !important; display: table-cell; white-space: nowrap; line-height: 1.5; max-width: 200px; text-align: center;" xmlns="http://www.w3.org/1999/xhtml"><span style="color:#1B5E20 !important" class="nodeLabel"><p>/health<br/>Basic alive check</p></span></div></foreignObject></g></g><g class="node default service" id="flowchart-CP_Ready-4" transform="translate(727.484375, 198)"><rect class="basic label-container" style="fill:#E8F5E9 !important;stroke:#2E7D32 !important;stroke-width:2px !important" x="-97.5" y="-39" width="195" height="78"></rect><g class="label" style="color:#1B5E20 !important" transform="translate(-67.5, -24)"><rect></rect><foreignObject width="135" height="48"><div style="color: rgb(27, 94, 32) !important; display: table-cell; white-space: nowrap; line-height: 1.5; max-width: 200px; text-align: center;" xmlns="http://www.w3.org/1999/xhtml"><span style="color:#1B5E20 !important" class="nodeLabel"><p>/ready<br/>DB + dependencies</p></span></div></foreignObject></g></g><g class="node default process" id="flowchart-Liveness-1" transform="translate(328.90104166666663, 349)"><rect class="basic label-container" style="fill:#E1F5FE !important;stroke:#0277BD !important;stroke-width:2px !important" x="-82.546875" y="-39" width="165.09375" height="78"></rect><g class="label" style="color:#01579B !important" transform="translate(-52.546875, -24)"><rect></rect><foreignObject width="105.09375" height="48"><div style="color: rgb(1, 87, 155) !important; display: table-cell; white-space: nowrap; line-height: 1.5; max-width: 200px; text-align: center;" xmlns="http://www.w3.org/1999/xhtml"><span style="color:#01579B !important" class="nodeLabel"><p>Liveness Probe<br/>/health</p></span></div></foreignObject></g></g><g class="node default process" id="flowchart-Readiness-2" transform="translate(327.2265625, 457)"><rect class="basic label-container" style="fill:#E1F5FE !important;stroke:#0277BD !important;stroke-width:2px !important" x="-87.5703125" y="-39" width="175.140625" height="78"></rect><g class="label" style="color:#01579B !important" transform="translate(-57.5703125, -24)"><rect></rect><foreignObject width="115.140625" height="48"><div style="color: rgb(1, 87, 155) !important; display: table-cell; white-space: nowrap; line-height: 1.5; max-width: 200px; text-align: center;" xmlns="http://www.w3.org/1999/xhtml"><span style="color:#01579B !important" class="nodeLabel"><p>Readiness Probe<br/>/ready</p></span></div></foreignObject></g></g><g class="node default infra" id="flowchart-Kubelet-0" transform="translate(94.828125, 362)"><rect class="basic label-container" style="fill:#E3F2FD !important;stroke:#1565C0 !important;stroke-width:2px !important" x="-70.828125" y="-39" width="141.65625" height="78"></rect><g class="label" style="color:#0D47A1 !important" transform="translate(-40.828125, -24)"><rect></rect><foreignObject width="81.65625" height="48"><div style="color: rgb(13, 71, 161) !important; display: table-cell; white-space: nowrap; line-height: 1.5; max-width: 200px; text-align: center;" xmlns="http://www.w3.org/1999/xhtml"><span style="color:#0D47A1 !important" class="nodeLabel"><p>Kubelet<br/>Node Agent</p></span></div></foreignObject></g></g></g><g class="edges edgePaths"><path d="M165.656,349L168.906,349C172.156,349,178.656,349,187.74,349C196.823,349,208.49,349,218.023,349C227.556,349,234.955,349,238.655,349L242.354,349" id="L_Kubelet_Liveness_0_0" class="edge-thickness-normal edge-pattern-solid edge-thickness-normal edge-pattern-solid flowchart-link" style=";" data-edge="true" data-et="edge" data-id="L_Kubelet_Liveness_0_0" data-points="W3sieCI6MTY1LjY1NjI1LCJ5IjozNDl9LHsieCI6MTg1LjE1NjI1LCJ5IjozNDl9LHsieCI6MjIwLjE1NjI1LCJ5IjozNDl9LHsieCI6MjQ2LjM1NDE2NjY2NjY2NjY2LCJ5IjozNDl9XQ==" marker-end="url(#mermaid-1770211555563_flowchart-v2-pointEnd)"></path><path d="M165.656,375L168.906,375C172.156,375,178.656,375,183.99,375C189.323,375,193.49,375,196.044,375.362C198.599,375.724,199.542,376.448,200.375,377.281C201.209,378.114,201.932,379.057,202.294,391.529C202.656,404,202.656,428,203.018,440.471C203.38,452.943,204.104,453.886,204.937,454.719C205.771,455.552,206.713,456.276,209.268,456.638C211.823,457,215.99,457,220.656,457C225.323,457,230.49,457,233.073,457L235.656,457" id="L_Kubelet_Readiness_0_0" class="edge-thickness-normal edge-pattern-solid edge-thickness-normal edge-pattern-solid flowchart-link" style=";" data-edge="true" data-et="edge" data-id="L_Kubelet_Readiness_0_0" data-points="W3sieCI6MTY1LjY1NjI1LCJ5IjozNzV9LHsieCI6MTg1LjE1NjI1LCJ5IjozNzV9LHsieCI6MjAyLjY1NjI1LCJ5IjozNzV9LHsieCI6MjAyLjY1NjI1LCJ5Ijo0NTd9LHsieCI6MjIwLjE1NjI1LCJ5Ijo0NTd9LHsieCI6MjM5LjY1NjI1LCJ5Ijo0NTd9XQ==" marker-end="url(#mermaid-1770211555563_flowchart-v2-pointEnd)"></path><path d="M411.448,336L415.256,336C419.064,336,426.681,336,432.572,336C438.464,336,442.63,336,445.185,335.638C447.74,335.276,448.682,334.552,449.516,333.719C450.349,332.886,451.073,331.943,451.435,295.971C451.797,260,451.797,189,452.159,153.029C452.521,117.057,453.245,116.114,454.078,115.281C454.911,114.448,455.854,113.724,478.19,113.362C500.526,113,544.255,113,566.591,112.638C588.927,112.276,589.87,111.552,590.703,110.719C591.537,109.886,592.261,108.943,592.622,106.305C592.984,103.667,592.984,99.333,593.346,96.695C593.708,94.057,594.432,93.114,595.265,92.281C596.099,91.448,597.042,90.724,599.596,90.362C602.151,90,606.318,90,612.092,90C617.867,90,625.25,90,628.941,90L632.633,90" id="L_Liveness_CP_Health_0_0" class="edge-thickness-normal edge-pattern-solid edge-thickness-normal edge-pattern-solid flowchart-link" style=";" data-edge="true" data-et="edge" data-id="L_Liveness_CP_Health_0_0" data-points="W3sieCI6NDExLjQ0NzkxNjY2NjY2NjYzLCJ5IjozMzZ9LHsieCI6NDM0LjI5Njg3NSwieSI6MzM2fSx7IngiOjQ1MS43OTY4NzUsInkiOjMzNn0seyJ4Ijo0NTEuNzk2ODc1LCJ5IjoxMTN9LHsieCI6NTkyLjk4NDM3NSwieSI6MTEzfSx7IngiOjU5Mi45ODQzNzUsInkiOjkwfSx7IngiOjYxMC40ODQzNzUsInkiOjkwfSx7IngiOjYzNi42MzI4MTI1LCJ5Ijo5MH1d" marker-end="url(#mermaid-1770211555563_flowchart-v2-pointEnd)"></path><path d="M411.448,362L415.256,362C419.064,362,426.681,362,435.489,362C444.297,362,454.297,362,459.768,361.638C465.24,361.276,466.182,360.552,467.016,359.719C467.849,358.886,468.573,357.943,468.935,324.721C469.297,291.5,469.297,226,469.659,192.779C470.021,159.557,470.745,158.614,471.578,157.781C472.411,156.948,473.354,156.224,492.773,155.862C512.193,155.5,550.089,155.5,569.508,155.862C588.927,156.224,589.87,156.948,590.703,157.781C591.537,158.614,592.261,159.557,592.622,192.779C592.984,226,592.984,291.5,593.346,324.721C593.708,357.943,594.432,358.886,595.265,359.719C596.099,360.552,597.042,361.276,601.978,361.638C606.914,362,615.843,362,622.891,362C629.939,362,635.105,362,637.689,362L640.272,362" id="L_Liveness_WP_Health_0_0" class="edge-thickness-normal edge-pattern-solid edge-thickness-normal edge-pattern-solid flowchart-link" style=";" data-edge="true" data-et="edge" data-id="L_Liveness_WP_Health_0_0" data-points="W3sieCI6NDExLjQ0NzkxNjY2NjY2NjYzLCJ5IjozNjJ9LHsieCI6NDM0LjI5Njg3NSwieSI6MzYyfSx7IngiOjQ2OS4yOTY4NzUsInkiOjM2Mn0seyJ4Ijo0NjkuMjk2ODc1LCJ5IjoxNTUuNX0seyJ4Ijo1OTIuOTg0Mzc1LCJ5IjoxNTUuNX0seyJ4Ijo1OTIuOTg0Mzc1LCJ5IjozNjJ9LHsieCI6NjI0Ljc3MTg3NSwieSI6MzYyfSx7IngiOjY0NC4yNzE4NzUsInkiOjM2Mn1d" marker-end="url(#mermaid-1770211555563_flowchart-v2-pointEnd)"></path><path d="M414.797,444L418.047,444C421.297,444,427.797,444,438.964,444C450.13,444,465.964,444,474.352,443.638C482.74,443.276,483.682,442.552,484.516,441.719C485.349,440.886,486.073,439.943,486.435,400.138C486.797,360.333,486.797,281.667,487.159,241.862C487.521,202.057,488.245,201.114,489.078,200.281C489.911,199.448,490.854,198.724,511.107,198.362C531.359,198,570.922,198,593.286,198C615.651,198,620.818,198,623.401,198L625.984,198" id="L_Readiness_CP_Ready_0_0" class="edge-thickness-normal edge-pattern-solid edge-thickness-normal edge-pattern-solid flowchart-link" style=";" data-edge="true" data-et="edge" data-id="L_Readiness_CP_Ready_0_0" data-points="W3sieCI6NDE0Ljc5Njg3NSwieSI6NDQ0fSx7IngiOjQzNC4yOTY4NzUsInkiOjQ0NH0seyJ4Ijo0ODYuNzk2ODc1LCJ5Ijo0NDR9LHsieCI6NDg2Ljc5Njg3NSwieSI6MTk4fSx7IngiOjYxMC40ODQzNzUsInkiOjE5OH0seyJ4Ijo2MjkuOTg0Mzc1LCJ5IjoxOTh9XQ==" marker-end="url(#mermaid-1770211555563_flowchart-v2-pointEnd)"></path><path d="M414.797,470L418.047,470C421.297,470,427.797,470,462.793,470C497.789,470,561.28,470,597.276,470C633.272,470,641.772,470,646.022,470L650.272,470" id="L_Readiness_WP_Ready_0_0" class="edge-thickness-normal edge-pattern-solid edge-thickness-normal edge-pattern-solid flowchart-link" style=";" data-edge="true" data-et="edge" data-id="L_Readiness_WP_Ready_0_0" data-points="W3sieCI6NDE0Ljc5Njg3NSwieSI6NDcwfSx7IngiOjQzNC4yOTY4NzUsInkiOjQ3MH0seyJ4Ijo2MjQuNzcxODc1LCJ5Ijo0NzB9LHsieCI6NjU0LjI3MTg3NSwieSI6NDcwfV0=" marker-end="url(#mermaid-1770211555563_flowchart-v2-pointEnd)"></path><path d="M818.336,90L822.694,90C827.052,90,835.768,90,852.965,90C870.161,90,895.839,90,909.148,90.362C922.458,90.724,923.401,91.448,924.235,92.281C925.068,93.114,925.792,94.057,926.154,102.362C926.516,110.667,926.516,126.333,926.878,134.638C927.239,142.943,927.963,143.886,928.797,144.719C929.63,145.552,930.573,146.276,936.044,146.638C941.516,147,951.516,147,969.099,147C986.682,147,1011.849,147,1024.432,147L1037.016,147" id="L_CP_Health_Restart_0_0" class="edge-thickness-normal edge-pattern-solid edge-thickness-normal edge-pattern-solid flowchart-link" style=";" data-edge="true" data-et="edge" data-id="L_CP_Health_Restart_0_0" data-points="W3sieCI6ODE4LjMzNTkzNzUsInkiOjkwfSx7IngiOjg0NC40ODQzNzUsInkiOjkwfSx7IngiOjkyNi41MTU2MjUsInkiOjkwfSx7IngiOjkyNi41MTU2MjUsInkiOjE0N30seyJ4Ijo5NjEuNTE1NjI1LCJ5IjoxNDd9LHsieCI6MTA0MS4wMTU2MjUsInkiOjE0N31d" marker-end="url(#mermaid-1770211555563_flowchart-v2-pointEnd)"></path><path d="M815.459,362L818.709,362C821.959,362,828.459,362,852.802,362C877.145,362,919.33,362,945.34,362C971.349,362,981.182,362,986.57,361.638C991.958,361.276,992.901,360.552,993.735,359.719C994.568,358.886,995.292,357.943,995.654,326.305C996.016,294.667,996.016,232.333,996.378,200.695C996.739,169.057,997.463,168.114,998.297,167.281C999.13,166.448,1000.073,165.724,1006.544,165.362C1013.016,165,1025.016,165,1031.016,165L1037.016,165" id="L_WP_Health_Restart_0_0" class="edge-thickness-normal edge-pattern-solid edge-thickness-normal edge-pattern-solid flowchart-link" style=";" data-edge="true" data-et="edge" data-id="L_WP_Health_Restart_0_0" data-points="W3sieCI6ODE1LjQ1OTM3NSwieSI6MzYyfSx7IngiOjgzNC45NTkzNzUsInkiOjM2Mn0seyJ4Ijo5NjEuNTE1NjI1LCJ5IjozNjJ9LHsieCI6OTk2LjAxNTYyNSwieSI6MzYyfSx7IngiOjk5Ni4wMTU2MjUsInkiOjE2NX0seyJ4IjoxMDQxLjAxNTYyNSwieSI6MTY1fV0=" marker-end="url(#mermaid-1770211555563_flowchart-v2-pointEnd)"></path><path d="M824.984,185L828.234,185C831.484,185,837.984,185,843.318,185C848.651,185,852.818,185,855.372,184.638C857.927,184.276,858.87,183.552,859.703,182.719C860.537,181.886,861.261,180.943,861.622,179.388C861.984,177.833,861.984,175.667,862.346,174.112C862.708,172.557,863.432,171.614,864.265,170.781C865.099,169.948,866.042,169.224,878.518,168.862C890.995,168.5,915.005,168.5,927.482,168.862C939.958,169.224,940.901,169.948,941.735,170.781C942.568,171.614,943.292,172.557,943.654,183.112C944.016,193.667,944.016,213.833,944.378,224.388C944.739,234.943,945.463,235.886,946.297,236.719C947.13,237.552,948.073,238.276,950.628,238.638C953.182,239,957.349,239,972.016,239C986.682,239,1011.849,239,1024.432,239L1037.016,239" id="L_CP_Ready_RemoveService_0_0" class="edge-thickness-normal edge-pattern-solid edge-thickness-normal edge-pattern-solid flowchart-link" style=";" data-edge="true" data-et="edge" data-id="L_CP_Ready_RemoveService_0_0" data-points="W3sieCI6ODI0Ljk4NDM3NSwieSI6MTg1fSx7IngiOjg0NC40ODQzNzUsInkiOjE4NX0seyJ4Ijo4NjEuOTg0Mzc1LCJ5IjoxODV9LHsieCI6ODYxLjk4NDM3NSwieSI6MTY4LjV9LHsieCI6OTQ0LjAxNTYyNSwieSI6MTY4LjV9LHsieCI6OTQ0LjAxNTYyNSwieSI6MjM5fSx7IngiOjk2MS41MTU2MjUsInkiOjIzOX0seyJ4IjoxMDQxLjAxNTYyNSwieSI6MjM5fV0=" marker-end="url(#mermaid-1770211555563_flowchart-v2-pointEnd)"></path><path d="M810.459,457L814.543,457C818.626,457,826.793,457,834.547,457C842.301,457,849.643,457,853.785,456.638C857.927,456.276,858.87,455.552,859.703,454.719C860.537,453.886,861.261,452.943,861.622,451.388C861.984,449.833,861.984,447.667,862.346,446.112C862.708,444.557,863.432,443.614,864.265,442.781C865.099,441.948,866.042,441.224,875.602,440.862C885.161,440.5,903.339,440.5,912.898,440.138C922.458,439.776,923.401,439.052,924.235,438.219C925.068,437.386,925.792,436.443,926.154,427.055C926.516,417.667,926.516,399.833,926.878,390.445C927.239,381.057,927.963,380.114,928.797,379.281C929.63,378.448,930.573,377.724,936.044,377.362C941.516,377,951.516,377,963.932,377C976.349,377,991.182,377,999.07,376.638C1006.958,376.276,1007.901,375.552,1008.735,374.719C1009.568,373.886,1010.292,372.943,1010.654,355.471C1011.016,338,1011.016,304,1011.378,286.529C1011.739,269.057,1012.463,268.114,1013.297,267.281C1014.13,266.448,1015.073,265.724,1019.044,265.362C1023.016,265,1030.016,265,1033.516,265L1037.016,265" id="L_WP_Ready_RemoveService_0_0" class="edge-thickness-normal edge-pattern-solid edge-thickness-normal edge-pattern-solid flowchart-link" style=";" data-edge="true" data-et="edge" data-id="L_WP_Ready_RemoveService_0_0" data-points="W3sieCI6ODEwLjQ1OTM3NSwieSI6NDU3fSx7IngiOjgzNC45NTkzNzUsInkiOjQ1N30seyJ4Ijo4NjEuOTg0Mzc1LCJ5Ijo0NTd9LHsieCI6ODYxLjk4NDM3NSwieSI6NDQwLjV9LHsieCI6OTI2LjUxNTYyNSwieSI6NDQwLjV9LHsieCI6OTI2LjUxNTYyNSwieSI6Mzc3fSx7IngiOjk2MS41MTU2MjUsInkiOjM3N30seyJ4IjoxMDExLjAxNTYyNSwieSI6Mzc3fSx7IngiOjEwMTEuMDE1NjI1LCJ5IjoyNjV9LHsieCI6MTA0MS4wMTU2MjUsInkiOjI2NX1d" marker-end="url(#mermaid-1770211555563_flowchart-v2-pointEnd)"></path><path d="M824.984,211L828.234,211C831.484,211,837.984,211,854.073,211C870.161,211,895.839,211,909.148,211.362C922.458,211.724,923.401,212.448,924.235,213.281C925.068,214.114,925.792,215.057,926.154,236.529C926.516,258,926.516,300,926.878,321.471C927.239,342.943,927.963,343.886,928.797,344.719C929.63,345.552,930.573,346.276,936.044,346.638C941.516,347,951.516,347,969.099,347C986.682,347,1011.849,347,1024.432,347L1037.016,347" id="L_CP_Ready_Healthy_0_0" class="edge-thickness-normal edge-pattern-solid edge-thickness-normal edge-pattern-solid flowchart-link" style=";" data-edge="true" data-et="edge" data-id="L_CP_Ready_Healthy_0_0" data-points="W3sieCI6ODI0Ljk4NDM3NSwieSI6MjExfSx7IngiOjg0NC40ODQzNzUsInkiOjIxMX0seyJ4Ijo5MjYuNTE1NjI1LCJ5IjoyMTF9LHsieCI6OTI2LjUxNTYyNSwieSI6MzQ3fSx7IngiOjk2MS41MTU2MjUsInkiOjM0N30seyJ4IjoxMDQxLjAxNTYyNSwieSI6MzQ3fV0=" marker-end="url(#mermaid-1770211555563_flowchart-v2-pointEnd)"></path><path d="M810.459,483L814.543,483C818.626,483,826.793,483,848.219,483C869.645,483,904.33,483,922.144,482.638C939.958,482.276,940.901,481.552,941.735,480.719C942.568,479.886,943.292,478.943,943.654,464.971C944.016,451,944.016,424,944.378,410.029C944.739,396.057,945.463,395.114,946.297,394.281C947.13,393.448,948.073,392.724,950.628,392.362C953.182,392,957.349,392,969.349,392C981.349,392,1001.182,392,1011.57,391.638C1021.958,391.276,1022.901,390.552,1023.735,389.719C1024.568,388.886,1025.292,387.943,1025.654,385.971C1026.016,384,1026.016,381,1026.378,379.029C1026.739,377.057,1027.463,376.114,1028.297,375.281C1029.13,374.448,1030.073,373.724,1031.544,373.362C1033.016,373,1035.016,373,1036.016,373L1037.016,373" id="L_WP_Ready_Healthy_0_0" class="edge-thickness-normal edge-pattern-solid edge-thickness-normal edge-pattern-solid flowchart-link" style=";" data-edge="true" data-et="edge" data-id="L_WP_Ready_Healthy_0_0" data-points="W3sieCI6ODEwLjQ1OTM3NSwieSI6NDgzfSx7IngiOjgzNC45NTkzNzUsInkiOjQ4M30seyJ4Ijo5NDQuMDE1NjI1LCJ5Ijo0ODN9LHsieCI6OTQ0LjAxNTYyNSwieSI6MzkyfSx7IngiOjk2MS41MTU2MjUsInkiOjM5Mn0seyJ4IjoxMDI2LjAxNTYyNSwieSI6MzkyfSx7IngiOjEwMjYuMDE1NjI1LCJ5IjozNzN9LHsieCI6MTA0MS4wMTU2MjUsInkiOjM3M31d" marker-end="url(#mermaid-1770211555563_flowchart-v2-pointEnd)"></path></g><g class="edgeLabels"><g class="edgeLabel"><g class="label" data-id="L_Kubelet_Liveness_0_0" transform="translate(0, 0)"><foreignObject width="0" height="0"><div xmlns="http://www.w3.org/1999/xhtml" class="labelBkg" style="display: table-cell; white-space: nowrap; line-height: 1.5; max-width: 200px; text-align: center;"><span class="edgeLabel"></span></div></foreignObject></g></g><g class="edgeLabel"><g class="label" data-id="L_Kubelet_Readiness_0_0" transform="translate(0, 0)"><foreignObject width="0" height="0"><div xmlns="http://www.w3.org/1999/xhtml" class="labelBkg" style="display: table-cell; white-space: nowrap; line-height: 1.5; max-width: 200px; text-align: center;"><span class="edgeLabel"></span></div></foreignObject></g></g><g class="edgeLabel" transform="translate(539.890625, 112.5)"><g class="label" data-id="L_Liveness_CP_Health_0_0" transform="translate(-35.59375, -12)"><foreignObject width="71.1875" height="24"><div xmlns="http://www.w3.org/1999/xhtml" class="labelBkg" style="display: table-cell; white-space: nowrap; line-height: 1.5; max-width: 200px; text-align: center;"><span class="edgeLabel"><p>HTTP GET</p></span></div></foreignObject></g></g><g class="edgeLabel" transform="translate(539.890625, 155)"><g class="label" data-id="L_Liveness_WP_Health_0_0" transform="translate(-35.59375, -12)"><foreignObject width="71.1875" height="24"><div xmlns="http://www.w3.org/1999/xhtml" class="labelBkg" style="display: table-cell; white-space: nowrap; line-height: 1.5; max-width: 200px; text-align: center;"><span class="edgeLabel"><p>HTTP GET</p></span></div></foreignObject></g></g><g class="edgeLabel" transform="translate(539.890625, 197.5)"><g class="label" data-id="L_Readiness_CP_Ready_0_0" transform="translate(-35.59375, -12)"><foreignObject width="71.1875" height="24"><div xmlns="http://www.w3.org/1999/xhtml" class="labelBkg" style="display: table-cell; white-space: nowrap; line-height: 1.5; max-width: 200px; text-align: center;"><span class="edgeLabel"><p>HTTP GET</p></span></div></foreignObject></g></g><g class="edgeLabel" transform="translate(539.890625, 469.5)"><g class="label" data-id="L_Readiness_WP_Ready_0_0" transform="translate(-35.59375, -12)"><foreignObject width="71.1875" height="24"><div xmlns="http://www.w3.org/1999/xhtml" class="labelBkg" style="display: table-cell; white-space: nowrap; line-height: 1.5; max-width: 200px; text-align: center;"><span class="edgeLabel"><p>HTTP GET</p></span></div></foreignObject></g></g><g class="edgeLabel" transform="translate(894.25, 89.5)"><g class="label" data-id="L_CP_Health_Restart_0_0" transform="translate(-13.046875, -12)"><foreignObject width="26.09375" height="24"><div xmlns="http://www.w3.org/1999/xhtml" class="labelBkg" style="display: table-cell; white-space: nowrap; line-height: 1.5; max-width: 200px; text-align: center;"><span class="edgeLabel"><p>Fail</p></span></div></foreignObject></g></g><g class="edgeLabel" transform="translate(894.25, 361.5)"><g class="label" data-id="L_WP_Health_Restart_0_0" transform="translate(-13.046875, -12)"><foreignObject width="26.09375" height="24"><div xmlns="http://www.w3.org/1999/xhtml" class="labelBkg" style="display: table-cell; white-space: nowrap; line-height: 1.5; max-width: 200px; text-align: center;"><span class="edgeLabel"><p>Fail</p></span></div></foreignObject></g></g><g class="edgeLabel" transform="translate(894.25, 168)"><g class="label" data-id="L_CP_Ready_RemoveService_0_0" transform="translate(-13.046875, -12)"><foreignObject width="26.09375" height="24"><div xmlns="http://www.w3.org/1999/xhtml" class="labelBkg" style="display: table-cell; white-space: nowrap; line-height: 1.5; max-width: 200px; text-align: center;"><span class="edgeLabel"><p>Fail</p></span></div></foreignObject></g></g><g class="edgeLabel" transform="translate(894.25, 440)"><g class="label" data-id="L_WP_Ready_RemoveService_0_0" transform="translate(-13.046875, -12)"><foreignObject width="26.09375" height="24"><div xmlns="http://www.w3.org/1999/xhtml" class="labelBkg" style="display: table-cell; white-space: nowrap; line-height: 1.5; max-width: 200px; text-align: center;"><span class="edgeLabel"><p>Fail</p></span></div></foreignObject></g></g><g class="edgeLabel" transform="translate(894.25, 210.5)"><g class="label" data-id="L_CP_Ready_Healthy_0_0" transform="translate(-14.765625, -12)"><foreignObject width="29.53125" height="24"><div xmlns="http://www.w3.org/1999/xhtml" class="labelBkg" style="display: table-cell; white-space: nowrap; line-height: 1.5; max-width: 200px; text-align: center;"><span class="edgeLabel"><p>Pass</p></span></div></foreignObject></g></g><g class="edgeLabel" transform="translate(894.25, 482.5)"><g class="label" data-id="L_WP_Ready_Healthy_0_0" transform="translate(-14.765625, -12)"><foreignObject width="29.53125" height="24"><div xmlns="http://www.w3.org/1999/xhtml" class="labelBkg" style="display: table-cell; white-space: nowrap; line-height: 1.5; max-width: 200px; text-align: center;"><span class="edgeLabel"><p>Pass</p></span></div></foreignObject></g></g></g></svg>