<svg id="mermaid-1770211582386" width="100%" xmlns="http://www.w3.org/2000/svg" xmlns:xlink="http://www.w3.org/1999/xlink" class="flowchart" style="max-width: 736px;" viewBox="-8 -8 736 836" role="graphics-document document" aria-roledescription="flowchart-v2" aria-describedby="chart-desc-mermaid-1770211582386" aria-labelledby="chart-title-mermaid-1770211582386" height="auto"><title id="chart-title-mermaid-1770211582386">Graph OLAP Resource Hierarchy</title><desc id="chart-desc-mermaid-1770211582386">Shows the parent-child relationship between Mappings, Snapshots, and Instances</desc><style>#mermaid-1770211582386{font-family:"trebuchet ms",verdana,arial,sans-serif;font-size:16px;fill:#333;}@keyframes edge-animation-frame{from{stroke-dashoffset:0;}}@keyframes dash{to{stroke-dashoffset:0;}}#mermaid-1770211582386 .edge-animation-slow{stroke-dasharray:9,5!important;stroke-dashoffset:900;animation:dash 50s linear infinite;stroke-linecap:round;}#mermaid-1770211582386 .edge-animation-fast{stroke-dasharray:9,5!important;stroke-dashoffset:900;animation:dash 20s linear infinite;stroke-linecap:round;}#mermaid-1770211582386 .error-icon{fill:#552222;}#mermaid-1770211582386 .error-text{fill:#552222;stroke:#552222;}#mermaid-1770211582386 .edge-thickness-normal{stroke-width:1px;}#mermaid-1770211582386 .edge-thickness-thick{stroke-width:3.5px;}#mermaid-1770211582386 .edge-pattern-solid{stroke-dasharray:0;}#mermaid-1770211582386 .edge-thickness-invisible{stroke-width:0;fill:none;}#mermaid-1770211582386 .edge-pattern-dashed{stroke-dasharray:3;}#mermaid-1770211582386 .edge-pattern-dotted{stroke-dasharray:2;}#mermaid-1770211582386 .marker{fill:#333333;stroke:#333333;}#mermaid-1770211582386 .marker.cross{stroke:#333333;}#mermaid-1770211582386 svg{font-family:"trebuchet ms",verdana,arial,sans-serif;font-size:16px;}#mermaid-1770211582386 p{margin:0;}#mermaid-1770211582386 .label{font-family:"trebuchet ms",verdana,arial,sans-serif;color:#333;}#mermaid-1770211582386 .cluster-label text{fill:#333;}#mermaid-1770211582386 .cluster-label span{color:#333;}#mermaid-1770211582386 .cluster-label span p{background-color:transparent;}#mermaid-1770211582386 .label text,#mermaid-1770211582386 span{fill:#333;color:#333;}#mermaid-1770211582386 .node rect,#mermaid-1770211582386 .node circle,#mermaid-1770211582386 .node ellipse,#mermaid-1770211582386 .node polygon,#mermaid-1770211582386 .node path{fill:#ECECFF;stroke:#9370DB;stroke-width:1px;}#mermaid-1770211582386 .rough-node .label text,#mermaid-1770211582386 .node .label text,#mermaid-1770211582386 .image-shape .label,#mermaid-1770211582386 .icon-shape .label{text-anchor:middle;}#mermaid-1770211582386 .node .katex path{fill:#000;stroke:#000;stroke-width:1px;}#mermaid-1770211582386 .rough-node .label,#mermaid-1770211582386 .node .label,#mermaid-1770211582386 .image-shape .label,#mermaid-1770211582386 .icon-shape .label{text-align:center;}#mermaid-1770211582386 .node.clickable{cursor:pointer;}#mermaid-1770211582386 .root .anchor path{fill:#333333!important;stroke-width:0;stroke:#333333;}#mermaid-1770211582386 .arrowheadPath{fill:#333333;}#mermaid-1770211582386 .edgePath .path{stroke:#333333;stroke-width:2.0px;}#mermaid-1770211582386 .flowchart-link{stroke:#333333;fill:none;}#mermaid-1770211582386 .edgeLabel{background-color:rgba(232,232,232, 0.8);text-align:center;}#mermaid-1770211582386 .edgeLabel p{background-color:rgba(232,232,232, 0.8);}#mermaid-1770211582386 .edgeLabel rect{opacity:0.5;background-color:rgba(232,232,232, 0.8);fill:rgba(232,232,232, 0.8);}#mermaid-1770211582386 .labelBkg{background-color:rgba(232, 232, 232, 0.5);}#mermaid-1770211582386 .cluster rect{fill:#ffffde;stroke:#aaaa33;stroke-width:1px;}#mermaid-1770211582386 .cluster text{fill:#333;}#mermaid-1770211582386 .cluster span{color:#333;}#mermaid-1770211582386 div.mermaidTooltip{position:absolute;text-align:center;max-width:200px;padding:2px;font-family:"trebuchet ms",verdana,arial,sans-serif;font-size:12px;background:hsl(80, 100%, 96.2745098039%);border:1px solid #aaaa33;border-radius:2px;pointer-events:none;z-index:100;}#mermaid-1770211582386 .flowchartTitleText{text-anchor:middle;font-size:18px;fill:#333;}#mermaid-1770211582386 rect.text{fill:none;stroke-width:0;}#mermaid-1770211582386 .icon-shape,#mermaid-1770211582386 .image-shape{background-color:rgba(232,232,232, 0.8);text-align:center;}#mermaid-1770211582386 .icon-shape p,#mermaid-1770211582386 .image-shape p{background-color:rgba(232,232,232, 0.8);padding:2px;}#mermaid-1770211582386 .icon-shape rect,#mermaid-1770211582386 .image-shape rect{opacity:0.5;background-color:rgba(232,232,232, 0.8);fill:rgba(232,232,232, 0.8);}#mermaid-1770211582386 .label-icon{display:inline-block;height:1em;overflow:visible;vertical-align:-0.125em;}#mermaid-1770211582386 .node .label-icon path{fill:currentColor;stroke:revert;stroke-width:revert;}#mermaid-1770211582386 :root{--mermaid-font-family:"trebuchet ms",verdana,arial,sans-serif;}#mermaid-1770211582386 .mapping&gt;*{fill:#F3E5F5!important;stroke:#7B1FA2!important;stroke-width:2px!important;color:#4A148C!important;}#mermaid-1770211582386 .mapping span{fill:#F3E5F5!important;stroke:#7B1FA2!important;stroke-width:2px!important;color:#4A148C!important;}#mermaid-1770211582386 .mapping tspan{fill:#4A148C!important;}#mermaid-1770211582386 .snapshot&gt;*{fill:#E1F5FE!important;stroke:#0277BD!important;stroke-width:2px!important;color:#01579B!important;}#mermaid-1770211582386 .snapshot span{fill:#E1F5FE!important;stroke:#0277BD!important;stroke-width:2px!important;color:#01579B!important;}#mermaid-1770211582386 .snapshot tspan{fill:#01579B!important;}#mermaid-1770211582386 .instance&gt;*{fill:#E8F5E9!important;stroke:#2E7D32!important;stroke-width:2px!important;color:#1B5E20!important;}#mermaid-1770211582386 .instance span{fill:#E8F5E9!important;stroke:#2E7D32!important;stroke-width:2px!important;color:#1B5E20!important;}#mermaid-1770211582386 .instance tspan{fill:#1B5E20!important;}#mermaid-1770211582386 .data&gt;*{fill:#FFF8E1!important;stroke:#F57F17!important;stroke-width:2px!important;color:#E65100!important;}#mermaid-1770211582386 .data span{fill:#FFF8E1!important;stroke:#F57F17!important;stroke-width:2px!important;color:#E65100!important;}#mermaid-1770211582386 .data tspan{fill:#E65100!important;}</style><g><marker id="mermaid-1770211582386_flowchart-v2-pointEnd" class="marker flowchart-v2" viewBox="0 0 10 10" refX="5" refY="5" markerUnits="userSpaceOnUse" markerWidth="8" markerHeight="8" orient="auto"><path d="M 0 0 L 10 5 L 0 10 z" class="arrowMarkerPath" style="stroke-width: 1; stroke-dasharray: 1, 0;"></path></marker><marker id="mermaid-1770211582386_flowchart-v2-pointStart" class="marker flowchart-v2" viewBox="0 0 10 10" refX="4.5" refY="5" markerUnits="userSpaceOnUse" markerWidth="8" markerHeight="8" orient="auto"><path d="M 0 5 L 10 10 L 10 0 z" class="arrowMarkerPath" style="stroke-width: 1; stroke-dasharray: 1, 0;"></path></marker><marker id="mermaid-1770211582386_flowchart-v2-circleEnd" class="marker flowchart-v2" viewBox="0 0 10 10" refX="11" refY="5" markerUnits="userSpaceOnUse" markerWidth="11" markerHeight="11" orient="auto"><circle cx="5" cy="5" r="5" class="arrowMarkerPath" style="stroke-width: 1; stroke-dasharray: 1, 0;"></circle></marker><marker id="mermaid-1770211582386_flowchart-v2-circleStart" class="marker flowchart-v2" viewBox="0 0 10 10" refX="-1" refY="5" markerUnits="userSpaceOnUse" markerWidth="11" markerHeight="11" orient="auto"><circle cx="5" cy="5" r="5" class="arrowMarkerPath" style="stroke-width: 1; stroke-dasharray: 1, 0;"></circle></marker><marker id="mermaid-1770211582386_flowchart-v2-crossEnd" class="marker cross flowchart-v2" viewBox="0 0 11 11" refX="12" refY="5.2" markerUnits="userSpaceOnUse" markerWidth="11" markerHeight="11" orient="auto"><path d="M 1,1 l 9,9 M 10,1 l -9,9" class="arrowMarkerPath" style="stroke-width: 2; stroke-dasharray: 1, 0;"></path></marker><marker id="mermaid-1770211582386_flowchart-v2-crossStart" class="marker cross flowchart-v2" viewBox="0 0 11 11" refX="-1" refY="5.2" markerUnits="userSpaceOnUse" markerWidth="11" markerHeight="11" orient="auto"><path d="M 1,1 l 9,9 M 10,1 l -9,9" class="arrowMarkerPath" style="stroke-width: 2; stroke-dasharray: 1, 0;"></path></marker></g><g class="subgraphs"><g class="subgraph"><g class="cluster" id="Storage" data-look="classic"><rect style="" x="530.09375" y="678.5" width="177.234375" height="129"></rect><g class="cluster-label" transform="translate(569.625, 678.5)"><foreignObject width="98.171875" height="24"><div xmlns="http://www.w3.org/1999/xhtml" style="display: table-cell; white-space: nowrap; line-height: 1.5; max-width: 200px; text-align: center;"><span class="nodeLabel"><p>Storage Layer</p></span></div></foreignObject></g></g></g><g class="subgraph"><g class="cluster" id="InstanceLayer" data-look="classic"><rect style="" x="12" y="678.5" width="483.09375" height="129"></rect><g class="cluster-label" transform="translate(153.546875, 678.5)"><foreignObject width="200" height="48"><div xmlns="http://www.w3.org/1999/xhtml" style="display: table; white-space: break-spaces; line-height: 1.5; max-width: 200px; text-align: center; width: 200px;"><span class="nodeLabel"><p>Instance (Running Graph DB)</p></span></div></foreignObject></g></g></g><g class="subgraph"><g class="cluster" id="SnapshotLayer" data-look="classic"><rect style="" x="373.11458333333337" y="364" width="329.0625" height="153"></rect><g class="cluster-label" transform="translate(437.64583333333337, 364)"><foreignObject width="200" height="48"><div xmlns="http://www.w3.org/1999/xhtml" style="display: table; white-space: break-spaces; line-height: 1.5; max-width: 200px; text-align: center; width: 200px;"><span class="nodeLabel"><p>Snapshot (Point-in-Time Data)</p></span></div></foreignObject></g></g></g><g class="subgraph"><g class="cluster" id="MappingLayer" data-look="classic"><rect style="" x="515.9739583333334" y="12" width="187.296875" height="243"></rect><g class="cluster-label" transform="translate(521.1770833333334, 12)"><foreignObject width="176.890625" height="24"><div xmlns="http://www.w3.org/1999/xhtml" style="display: table-cell; white-space: nowrap; line-height: 1.5; max-width: 200px; text-align: center;"><span class="nodeLabel"><p>Mapping (SQL Definition)</p></span></div></foreignObject></g></g></g></g><g class="nodes"><g class="node default data" id="flowchart-GCS-9" transform="translate(618.7109375, 756.5)"><rect class="basic label-container" style="fill:#FFF8E1 !important;stroke:#F57F17 !important;stroke-width:2px !important" x="-76.6171875" y="-39" width="153.234375" height="78"></rect><g class="label" style="color:#E65100 !important" transform="translate(-46.6171875, -24)"><rect></rect><foreignObject width="93.234375" height="48"><div style="color: rgb(230, 81, 0) !important; display: table-cell; white-space: nowrap; line-height: 1.5; max-width: 200px; text-align: center;" xmlns="http://www.w3.org/1999/xhtml"><span style="color:#E65100 !important" class="nodeLabel"><p>GCS<br/>Parquet Files</p></span></div></foreignObject></g></g><g class="node default instance" id="flowchart-I1-6" transform="translate(90.515625, 768.5)"><rect class="basic label-container" style="fill:#E8F5E9 !important;stroke:#2E7D32 !important;stroke-width:2px !important" x="-66.515625" y="-27" width="133.03125" height="54"></rect><g class="label" style="color:#1B5E20 !important" transform="translate(-36.515625, -12)"><rect></rect><foreignObject width="73.03125" height="24"><div style="color: rgb(27, 94, 32) !important; display: table-cell; white-space: nowrap; line-height: 1.5; max-width: 200px; text-align: center;" xmlns="http://www.w3.org/1999/xhtml"><span style="color:#1B5E20 !important" class="nodeLabel"><p>Instance 1</p></span></div></foreignObject></g></g><g class="node default instance" id="flowchart-I2-7" transform="translate(253.546875, 768.5)"><rect class="basic label-container" style="fill:#E8F5E9 !important;stroke:#2E7D32 !important;stroke-width:2px !important" x="-66.515625" y="-27" width="133.03125" height="54"></rect><g class="label" style="color:#1B5E20 !important" transform="translate(-36.515625, -12)"><rect></rect><foreignObject width="73.03125" height="24"><div style="color: rgb(27, 94, 32) !important; display: table-cell; white-space: nowrap; line-height: 1.5; max-width: 200px; text-align: center;" xmlns="http://www.w3.org/1999/xhtml"><span style="color:#1B5E20 !important" class="nodeLabel"><p>Instance 2</p></span></div></foreignObject></g></g><g class="node default instance" id="flowchart-I3-8" transform="translate(416.578125, 768.5)"><rect class="basic label-container" style="fill:#E8F5E9 !important;stroke:#2E7D32 !important;stroke-width:2px !important" x="-66.515625" y="-27" width="133.03125" height="54"></rect><g class="label" style="color:#1B5E20 !important" transform="translate(-36.515625, -12)"><rect></rect><foreignObject width="73.03125" height="24"><div style="color: rgb(27, 94, 32) !important; display: table-cell; white-space: nowrap; line-height: 1.5; max-width: 200px; text-align: center;" xmlns="http://www.w3.org/1999/xhtml"><span style="color:#1B5E20 !important" class="nodeLabel"><p>Instance 3</p></span></div></foreignObject></g></g><g class="node default snapshot" id="flowchart-S1-4" transform="translate(453.75520833333337, 466)"><rect class="basic label-container" style="fill:#E1F5FE !important;stroke:#0277BD !important;stroke-width:2px !important" x="-68.640625" y="-39" width="137.28125" height="78"></rect><g class="label" style="color:#01579B !important" transform="translate(-38.640625, -24)"><rect></rect><foreignObject width="77.28125" height="48"><div style="color: rgb(1, 87, 155) !important; display: table-cell; white-space: nowrap; line-height: 1.5; max-width: 200px; text-align: center;" xmlns="http://www.w3.org/1999/xhtml"><span style="color:#01579B !important" class="nodeLabel"><p>Snapshot A<br/>from v1</p></span></div></foreignObject></g></g><g class="node default snapshot" id="flowchart-S2-5" transform="translate(621.2864583333334, 466)"><rect class="basic label-container" style="fill:#E1F5FE !important;stroke:#0277BD !important;stroke-width:2px !important" x="-68.890625" y="-39" width="137.78125" height="78"></rect><g class="label" style="color:#01579B !important" transform="translate(-38.890625, -24)"><rect></rect><foreignObject width="77.78125" height="48"><div style="color: rgb(1, 87, 155) !important; display: table-cell; white-space: nowrap; line-height: 1.5; max-width: 200px; text-align: center;" xmlns="http://www.w3.org/1999/xhtml"><span style="color:#01579B !important" class="nodeLabel"><p>Snapshot B<br/>from v2</p></span></div></foreignObject></g></g><g class="node default mapping" id="flowchart-M1-0" transform="translate(597.9583333333334, 78)"><rect class="basic label-container" style="fill:#F3E5F5 !important;stroke:#7B1FA2 !important;stroke-width:2px !important" x="-69.984375" y="-27" width="139.96875" height="54"></rect><g class="label" style="color:#4A148C !important" transform="translate(-39.984375, -12)"><rect></rect><foreignObject width="79.96875" height="24"><div style="color: rgb(74, 20, 140) !important; display: table-cell; white-space: nowrap; line-height: 1.5; max-width: 200px; text-align: center;" xmlns="http://www.w3.org/1999/xhtml"><span style="color:#4A148C !important" class="nodeLabel"><p>Mapping v1</p></span></div></foreignObject></g></g><g class="node default mapping" id="flowchart-M2-1" transform="translate(621.2864583333334, 216)"><rect class="basic label-container" style="fill:#F3E5F5 !important;stroke:#7B1FA2 !important;stroke-width:2px !important" x="-69.984375" y="-27" width="139.96875" height="54"></rect><g class="label" style="color:#4A148C !important" transform="translate(-39.984375, -12)"><rect></rect><foreignObject width="79.96875" height="24"><div style="color: rgb(74, 20, 140) !important; display: table-cell; white-space: nowrap; line-height: 1.5; max-width: 200px; text-align: center;" xmlns="http://www.w3.org/1999/xhtml"><span style="color:#4A148C !important" class="nodeLabel"><p>Mapping v2</p></span></div></foreignObject></g></g></g><g class="edges edgePaths"><path d="M621.286,105L621.286,185" id="L_M1_M2_0_0" class="edge-thickness-normal edge-pattern-dotted edge-thickness-normal edge-pattern-solid flowchart-link" style=";" data-edge="true" data-et="edge" data-id="L_M1_M2_0_0" data-points="W3sieCI6NjIxLjI4NjQ1ODMzMzMzMzQsInkiOjEwNX0seyJ4Ijo2MjEuMjg2NDU4MzMzMzMzNCwieSI6MTg5fV0=" marker-end="url(#mermaid-1770211582386_flowchart-v2-pointEnd)"></path><path d="M574.63,105L574.63,106.667C574.63,108.333,574.63,111.667,574.268,113.805C573.906,115.943,573.182,116.886,572.349,117.719C571.516,118.552,570.573,119.276,565.214,119.638C559.854,120,550.078,120,544.719,120.362C539.359,120.724,538.416,121.448,537.583,122.281C536.75,123.114,536.026,124.057,535.664,147.445C535.302,170.833,535.302,216.667,535.302,241.667C535.302,266.667,535.302,270.833,535.302,273.75C535.302,276.667,535.302,278.333,534.469,279.167C533.635,280,531.969,280,531.81,280C531.651,280,533,280,532.841,280C532.682,280,531.016,280,530.182,280.833C529.349,281.667,529.349,283.333,529.349,292.333C529.349,301.333,529.349,317.667,528.987,326.305C528.625,334.943,527.901,335.886,527.068,336.719C526.235,337.552,525.292,338.276,513.888,338.638C502.484,339,480.62,339,469.216,339.362C457.812,339.724,456.87,340.448,456.036,341.281C455.203,342.114,454.479,343.057,454.117,345.612C453.755,348.167,453.755,352.333,453.755,365.5C453.755,378.667,453.755,400.833,453.755,411.917L453.755,423" id="L_M1_S1_0_0" class="edge-thickness-normal edge-pattern-solid edge-thickness-normal edge-pattern-solid flowchart-link" style=";" data-edge="true" data-et="edge" data-id="L_M1_S1_0_0" data-points="W3sieCI6NTc0LjYzMDIwODMzMzMzMzQsInkiOjEwNX0seyJ4Ijo1NzQuNjMwMjA4MzMzMzMzNCwieSI6MTIwfSx7IngiOjUzNS4zMDIwODMzMzMzMzM0LCJ5IjoxMjB9LHsieCI6NTM1LjMwMjA4MzMzMzMzMzQsInkiOjI2Mi41fSx7IngiOjUzNS4zMDIwODMzMzMzMzM0LCJ5IjoyODB9LHsieCI6NTI5LjM0ODk1ODMzMzMzMzQsInkiOjI4MH0seyJ4Ijo1MjkuMzQ4OTU4MzMzMzMzNCwieSI6MzM5fSx7IngiOjQ1My43NTUyMDgzMzMzMzMzNywieSI6MzM5fSx7IngiOjQ1My43NTUyMDgzMzMzMzMzNywieSI6MzU2LjV9LHsieCI6NDUzLjc1NTIwODMzMzMzMzM3LCJ5Ijo0Mjd9XQ==" marker-end="url(#mermaid-1770211582386_flowchart-v2-pointEnd)"></path><path d="M621.286,243L621.286,246.25C621.286,249.5,621.286,256,621.286,274.917C621.286,293.833,621.286,325.167,621.286,351.917C621.286,378.667,621.286,400.833,621.286,411.917L621.286,423" id="L_M2_S2_0_0" class="edge-thickness-normal edge-pattern-solid edge-thickness-normal edge-pattern-solid flowchart-link" style=";" data-edge="true" data-et="edge" data-id="L_M2_S2_0_0" data-points="W3sieCI6NjIxLjI4NjQ1ODMzMzMzMzQsInkiOjI0M30seyJ4Ijo2MjEuMjg2NDU4MzMzMzMzNCwieSI6MjYyLjV9LHsieCI6NjIxLjI4NjQ1ODMzMzMzMzQsInkiOjM1Ni41fSx7IngiOjYyMS4yODY0NTgzMzMzMzM0LCJ5Ijo0Mjd9XQ==" marker-end="url(#mermaid-1770211582386_flowchart-v2-pointEnd)"></path><path d="M419.435,505L419.435,508.25C419.435,511.5,419.435,518,419.435,523.333C419.435,528.667,419.435,532.833,419.073,535.388C418.711,537.943,417.987,538.886,417.154,539.719C416.321,540.552,415.378,541.276,364.941,541.638C314.503,542,214.572,542,164.135,542.362C113.698,542.724,112.755,543.448,111.922,544.281C111.088,545.114,110.364,546.057,110.003,560.529C109.641,575,109.641,603,109.279,617.471C108.917,631.943,108.193,632.886,107.36,633.719C106.526,634.552,105.583,635.276,103.591,635.638C101.599,636,98.557,636,96.565,636.362C94.573,636.724,93.63,637.448,92.797,638.281C91.963,639.114,91.239,640.057,90.878,645.529C90.516,651,90.516,661,90.516,677.083C90.516,693.167,90.516,715.333,90.516,726.417L90.516,737.5" id="L_S1_I1_0_0" class="edge-thickness-normal edge-pattern-solid edge-thickness-normal edge-pattern-solid flowchart-link" style=";" data-edge="true" data-et="edge" data-id="L_S1_I1_0_0" data-points="W3sieCI6NDE5LjQzNDg5NTgzMzMzMzM3LCJ5Ijo1MDV9LHsieCI6NDE5LjQzNDg5NTgzMzMzMzM3LCJ5Ijo1MjQuNX0seyJ4Ijo0MTkuNDM0ODk1ODMzMzMzMzcsInkiOjU0Mn0seyJ4IjoxMDkuNjQwNjI1LCJ5Ijo1NDJ9LHsieCI6MTA5LjY0MDYyNSwieSI6NjM2fSx7IngiOjkwLjUxNTYyNSwieSI6NjM2fSx7IngiOjkwLjUxNTYyNSwieSI6NjcxfSx7IngiOjkwLjUxNTYyNSwieSI6NzQxLjV9XQ==" marker-end="url(#mermaid-1770211582386_flowchart-v2-pointEnd)"></path><path d="M453.755,505L453.755,508.25C453.755,511.5,453.755,518,453.755,526.25C453.755,534.5,453.755,544.5,453.393,549.971C453.031,555.443,452.307,556.386,451.474,557.219C450.641,558.052,449.698,558.776,417.525,559.138C385.352,559.5,321.95,559.5,289.777,559.862C257.604,560.224,256.661,560.948,255.828,561.781C254.995,562.614,254.271,563.557,253.909,581.779C253.547,600,253.547,635.5,253.547,664.333C253.547,693.167,253.547,715.333,253.547,726.417L253.547,737.5" id="L_S1_I2_0_0" class="edge-thickness-normal edge-pattern-solid edge-thickness-normal edge-pattern-solid flowchart-link" style=";" data-edge="true" data-et="edge" data-id="L_S1_I2_0_0" data-points="W3sieCI6NDUzLjc1NTIwODMzMzMzMzM3LCJ5Ijo1MDV9LHsieCI6NDUzLjc1NTIwODMzMzMzMzM3LCJ5Ijo1MjQuNX0seyJ4Ijo0NTMuNzU1MjA4MzMzMzMzMzcsInkiOjU1OS41fSx7IngiOjI1My41NDY4NzUsInkiOjU1OS41fSx7IngiOjI1My41NDY4NzUsInkiOjY3MX0seyJ4IjoyNTMuNTQ2ODc1LCJ5Ijo3NDEuNX1d" marker-end="url(#mermaid-1770211582386_flowchart-v2-pointEnd)"></path><path d="M598.323,505L598.323,508.25C598.323,511.5,598.323,518,598.323,523.333C598.323,528.667,598.323,532.833,597.961,535.388C597.599,537.943,596.875,538.886,596.042,539.719C595.209,540.552,594.266,541.276,583.048,541.638C571.83,542,550.337,542,539.119,542.362C527.901,542.724,526.958,543.448,526.125,544.281C525.291,545.114,524.568,546.057,524.206,560.529C523.844,575,523.844,603,523.482,617.471C523.12,631.943,522.396,632.886,521.563,633.719C520.729,634.552,519.787,635.276,503.104,635.638C486.422,636,454,636,437.318,636.362C420.635,636.724,419.693,637.448,418.859,638.281C418.026,639.114,417.302,640.057,416.94,645.529C416.578,651,416.578,661,416.578,677.083C416.578,693.167,416.578,715.333,416.578,726.417L416.578,737.5" id="L_S2_I3_0_0" class="edge-thickness-normal edge-pattern-solid edge-thickness-normal edge-pattern-solid flowchart-link" style=";" data-edge="true" data-et="edge" data-id="L_S2_I3_0_0" data-points="W3sieCI6NTk4LjMyMjkxNjY2NjY2NjcsInkiOjUwNX0seyJ4Ijo1OTguMzIyOTE2NjY2NjY2NywieSI6NTI0LjV9LHsieCI6NTk4LjMyMjkxNjY2NjY2NjcsInkiOjU0Mn0seyJ4Ijo1MjMuODQzNzUsInkiOjU0Mn0seyJ4Ijo1MjMuODQzNzUsInkiOjYzNn0seyJ4Ijo0MTYuNTc4MTI1LCJ5Ijo2MzZ9LHsieCI6NDE2LjU3ODEyNSwieSI6NjcxfSx7IngiOjQxNi41NzgxMjUsInkiOjc0MS41fV0=" marker-end="url(#mermaid-1770211582386_flowchart-v2-pointEnd)"></path><path d="M488.076,505L488.076,508.25C488.076,511.5,488.076,518,488.076,529.167C488.076,540.333,488.076,556.167,487.714,564.555C487.352,572.943,486.628,573.886,485.794,574.719C484.961,575.552,484.018,576.276,471.055,576.638C458.092,577,433.109,577,420.145,577.362C407.182,577.724,406.239,578.448,405.406,579.281C404.573,580.114,403.849,581.057,403.487,592.612C403.125,604.167,403.125,626.333,403.487,637.888C403.849,649.443,404.573,650.386,405.406,651.219C406.239,652.052,407.182,652.776,437.661,653.138C468.141,653.5,528.156,653.5,558.635,653.862C589.115,654.224,590.057,654.948,590.891,655.781C591.724,656.614,592.448,657.557,592.81,660.112C593.172,662.667,593.172,666.833,593.172,676C593.172,685.167,593.172,699.333,593.172,706.417L593.172,713.5" id="L_S1_GCS_0_0" class="edge-thickness-normal edge-pattern-dotted edge-thickness-normal edge-pattern-solid flowchart-link" style=";" data-edge="true" data-et="edge" data-id="L_S1_GCS_0_0" data-points="W3sieCI6NDg4LjA3NTUyMDgzMzMzMzM3LCJ5Ijo1MDV9LHsieCI6NDg4LjA3NTUyMDgzMzMzMzM3LCJ5Ijo1MjQuNX0seyJ4Ijo0ODguMDc1NTIwODMzMzMzMzcsInkiOjU3N30seyJ4Ijo0MDMuMTI1LCJ5Ijo1Nzd9LHsieCI6NDAzLjEyNSwieSI6NjUzLjV9LHsieCI6NTkzLjE3MTg3NSwieSI6NjUzLjV9LHsieCI6NTkzLjE3MTg3NSwieSI6NjcxfSx7IngiOjU5My4xNzE4NzUsInkiOjcxNy41fV0=" marker-end="url(#mermaid-1770211582386_flowchart-v2-pointEnd)"></path><path d="M644.25,505L644.25,508.25C644.25,511.5,644.25,518,644.25,545.667C644.25,573.333,644.25,622.167,644.25,653.667C644.25,685.167,644.25,699.333,644.25,706.417L644.25,713.5" id="L_S2_GCS_0_0" class="edge-thickness-normal edge-pattern-dotted edge-thickness-normal edge-pattern-solid flowchart-link" style=";" data-edge="true" data-et="edge" data-id="L_S2_GCS_0_0" data-points="W3sieCI6NjQ0LjI1LCJ5Ijo1MDV9LHsieCI6NjQ0LjI1LCJ5Ijo1MjQuNX0seyJ4Ijo2NDQuMjUsInkiOjY3MX0seyJ4Ijo2NDQuMjUsInkiOjcxNy41fV0=" marker-end="url(#mermaid-1770211582386_flowchart-v2-pointEnd)"></path></g><g class="edgeLabels"><g class="edgeLabel" transform="translate(621.1848958333334, 147)"><g class="label" data-id="L_M1_M2_0_0" transform="translate(-30.8984375, -12)"><foreignObject width="61.796875" height="24"><div xmlns="http://www.w3.org/1999/xhtml" class="labelBkg" style="display: table-cell; white-space: nowrap; line-height: 1.5; max-width: 200px; text-align: center;"><span class="edgeLabel"><p>update()</p></span></div></foreignObject></g></g><g class="edgeLabel" transform="translate(529.0677083333334, 309.5)"><g class="label" data-id="L_M1_S1_0_0" transform="translate(-37.21875, -12)"><foreignObject width="74.4375" height="24"><div xmlns="http://www.w3.org/1999/xhtml" class="labelBkg" style="display: table-cell; white-space: nowrap; line-height: 1.5; max-width: 200px; text-align: center;"><span class="edgeLabel"><p>snapshot()</p></span></div></foreignObject></g></g><g class="edgeLabel" transform="translate(621.0052083333334, 309.5)"><g class="label" data-id="L_M2_S2_0_0" transform="translate(-37.21875, -12)"><foreignObject width="74.4375" height="24"><div xmlns="http://www.w3.org/1999/xhtml" class="labelBkg" style="display: table-cell; white-space: nowrap; line-height: 1.5; max-width: 200px; text-align: center;"><span class="edgeLabel"><p>snapshot()</p></span></div></foreignObject></g></g><g class="edgeLabel" transform="translate(109.34375, 606.5)"><g class="label" data-id="L_S1_I1_0_0" transform="translate(-63.203125, -12)"><foreignObject width="126.40625" height="24"><div xmlns="http://www.w3.org/1999/xhtml" class="labelBkg" style="display: table-cell; white-space: nowrap; line-height: 1.5; max-width: 200px; text-align: center;"><span class="edgeLabel"><p>create_instance()</p></span></div></foreignObject></g></g><g class="edgeLabel" transform="translate(253.25, 606.5)"><g class="label" data-id="L_S1_I2_0_0" transform="translate(-63.203125, -12)"><foreignObject width="126.40625" height="24"><div xmlns="http://www.w3.org/1999/xhtml" class="labelBkg" style="display: table-cell; white-space: nowrap; line-height: 1.5; max-width: 200px; text-align: center;"><span class="edgeLabel"><p>create_instance()</p></span></div></foreignObject></g></g><g class="edgeLabel" transform="translate(523.546875, 606.5)"><g class="label" data-id="L_S2_I3_0_0" transform="translate(-63.203125, -12)"><foreignObject width="126.40625" height="24"><div xmlns="http://www.w3.org/1999/xhtml" class="labelBkg" style="display: table-cell; white-space: nowrap; line-height: 1.5; max-width: 200px; text-align: center;"><span class="edgeLabel"><p>create_instance()</p></span></div></foreignObject></g></g><g class="edgeLabel" transform="translate(402.984375, 606.5)"><g class="label" data-id="L_S1_GCS_0_0" transform="translate(-39.859375, -12)"><foreignObject width="79.71875" height="24"><div xmlns="http://www.w3.org/1999/xhtml" class="labelBkg" style="display: table-cell; white-space: nowrap; line-height: 1.5; max-width: 200px; text-align: center;"><span class="edgeLabel"><p>stores data</p></span></div></foreignObject></g></g><g class="edgeLabel" transform="translate(644.109375, 606.5)"><g class="label" data-id="L_S2_GCS_0_0" transform="translate(-39.859375, -12)"><foreignObject width="79.71875" height="24"><div xmlns="http://www.w3.org/1999/xhtml" class="labelBkg" style="display: table-cell; white-space: nowrap; line-height: 1.5; max-width: 200px; text-align: center;"><span class="edgeLabel"><p>stores data</p></span></div></foreignObject></g></g></g></svg>