<svg id="mermaid-1770215487952" width="100%" xmlns="http://www.w3.org/2000/svg" xmlns:xlink="http://www.w3.org/1999/xlink" class="flowchart" style="max-width: 1073px;" viewBox="-8 -8 1073 969" role="graphics-document document" aria-roledescription="flowchart-v2" aria-describedby="chart-desc-mermaid-1770215487952" aria-labelledby="chart-title-mermaid-1770215487952" height="auto"><title id="chart-title-mermaid-1770215487952">Bulk Delete Safety Mechanisms</title><desc id="chart-desc-mermaid-1770215487952">Shows the four safety mechanisms that protect against accidental bulk deletions</desc><style>#mermaid-1770215487952{font-family:"trebuchet ms",verdana,arial,sans-serif;font-size:16px;fill:#333;}@keyframes edge-animation-frame{from{stroke-dashoffset:0;}}@keyframes dash{to{stroke-dashoffset:0;}}#mermaid-1770215487952 .edge-animation-slow{stroke-dasharray:9,5!important;stroke-dashoffset:900;animation:dash 50s linear infinite;stroke-linecap:round;}#mermaid-1770215487952 .edge-animation-fast{stroke-dasharray:9,5!important;stroke-dashoffset:900;animation:dash 20s linear infinite;stroke-linecap:round;}#mermaid-1770215487952 .error-icon{fill:#552222;}#mermaid-1770215487952 .error-text{fill:#552222;stroke:#552222;}#mermaid-1770215487952 .edge-thickness-normal{stroke-width:1px;}#mermaid-1770215487952 .edge-thickness-thick{stroke-width:3.5px;}#mermaid-1770215487952 .edge-pattern-solid{stroke-dasharray:0;}#mermaid-1770215487952 .edge-thickness-invisible{stroke-width:0;fill:none;}#mermaid-1770215487952 .edge-pattern-dashed{stroke-dasharray:3;}#mermaid-1770215487952 .edge-pattern-dotted{stroke-dasharray:2;}#mermaid-1770215487952 .marker{fill:#333333;stroke:#333333;}#mermaid-1770215487952 .marker.cross{stroke:#333333;}#mermaid-1770215487952 svg{font-family:"trebuchet ms",verdana,arial,sans-serif;font-size:16px;}#mermaid-1770215487952 p{margin:0;}#mermaid-1770215487952 .label{font-family:"trebuchet ms",verdana,arial,sans-serif;color:#333;}#mermaid-1770215487952 .cluster-label text{fill:#333;}#mermaid-1770215487952 .cluster-label span{color:#333;}#mermaid-1770215487952 .cluster-label span p{background-color:transparent;}#mermaid-1770215487952 .label text,#mermaid-1770215487952 span{fill:#333;color:#333;}#mermaid-1770215487952 .node rect,#mermaid-1770215487952 .node circle,#mermaid-1770215487952 .node ellipse,#mermaid-1770215487952 .node polygon,#mermaid-1770215487952 .node path{fill:#ECECFF;stroke:#9370DB;stroke-width:1px;}#mermaid-1770215487952 .rough-node .label text,#mermaid-1770215487952 .node .label text,#mermaid-1770215487952 .image-shape .label,#mermaid-1770215487952 .icon-shape .label{text-anchor:middle;}#mermaid-1770215487952 .node .katex path{fill:#000;stroke:#000;stroke-width:1px;}#mermaid-1770215487952 .rough-node .label,#mermaid-1770215487952 .node .label,#mermaid-1770215487952 .image-shape .label,#mermaid-1770215487952 .icon-shape .label{text-align:center;}#mermaid-1770215487952 .node.clickable{cursor:pointer;}#mermaid-1770215487952 .root .anchor path{fill:#333333!important;stroke-width:0;stroke:#333333;}#mermaid-1770215487952 .arrowheadPath{fill:#333333;}#mermaid-1770215487952 .edgePath .path{stroke:#333333;stroke-width:2.0px;}#mermaid-1770215487952 .flowchart-link{stroke:#333333;fill:none;}#mermaid-1770215487952 .edgeLabel{background-color:rgba(232,232,232, 0.8);text-align:center;}#mermaid-1770215487952 .edgeLabel p{background-color:rgba(232,232,232, 0.8);}#mermaid-1770215487952 .edgeLabel rect{opacity:0.5;background-color:rgba(232,232,232, 0.8);fill:rgba(232,232,232, 0.8);}#mermaid-1770215487952 .labelBkg{background-color:rgba(232, 232, 232, 0.5);}#mermaid-1770215487952 .cluster rect{fill:#ffffde;stroke:#aaaa33;stroke-width:1px;}#mermaid-1770215487952 .cluster text{fill:#333;}#mermaid-1770215487952 .cluster span{color:#333;}#mermaid-1770215487952 div.mermaidTooltip{position:absolute;text-align:center;max-width:200px;padding:2px;font-family:"trebuchet ms",verdana,arial,sans-serif;font-size:12px;background:hsl(80, 100%, 96.2745098039%);border:1px solid #aaaa33;border-radius:2px;pointer-events:none;z-index:100;}#mermaid-1770215487952 .flowchartTitleText{text-anchor:middle;font-size:18px;fill:#333;}#mermaid-1770215487952 rect.text{fill:none;stroke-width:0;}#mermaid-1770215487952 .icon-shape,#mermaid-1770215487952 .image-shape{background-color:rgba(232,232,232, 0.8);text-align:center;}#mermaid-1770215487952 .icon-shape p,#mermaid-1770215487952 .image-shape p{background-color:rgba(232,232,232, 0.8);padding:2px;}#mermaid-1770215487952 .icon-shape rect,#mermaid-1770215487952 .image-shape rect{opacity:0.5;background-color:rgba(232,232,232, 0.8);fill:rgba(232,232,232, 0.8);}#mermaid-1770215487952 .label-icon{display:inline-block;height:1em;overflow:visible;vertical-align:-0.125em;}#mermaid-1770215487952 .node .label-icon path{fill:currentColor;stroke:revert;stroke-width:revert;}#mermaid-1770215487952 :root{--mermaid-font-family:"trebuchet ms",verdana,arial,sans-serif;}#mermaid-1770215487952 .safety&gt;*{fill:#E8F5E9!important;stroke:#2E7D32!important;stroke-width:2px!important;color:#1B5E20!important;}#mermaid-1770215487952 .safety span{fill:#E8F5E9!important;stroke:#2E7D32!important;stroke-width:2px!important;color:#1B5E20!important;}#mermaid-1770215487952 .safety tspan{fill:#1B5E20!important;}#mermaid-1770215487952 .danger&gt;*{fill:#FFCDD2!important;stroke:#C62828!important;stroke-width:2px!important;color:#B71C1C!important;}#mermaid-1770215487952 .danger span{fill:#FFCDD2!important;stroke:#C62828!important;stroke-width:2px!important;color:#B71C1C!important;}#mermaid-1770215487952 .danger tspan{fill:#B71C1C!important;}#mermaid-1770215487952 .info&gt;*{fill:#E3F2FD!important;stroke:#1565C0!important;stroke-width:2px!important;color:#0D47A1!important;}#mermaid-1770215487952 .info span{fill:#E3F2FD!important;stroke:#1565C0!important;stroke-width:2px!important;color:#0D47A1!important;}#mermaid-1770215487952 .info tspan{fill:#0D47A1!important;}</style><g><marker id="mermaid-1770215487952_flowchart-v2-pointEnd" class="marker flowchart-v2" viewBox="0 0 10 10" refX="5" refY="5" markerUnits="userSpaceOnUse" markerWidth="8" markerHeight="8" orient="auto"><path d="M 0 0 L 10 5 L 0 10 z" class="arrowMarkerPath" style="stroke-width: 1; stroke-dasharray: 1, 0;"></path></marker><marker id="mermaid-1770215487952_flowchart-v2-pointStart" class="marker flowchart-v2" viewBox="0 0 10 10" refX="4.5" refY="5" markerUnits="userSpaceOnUse" markerWidth="8" markerHeight="8" orient="auto"><path d="M 0 5 L 10 10 L 10 0 z" class="arrowMarkerPath" style="stroke-width: 1; stroke-dasharray: 1, 0;"></path></marker><marker id="mermaid-1770215487952_flowchart-v2-circleEnd" class="marker flowchart-v2" viewBox="0 0 10 10" refX="11" refY="5" markerUnits="userSpaceOnUse" markerWidth="11" markerHeight="11" orient="auto"><circle cx="5" cy="5" r="5" class="arrowMarkerPath" style="stroke-width: 1; stroke-dasharray: 1, 0;"></circle></marker><marker id="mermaid-1770215487952_flowchart-v2-circleStart" class="marker flowchart-v2" viewBox="0 0 10 10" refX="-1" refY="5" markerUnits="userSpaceOnUse" markerWidth="11" markerHeight="11" orient="auto"><circle cx="5" cy="5" r="5" class="arrowMarkerPath" style="stroke-width: 1; stroke-dasharray: 1, 0;"></circle></marker><marker id="mermaid-1770215487952_flowchart-v2-crossEnd" class="marker cross flowchart-v2" viewBox="0 0 11 11" refX="12" refY="5.2" markerUnits="userSpaceOnUse" markerWidth="11" markerHeight="11" orient="auto"><path d="M 1,1 l 9,9 M 10,1 l -9,9" class="arrowMarkerPath" style="stroke-width: 2; stroke-dasharray: 1, 0;"></path></marker><marker id="mermaid-1770215487952_flowchart-v2-crossStart" class="marker cross flowchart-v2" viewBox="0 0 11 11" refX="-1" refY="5.2" markerUnits="userSpaceOnUse" markerWidth="11" markerHeight="11" orient="auto"><path d="M 1,1 l 9,9 M 10,1 l -9,9" class="arrowMarkerPath" style="stroke-width: 2; stroke-dasharray: 1, 0;"></path></marker></g><g class="subgraphs"><g class="subgraph"><g class="cluster" id="SafetyMechanisms" data-look="classic"><rect style="" x="41.158854166666686" y="93.5" width="357.01822916666663" height="615"></rect><g class="cluster-label" transform="translate(134.04296875, 93.5)"><foreignObject width="171.25" height="24"><div xmlns="http://www.w3.org/1999/xhtml" style="display: table-cell; white-space: nowrap; line-height: 1.5; max-width: 200px; text-align: center;"><span class="nodeLabel"><p>Four Safety Mechanisms</p></span></div></foreignObject></g></g></g></g><g class="nodes"><g class="node default safety" id="flowchart-S1-0" transform="translate(166.63541666666669, 171.5)"><rect class="basic label-container" style="fill:#E8F5E9 !important;stroke:#2E7D32 !important;stroke-width:2px !important" x="-113.4765625" y="-39" width="226.953125" height="78"></rect><g class="label" style="color:#1B5E20 !important" transform="translate(-83.4765625, -24)"><rect></rect><foreignObject width="166.953125" height="48"><div style="color: rgb(27, 94, 32) !important; display: table-cell; white-space: nowrap; line-height: 1.5; max-width: 200px; text-align: center;" xmlns="http://www.w3.org/1999/xhtml"><span style="color:#1B5E20 !important" class="nodeLabel">1. Admin Role Required<br/>403 for non-admins</span></div></foreignObject></g></g><g class="node default safety" id="flowchart-S2-1" transform="translate(204.4609375, 333.5)"><rect class="basic label-container" style="fill:#E8F5E9 !important;stroke:#2E7D32 !important;stroke-width:2px !important" x="-95.4765625" y="-39" width="190.953125" height="78"></rect><g class="label" style="color:#1B5E20 !important" transform="translate(-65.4765625, -24)"><rect></rect><foreignObject width="130.953125" height="48"><div style="color: rgb(27, 94, 32) !important; display: table-cell; white-space: nowrap; line-height: 1.5; max-width: 200px; text-align: center;" xmlns="http://www.w3.org/1999/xhtml"><span style="color:#1B5E20 !important" class="nodeLabel">2. Filter Required<br/>Cannot delete ALL</span></div></foreignObject></g></g><g class="node default safety" id="flowchart-S3-2" transform="translate(236.28645833333331, 495.5)"><rect class="basic label-container" style="fill:#E8F5E9 !important;stroke:#2E7D32 !important;stroke-width:2px !important" x="-109.6875" y="-39" width="219.375" height="78"></rect><g class="label" style="color:#1B5E20 !important" transform="translate(-79.6875, -24)"><rect></rect><foreignObject width="159.375" height="48"><div style="color: rgb(27, 94, 32) !important; display: table-cell; white-space: nowrap; line-height: 1.5; max-width: 200px; text-align: center;" xmlns="http://www.w3.org/1999/xhtml"><span style="color:#1B5E20 !important" class="nodeLabel">3. Expected Count<br/>Validates match count</span></div></foreignObject></g></g><g class="node default safety" id="flowchart-S4-3" transform="translate(272.8489583333333, 657.5)"><rect class="basic label-container" style="fill:#E8F5E9 !important;stroke:#2E7D32 !important;stroke-width:2px !important" x="-113.328125" y="-39" width="226.65625" height="78"></rect><g class="label" style="color:#1B5E20 !important" transform="translate(-83.328125, -24)"><rect></rect><foreignObject width="166.65625" height="48"><div style="color: rgb(27, 94, 32) !important; display: table-cell; white-space: nowrap; line-height: 1.5; max-width: 200px; text-align: center;" xmlns="http://www.w3.org/1999/xhtml"><span style="color:#1B5E20 !important" class="nodeLabel">4. Max 100 Limit<br/>Hard cap per operation</span></div></foreignObject></g></g><g class="node default info" id="flowchart-REQ-4" transform="translate(166.63541666666669, 31.5)"><g class="basic label-container outer-path"><path d="M-64.8125 -19.5 C-19.006592112524935 -19.5, 26.79931577495013 -19.5, 64.8125 -19.5 C64.8125 -19.5, 64.8125 -19.5, 64.8125 -19.5 C65.22453963860394 -19.486786690776476, 65.63657927720789 -19.47357338155295, 66.0618692896239 -19.45993515863156 C66.55552949931824 -19.41231235191561, 67.04918970901258 -19.364689545199663, 67.30610465284786 -19.3399052695533 C67.78110185826299 -19.263111405040124, 68.25609906367812 -19.186317540526954, 68.54009325967675 -19.140403561325776 C68.93512076570596 -19.050241110869994, 69.33014827173515 -18.96007866041421, 69.75876438623538 -18.862249829261074 C70.13159497614437 -18.75159566720379, 70.50442556605337 -18.640941505146504, 70.9571102514606 -18.50658706670804 C71.42196881671737 -18.335514817588077, 71.88682738197413 -18.164442568468118, 72.1302065951478 -18.074876768247425 C72.46308352654377 -17.92752202516176, 72.79596045793973 -17.780167282076093, 73.27323291279238 -17.568892924097174 C73.55897277295185 -17.4198226220771, 73.8447126331113 -17.270752320057024, 74.38149226407678 -16.990714730406097 C74.75332574651772 -16.765307088214318, 75.12515922895864 -16.539899446022535, 75.4504305736057 -16.342718045390892 C75.68980195527531 -16.17574293175827, 75.92917333694494 -16.008767818125644, 76.47565534457871 -15.627565626425154 C76.81842984833541 -15.354212081291813, 77.16120435209211 -15.08085853615847, 77.45295370850187 -14.848196188198123 C77.67177585162133 -14.649467707533669, 77.89059799474079 -14.450739226869214, 78.37830973676799 -14.007812326905688 C78.70486366442798 -13.670618586020675, 79.03141759208798 -13.333424845135662, 79.24792094296865 -13.10986736009568 C79.56712117254327 -12.734916607429739, 79.88632140211787 -12.359965854763795, 80.05821390812658 -12.158051136245305 C80.34902516321239 -11.76839054788067, 80.63983641829822 -11.378729959516036, 80.80585896464063 -11.156274872382312 C80.97396484224136 -10.898019101638887, 81.14207071984208 -10.639763330895462, 81.48778387860425 -10.108655082055241 C81.71704735736664 -9.70157456006799, 81.94631083612904 -9.294494038080739, 82.1011864742735 -9.019496659696287 C82.28050761293724 -8.647132478403313, 82.45982875160098 -8.274768297110338, 82.64354614880834 -7.893275190886684 C82.75124172298072 -7.6272650405286315, 82.85893729715309 -7.36125489017058, 83.11263422997033 -6.734618561215508 C83.21376061542576 -6.430042000525203, 83.31488700088117 -6.1254654398348976, 83.50652313421489 -5.548287939305138 C83.63043063573355 -5.075774934163618, 83.7543381372522 -4.603261929022097, 83.82359428754556 -4.339158212148133 C83.87960913563248 -4.051533805964156, 83.9356239837194 -3.7639093997801796, 84.06254477658177 -3.1121979531509023 C84.0962771715607 -2.850576158909165, 84.13000956653963 -2.588954364667428, 84.22239270250937 -1.872449005199798 C84.24309583765681 -1.5499809640084234, 84.26379897280425 -1.2275129228170487, 84.30248121591342 -0.6250057626472757 C84.30248121591342 -0.2623054123333933, 84.30248121591342 0.10039493798048915, 84.30248121591342 0.625005762647271 C84.27560938945626 1.043556150265239, 84.24873756299912 1.4621065378832072, 84.22239270250937 1.8724490051997846 C84.16562294277195 2.31274405126613, 84.10885318303454 2.7530390973324748, 84.06254477658177 3.1121979531508885 C84.00217607568264 3.422178473338513, 83.9418073747835 3.7321589935261374, 83.82359428754556 4.339158212148129 C83.74769979163419 4.628576817940762, 83.67180529572283 4.9179954237333945, 83.50652313421489 5.548287939305125 C83.42178400356332 5.803508699480706, 83.33704487291175 6.058729459656286, 83.11263422997033 6.734618561215495 C82.94678470158028 7.144270102821391, 82.78093517319024 7.5539216444272865, 82.64354614880834 7.893275190886679 C82.47363694420588 8.246095289718287, 82.30372773960342 8.598915388549896, 82.1011864742735 9.019496659696284 C81.86109609304214 9.445801443359954, 81.62100571181077 9.872106227023627, 81.48778387860425 10.108655082055236 C81.29553552321383 10.404000181846644, 81.10328716782342 10.699345281638053, 80.80585896464065 11.156274872382301 C80.63525275124218 11.384871655790468, 80.46464653784372 11.613468439198634, 80.05821390812659 12.158051136245302 C79.89374527068739 12.351245356311965, 79.7292766332482 12.544439576378629, 79.24792094296866 13.10986736009567 C79.00793717683158 13.35767030166584, 78.76795341069449 13.60547324323601, 78.37830973676799 14.007812326905684 C78.01011542745334 14.342196656737666, 77.6419211181387 14.676580986569649, 77.4529537085019 14.848196188198111 C77.10610068855347 15.124802241460472, 76.75924766860506 15.401408294722833, 76.47565534457871 15.627565626425152 C76.12508402262735 15.87210900463049, 75.77451270067598 16.116652382835827, 75.4504305736057 16.34271804539089 C75.2292703861295 16.47678665072049, 75.00811019865328 16.61085525605009, 74.38149226407678 16.990714730406093 C73.96813977139888 17.20636046107125, 73.55478727872098 17.4220061917364, 73.27323291279238 17.56889292409717 C72.97725421266883 17.69991391474568, 72.68127551254527 17.830934905394187, 72.1302065951478 18.07487676824742 C71.8567853256853 18.175498322888128, 71.5833640562228 18.276119877528835, 70.95711025146062 18.506587066708033 C70.48733107736348 18.64601505965886, 70.01755190326634 18.785443052609686, 69.75876438623541 18.86224982926107 C69.47291195666836 18.92749378094832, 69.1870595271013 18.99273773263557, 68.54009325967677 19.140403561325773 C68.10650098242812 19.210503398153005, 67.67290870517945 19.280603234980237, 67.30610465284788 19.3399052695533 C66.98596471038347 19.370788784778227, 66.66582476791905 19.40167230000316, 66.0618692896239 19.45993515863156 C65.58477881845623 19.47523452144164, 65.10768834728854 19.490533884251718, 64.8125 19.5 C64.8125 19.5, 64.8125 19.5, 64.8125 19.5 C13.077461858154315 19.5, -38.65757628369137 19.5, -64.8125 19.5 C-65.12701899518879 19.48991398799838, -65.44153799037757 19.479827975996763, -66.0618692896239 19.45993515863156 C-66.47104143850027 19.42046281353096, -66.88021358737663 19.380990468430365, -67.30610465284786 19.3399052695533 C-67.63084524992108 19.28740372821944, -67.95558584699431 19.234902186885588, -68.54009325967675 19.140403561325773 C-68.78768743301235 19.0838918069649, -69.03528160634794 19.027380052604027, -69.75876438623538 18.862249829261074 C-70.15231890251631 18.745444914638707, -70.54587341879724 18.62864000001634, -70.95711025146059 18.506587066708043 C-71.32203774124797 18.37229037711355, -71.68696523103536 18.237993687519058, -72.1302065951478 18.074876768247425 C-72.57363350031557 17.878584831121437, -73.01706040548335 17.682292893995452, -73.27323291279238 17.568892924097174 C-73.68783117921461 17.352597274067563, -74.10242944563684 17.13630162403795, -74.38149226407678 16.990714730406097 C-74.63400207431712 16.837641799526047, -74.88651188455746 16.684568868645993, -75.45043057360569 16.3427180453909 C-75.7299119457455 16.147763938739775, -76.0093933178853 15.952809832088652, -76.47565534457871 15.627565626425156 C-76.70526901917596 15.444454831210352, -76.93488269377319 15.261344035995547, -77.45295370850187 14.848196188198125 C-77.74140107574082 14.586235921170825, -78.02984844297978 14.324275654143527, -78.37830973676797 14.007812326905697 C-78.66070099206422 13.71622017105909, -78.94309224736045 13.424628015212484, -79.24792094296865 13.109867360095677 C-79.47761197498443 12.840059204099973, -79.7073030070002 12.570251048104268, -80.05821390812658 12.158051136245307 C-80.30429512520513 11.828324723820112, -80.55037634228368 11.498598311394916, -80.80585896464063 11.156274872382316 C-81.03251435705654 10.808071324136641, -81.25916974947246 10.459867775890967, -81.48778387860425 10.108655082055249 C-81.6845508281071 9.759275438398705, -81.88131777760998 9.40989579474216, -82.1011864742735 9.019496659696289 C-82.28039355341984 8.647369325431672, -82.4596006325662 8.275241991167054, -82.64354614880834 7.893275190886686 C-82.78180254572825 7.551779217488922, -82.92005894264815 7.2102832440911575, -83.11263422997033 6.73461856121551 C-83.26461828542443 6.276866801558474, -83.41660234087854 5.819115041901438, -83.50652313421489 5.5482879393051325 C-83.57861794694199 5.2733591722871935, -83.65071275966909 4.998430405269255, -83.82359428754556 4.339158212148136 C-83.88646826659037 4.0163136181732435, -83.94934224563517 3.6934690241983503, -84.06254477658177 3.112197953150904 C-84.11453848347408 2.708945029812958, -84.16653219036638 2.3056921064750115, -84.22239270250937 1.872449005199809 C-84.24101051540484 1.5824615413248795, -84.2596283283003 1.29247407744995, -84.30248121591342 0.6250057626472781 C-84.30248121591342 0.20838453133034118, -84.30248121591342 -0.20823669998659577, -84.30248121591342 -0.6250057626472687 C-84.28497618111092 -0.8976608095060259, -84.26747114630841 -1.170315856364783, -84.22239270250937 -1.8724490051997822 C-84.16705294438233 -2.3016532411617505, -84.1117131862553 -2.730857477123719, -84.06254477658177 -3.112197953150895 C-84.00949283766523 -3.384608446956032, -83.95644089874871 -3.6570189407611684, -83.82359428754556 -4.339158212148126 C-83.70690736336364 -4.784136026486621, -83.59022043918173 -5.229113840825115, -83.50652313421489 -5.548287939305123 C-83.41574531233562 -5.821696275323749, -83.32496749045634 -6.095104611342374, -83.11263422997033 -6.734618561215485 C-82.93577119853056 -7.171473668285799, -82.7589081670908 -7.608328775356112, -82.64354614880834 -7.893275190886676 C-82.4902135983521 -8.211673512700077, -82.33688104789586 -8.530071834513477, -82.1011864742735 -9.019496659696282 C-81.89053297228824 -9.393533283451248, -81.67987947030298 -9.767569907206214, -81.48778387860425 -10.108655082055243 C-81.32365345032461 -10.360803495083863, -81.15952302204498 -10.612951908112482, -80.80585896464063 -11.156274872382308 C-80.62331459749349 -11.400867694225518, -80.44077023034636 -11.645460516068727, -80.05821390812659 -12.158051136245302 C-79.82799985742005 -12.428473659755781, -79.59778580671352 -12.69889618326626, -79.24792094296866 -13.10986736009567 C-78.91493797882795 -13.453699608980738, -78.58195501468722 -13.797531857865804, -78.37830973676799 -14.007812326905677 C-78.18931674302982 -14.17945076333809, -78.00032374929165 -14.351089199770504, -77.4529537085019 -14.848196188198107 C-77.15485299787049 -15.085923572133582, -76.85675228723909 -15.323650956069057, -76.47565534457871 -15.627565626425149 C-76.16663728997959 -15.84312324413752, -75.85761923538047 -16.05868086184989, -75.45043057360571 -16.342718045390885 C-75.10090294779363 -16.5546037462105, -74.75137532198153 -16.766489447030114, -74.38149226407678 -16.99071473040609 C-73.9962633702213 -17.191688397579618, -73.6110344763658 -17.392662064753146, -73.2732329127924 -17.56889292409717 C-72.95866843880313 -17.708141285508635, -72.64410396481388 -17.847389646920096, -72.13020659514781 -18.07487676824742 C-71.70192593204904 -18.23248801125082, -71.27364526895028 -18.390099254254217, -70.95711025146062 -18.506587066708033 C-70.57552443183283 -18.619839734988716, -70.19393861220506 -18.733092403269403, -69.75876438623541 -18.862249829261067 C-69.4498216529445 -18.932763992094976, -69.14087891965356 -19.00327815492889, -68.54009325967677 -19.140403561325773 C-68.20261283023488 -19.194964779958116, -67.86513240079302 -19.249525998590464, -67.30610465284788 -19.3399052695533 C-66.91597734875491 -19.377540381382417, -66.52585004466195 -19.41517549321154, -66.0618692896239 -19.45993515863156 C-65.75777768540785 -19.469686784500368, -65.45368608119178 -19.479438410369177, -64.8125 -19.5 C-64.8125 -19.5, -64.8125 -19.5, -64.8125 -19.5" stroke="none" stroke-width="0" fill="#E3F2FD" style="fill:#E3F2FD !important;stroke:#1565C0 !important;stroke-width:2px !important"></path><path d="M-64.8125 -19.5 C-31.15728767270423 -19.5, 2.497924654591543 -19.5, 64.8125 -19.5 M-64.8125 -19.5 C-23.02879844681422 -19.5, 18.754903106371557 -19.5, 64.8125 -19.5 M64.8125 -19.5 C64.8125 -19.5, 64.8125 -19.5, 64.8125 -19.5 M64.8125 -19.5 C64.8125 -19.5, 64.8125 -19.5, 64.8125 -19.5 M64.8125 -19.5 C65.10865832890163 -19.49050277882934, 65.40481665780327 -19.481005557658683, 66.0618692896239 -19.45993515863156 M64.8125 -19.5 C65.19850584588676 -19.48762154383721, 65.58451169177351 -19.47524308767442, 66.0618692896239 -19.45993515863156 M66.0618692896239 -19.45993515863156 C66.35099250128538 -19.432043790124112, 66.64011571294684 -19.404152421616665, 67.30610465284786 -19.3399052695533 M66.0618692896239 -19.45993515863156 C66.52257507661687 -19.41549142544012, 66.98328086360985 -19.37104769224868, 67.30610465284786 -19.3399052695533 M67.30610465284786 -19.3399052695533 C67.65729299684004 -19.283127861602928, 68.00848134083222 -19.226350453652554, 68.54009325967675 -19.140403561325776 M67.30610465284786 -19.3399052695533 C67.5690106833492 -19.29740066140856, 67.83191671385055 -19.25489605326382, 68.54009325967675 -19.140403561325776 M68.54009325967675 -19.140403561325776 C68.92469157856158 -19.05262150477889, 69.3092898974464 -18.96483944823201, 69.75876438623538 -18.862249829261074 M68.54009325967675 -19.140403561325776 C68.98682271889824 -19.03844047744063, 69.43355217811974 -18.93647739355548, 69.75876438623538 -18.862249829261074 M69.75876438623538 -18.862249829261074 C70.08311909629722 -18.76598305388734, 70.40747380635906 -18.6697162785136, 70.9571102514606 -18.50658706670804 M69.75876438623538 -18.862249829261074 C70.14064910835587 -18.748908448289527, 70.52253383047638 -18.635567067317975, 70.9571102514606 -18.50658706670804 M70.9571102514606 -18.50658706670804 C71.27557018311444 -18.38939086804809, 71.59403011476827 -18.272194669388142, 72.1302065951478 -18.074876768247425 M70.9571102514606 -18.50658706670804 C71.31468288458291 -18.374997032353846, 71.67225551770521 -18.243406997999653, 72.1302065951478 -18.074876768247425 M72.1302065951478 -18.074876768247425 C72.5865445884451 -17.872869475400318, 73.0428825817424 -17.67086218255321, 73.27323291279238 -17.568892924097174 M72.1302065951478 -18.074876768247425 C72.35957646079582 -17.97334153274036, 72.58894632644385 -17.8718062972333, 73.27323291279238 -17.568892924097174 M73.27323291279238 -17.568892924097174 C73.67373691123723 -17.359950244643557, 74.07424090968206 -17.15100756518994, 74.38149226407678 -16.990714730406097 M73.27323291279238 -17.568892924097174 C73.67189564590358 -17.36091083158873, 74.07055837901477 -17.152928739080288, 74.38149226407678 -16.990714730406097 M74.38149226407678 -16.990714730406097 C74.73788104858151 -16.774669754866355, 75.09426983308626 -16.558624779326617, 75.4504305736057 -16.342718045390892 M74.38149226407678 -16.990714730406097 C74.60108104300673 -16.857598722171865, 74.82066982193666 -16.724482713937633, 75.4504305736057 -16.342718045390892 M75.4504305736057 -16.342718045390892 C75.84872960355995 -16.064881884181926, 76.24702863351418 -15.78704572297296, 76.47565534457871 -15.627565626425154 M75.4504305736057 -16.342718045390892 C75.84419829587837 -16.06804272826344, 76.23796601815106 -15.793367411135982, 76.47565534457871 -15.627565626425154 M76.47565534457871 -15.627565626425154 C76.67858580911322 -15.465733981165348, 76.8815162736477 -15.30390233590554, 77.45295370850187 -14.848196188198123 M76.47565534457871 -15.627565626425154 C76.68440634861831 -15.461092255801086, 76.89315735265792 -15.294618885177018, 77.45295370850187 -14.848196188198123 M77.45295370850187 -14.848196188198123 C77.75830028123498 -14.570888509869512, 78.0636468539681 -14.2935808315409, 78.37830973676799 -14.007812326905688 M77.45295370850187 -14.848196188198123 C77.70983120908355 -14.614906838776072, 77.96670870966521 -14.38161748935402, 78.37830973676799 -14.007812326905688 M78.37830973676799 -14.007812326905688 C78.61309294612019 -13.765379387189567, 78.84787615547239 -13.522946447473444, 79.24792094296865 -13.10986736009568 M78.37830973676799 -14.007812326905688 C78.5920025697175 -13.787156932377453, 78.805695402667 -13.566501537849216, 79.24792094296865 -13.10986736009568 M79.24792094296865 -13.10986736009568 C79.41448393356725 -12.914212993635902, 79.58104692416586 -12.718558627176124, 80.05821390812658 -12.158051136245305 M79.24792094296865 -13.10986736009568 C79.4765353740572 -12.84132384080942, 79.70514980514575 -12.572780321523158, 80.05821390812658 -12.158051136245305 M80.05821390812658 -12.158051136245305 C80.28075297271121 -11.859869063427748, 80.50329203729585 -11.561686990610193, 80.80585896464063 -11.156274872382312 M80.05821390812658 -12.158051136245305 C80.28379391588936 -11.855794476604643, 80.50937392365216 -11.553537816963981, 80.80585896464063 -11.156274872382312 M80.80585896464063 -11.156274872382312 C81.00417317809452 -10.851610985694453, 81.2024873915484 -10.546947099006594, 81.48778387860425 -10.108655082055241 M80.80585896464063 -11.156274872382312 C81.06190274360206 -10.762922870515979, 81.31794652256347 -10.369570868649646, 81.48778387860425 -10.108655082055241 M81.48778387860425 -10.108655082055241 C81.72605497394245 -9.685580624717552, 81.96432606928066 -9.262506167379863, 82.1011864742735 -9.019496659696287 M81.48778387860425 -10.108655082055241 C81.72938342135373 -9.679670629296979, 81.97098296410321 -9.250686176538716, 82.1011864742735 -9.019496659696287 M82.1011864742735 -9.019496659696287 C82.31195102189737 -8.581839566916443, 82.52271556952122 -8.144182474136601, 82.64354614880834 -7.893275190886684 M82.1011864742735 -9.019496659696287 C82.22992687339548 -8.752164466316218, 82.35866727251748 -8.48483227293615, 82.64354614880834 -7.893275190886684 M82.64354614880834 -7.893275190886684 C82.7930301115215 -7.524046912909359, 82.94251407423467 -7.154818634932033, 83.11263422997033 -6.734618561215508 M82.64354614880834 -7.893275190886684 C82.76693321221508 -7.588506758745462, 82.89032027562182 -7.28373832660424, 83.11263422997033 -6.734618561215508 M83.11263422997033 -6.734618561215508 C83.26574540673069 -6.273472091766405, 83.41885658349106 -5.812325622317302, 83.50652313421489 -5.548287939305138 M83.11263422997033 -6.734618561215508 C83.20489320574592 -6.456749225650983, 83.29715218152151 -6.178879890086457, 83.50652313421489 -5.548287939305138 M83.50652313421489 -5.548287939305138 C83.60432246388297 -5.17533670878316, 83.70212179355104 -4.802385478261181, 83.82359428754556 -4.339158212148133 M83.50652313421489 -5.548287939305138 C83.58785096513873 -5.238149672287654, 83.66917879606257 -4.92801140527017, 83.82359428754556 -4.339158212148133 M83.82359428754556 -4.339158212148133 C83.87246382343476 -4.0882234739371635, 83.92133335932395 -3.8372887357261933, 84.06254477658177 -3.1121979531509023 M83.82359428754556 -4.339158212148133 C83.87698497661992 -4.065008307877431, 83.93037566569427 -3.7908584036067277, 84.06254477658177 -3.1121979531509023 M84.06254477658177 -3.1121979531509023 C84.12267193425382 -2.645863591696835, 84.18279909192586 -2.1795292302427676, 84.22239270250937 -1.872449005199798 M84.06254477658177 -3.1121979531509023 C84.09659382999494 -2.8481202186244436, 84.13064288340811 -2.584042484097985, 84.22239270250937 -1.872449005199798 M84.22239270250937 -1.872449005199798 C84.2445469487747 -1.5273787370315692, 84.26670119504003 -1.1823084688633405, 84.30248121591342 -0.6250057626472757 M84.22239270250937 -1.872449005199798 C84.24329487768387 -1.5468807549249601, 84.26419705285835 -1.221312504650122, 84.30248121591342 -0.6250057626472757 M84.30248121591342 -0.6250057626472757 C84.30248121591342 -0.34977433723215445, 84.30248121591342 -0.07454291181703321, 84.30248121591342 0.625005762647271 M84.30248121591342 -0.6250057626472757 C84.30248121591342 -0.2569917690082698, 84.30248121591342 0.11102222463073608, 84.30248121591342 0.625005762647271 M84.30248121591342 0.625005762647271 C84.28432872898547 0.9077453989736913, 84.26617624205753 1.1904850353001115, 84.22239270250937 1.8724490051997846 M84.30248121591342 0.625005762647271 C84.28243101891445 0.9373037651337933, 84.2623808219155 1.2496017676203155, 84.22239270250937 1.8724490051997846 M84.22239270250937 1.8724490051997846 C84.17476853199425 2.2418126672588183, 84.12714436147914 2.6111763293178516, 84.06254477658177 3.1121979531508885 M84.22239270250937 1.8724490051997846 C84.1718355500599 2.2645602959588893, 84.12127839761042 2.6566715867179935, 84.06254477658177 3.1121979531508885 M84.06254477658177 3.1121979531508885 C84.00201689554194 3.422995829718242, 83.94148901450211 3.733793706285595, 83.82359428754556 4.339158212148129 M84.06254477658177 3.1121979531508885 C83.9673046311229 3.601235971070319, 83.87206448566404 4.0902739889897495, 83.82359428754556 4.339158212148129 M83.82359428754556 4.339158212148129 C83.7035770632353 4.796835904237188, 83.58355983892505 5.254513596326247, 83.50652313421489 5.548287939305125 M83.82359428754556 4.339158212148129 C83.71229652551047 4.7635848155431635, 83.60099876347536 5.188011418938198, 83.50652313421489 5.548287939305125 M83.50652313421489 5.548287939305125 C83.35165244697932 6.01473377396563, 83.19678175974374 6.481179608626134, 83.11263422997033 6.734618561215495 M83.50652313421489 5.548287939305125 C83.36972968778586 5.960288004873476, 83.23293624135684 6.372288070441827, 83.11263422997033 6.734618561215495 M83.11263422997033 6.734618561215495 C83.01525314896536 6.975151714032898, 82.91787206796037 7.2156848668503, 82.64354614880834 7.893275190886679 M83.11263422997033 6.734618561215495 C82.96694095702364 7.094483762181623, 82.82124768407695 7.454348963147752, 82.64354614880834 7.893275190886679 M82.64354614880834 7.893275190886679 C82.47481782714871 8.243643161020655, 82.30608950548907 8.59401113115463, 82.1011864742735 9.019496659696284 M82.64354614880834 7.893275190886679 C82.43787237848365 8.320361175679604, 82.23219860815897 8.747447160472529, 82.1011864742735 9.019496659696284 M82.1011864742735 9.019496659696284 C81.90244709510002 9.372378551963175, 81.70370771592654 9.725260444230065, 81.48778387860425 10.108655082055236 M82.1011864742735 9.019496659696284 C81.91162739032532 9.356078008184962, 81.72206830637714 9.692659356673643, 81.48778387860425 10.108655082055236 M81.48778387860425 10.108655082055236 C81.32409260744858 10.36012883181126, 81.16040133629289 10.611602581567281, 80.80585896464065 11.156274872382301 M81.48778387860425 10.108655082055236 C81.27629358698265 10.433560963081101, 81.06480329536105 10.758466844106966, 80.80585896464065 11.156274872382301 M80.80585896464065 11.156274872382301 C80.58163286222265 11.456717422204271, 80.35740675980463 11.757159972026239, 80.05821390812659 12.158051136245302 M80.80585896464065 11.156274872382301 C80.56745360825795 11.475716330760347, 80.32904825187525 11.795157789138393, 80.05821390812659 12.158051136245302 M80.05821390812659 12.158051136245302 C79.75509799713593 12.514108333078866, 79.45198208614528 12.87016552991243, 79.24792094296866 13.10986736009567 M80.05821390812659 12.158051136245302 C79.77739223260866 12.48792025551466, 79.49657055709075 12.817789374784017, 79.24792094296866 13.10986736009567 M79.24792094296866 13.10986736009567 C79.05670701642968 13.307311438202497, 78.8654930898907 13.504755516309324, 78.37830973676799 14.007812326905684 M79.24792094296866 13.10986736009567 C78.95914446894236 13.408052778517275, 78.67036799491605 13.706238196938882, 78.37830973676799 14.007812326905684 M78.37830973676799 14.007812326905684 C78.15125005838478 14.214021919143438, 77.92419038000156 14.420231511381191, 77.4529537085019 14.848196188198111 M78.37830973676799 14.007812326905684 C78.15569975855186 14.209980819184311, 77.93308978033573 14.412149311462938, 77.4529537085019 14.848196188198111 M77.4529537085019 14.848196188198111 C77.12972948236352 15.105958907185578, 76.80650525622512 15.363721626173046, 76.47565534457871 15.627565626425152 M77.4529537085019 14.848196188198111 C77.12658907862836 15.10846329559471, 76.80022444875482 15.368730402991309, 76.47565534457871 15.627565626425152 M76.47565534457871 15.627565626425152 C76.09765864007903 15.891239764270521, 75.71966193557935 16.15491390211589, 75.4504305736057 16.34271804539089 M76.47565534457871 15.627565626425152 C76.21569656145388 15.808901620098686, 75.95573777832905 15.99023761377222, 75.4504305736057 16.34271804539089 M75.4504305736057 16.34271804539089 C75.13801593513585 16.532105635183513, 74.82560129666601 16.721493224976136, 74.38149226407678 16.990714730406093 M75.4504305736057 16.34271804539089 C75.12764374076397 16.538393320365525, 74.80485690792226 16.734068595340162, 74.38149226407678 16.990714730406093 M74.38149226407678 16.990714730406093 C74.06787576847817 17.15432825527893, 73.75425927287958 17.31794178015177, 73.27323291279238 17.56889292409717 M74.38149226407678 16.990714730406093 C74.03102276765127 17.17355444220486, 73.68055327122573 17.35639415400363, 73.27323291279238 17.56889292409717 M73.27323291279238 17.56889292409717 C72.82258334291029 17.768382120639448, 72.3719337730282 17.96787131718173, 72.1302065951478 18.07487676824742 M73.27323291279238 17.56889292409717 C72.9581032090638 17.70839149594729, 72.6429735053352 17.847890067797408, 72.1302065951478 18.07487676824742 M72.1302065951478 18.07487676824742 C71.69184203539058 18.236198978435645, 71.25347747563337 18.39752118862387, 70.95711025146062 18.506587066708033 M72.1302065951478 18.07487676824742 C71.8934637518828 18.16200032299579, 71.65672090861781 18.24912387774416, 70.95711025146062 18.506587066708033 M70.95711025146062 18.506587066708033 C70.55224767783696 18.62674815339252, 70.1473851042133 18.74690924007701, 69.75876438623541 18.86224982926107 M70.95711025146062 18.506587066708033 C70.57816231451596 18.619056825254894, 70.19921437757131 18.731526583801756, 69.75876438623541 18.86224982926107 M69.75876438623541 18.86224982926107 C69.32794751320631 18.960580969187134, 68.89713064017721 19.058912109113194, 68.54009325967677 19.140403561325773 M69.75876438623541 18.86224982926107 C69.349491014221 18.95566380566501, 68.94021764220659 19.049077782068956, 68.54009325967677 19.140403561325773 M68.54009325967677 19.140403561325773 C68.21304370761487 19.193278396595986, 67.88599415555298 19.246153231866195, 67.30610465284788 19.3399052695533 M68.54009325967677 19.140403561325773 C68.29077929183333 19.180710710188002, 68.0414653239899 19.22101785905023, 67.30610465284788 19.3399052695533 M67.30610465284788 19.3399052695533 C66.82352940314357 19.38645872351062, 66.34095415343926 19.433012177467948, 66.0618692896239 19.45993515863156 M67.30610465284788 19.3399052695533 C66.81769236273179 19.38702181577908, 66.32928007261572 19.43413836200486, 66.0618692896239 19.45993515863156 M66.0618692896239 19.45993515863156 C65.80233919666665 19.468257783568017, 65.54280910370942 19.476580408504475, 64.8125 19.5 M66.0618692896239 19.45993515863156 C65.58977870440927 19.475074184830813, 65.11768811919464 19.490213211030067, 64.8125 19.5 M64.8125 19.5 C64.8125 19.5, 64.8125 19.5, 64.8125 19.5 M64.8125 19.5 C64.8125 19.5, 64.8125 19.5, 64.8125 19.5 M64.8125 19.5 C21.34333431635647 19.5, -22.125831367287063 19.5, -64.8125 19.5 M64.8125 19.5 C29.50852820031693 19.5, -5.795443599366138 19.5, -64.8125 19.5 M-64.8125 19.5 C-65.3070996083391 19.4841391532403, -65.8016992166782 19.468278306480602, -66.0618692896239 19.45993515863156 M-64.8125 19.5 C-65.0843230180732 19.4912831648818, -65.35614603614641 19.4825663297636, -66.0618692896239 19.45993515863156 M-66.0618692896239 19.45993515863156 C-66.40882554071156 19.426464706365074, -66.75578179179922 19.39299425409859, -67.30610465284786 19.3399052695533 M-66.0618692896239 19.45993515863156 C-66.46442029515201 19.42110154726668, -66.8669713006801 19.382267935901798, -67.30610465284786 19.3399052695533 M-67.30610465284786 19.3399052695533 C-67.63029099501038 19.287493335855093, -67.95447733717292 19.235081402156887, -68.54009325967675 19.140403561325773 M-67.30610465284786 19.3399052695533 C-67.68576236514768 19.278525154918196, -68.0654200774475 19.217145040283093, -68.54009325967675 19.140403561325773 M-68.54009325967675 19.140403561325773 C-68.85481521807212 19.068570328074742, -69.16953717646749 18.99673709482371, -69.75876438623538 18.862249829261074 M-68.54009325967675 19.140403561325773 C-68.87259850856746 19.064511408065997, -69.20510375745818 18.98861925480622, -69.75876438623538 18.862249829261074 M-69.75876438623538 18.862249829261074 C-70.18323111895656 18.736270331060776, -70.60769785167774 18.61029083286048, -70.95711025146059 18.506587066708043 M-69.75876438623538 18.862249829261074 C-70.13340153098761 18.751059491209116, -70.50803867573985 18.639869153157154, -70.95711025146059 18.506587066708043 M-70.95711025146059 18.506587066708043 C-71.3810597388966 18.35056973638549, -71.8050092263326 18.19455240606294, -72.1302065951478 18.074876768247425 M-70.95711025146059 18.506587066708043 C-71.19566207228308 18.418797791496505, -71.43421389310558 18.33100851628497, -72.1302065951478 18.074876768247425 M-72.1302065951478 18.074876768247425 C-72.52729109270014 17.899099240274108, -72.92437559025248 17.723321712300795, -73.27323291279238 17.568892924097174 M-72.1302065951478 18.074876768247425 C-72.50916124239689 17.907124787200463, -72.88811588964596 17.7393728061535, -73.27323291279238 17.568892924097174 M-73.27323291279238 17.568892924097174 C-73.69163458319255 17.35061304064847, -74.11003625359271 17.132333157199763, -74.38149226407678 16.990714730406097 M-73.27323291279238 17.568892924097174 C-73.58699482097082 17.405203537574575, -73.90075672914926 17.241514151051977, -74.38149226407678 16.990714730406097 M-74.38149226407678 16.990714730406097 C-74.74069512263377 16.77296384663855, -75.09989798119074 16.555212962871007, -75.45043057360569 16.3427180453909 M-74.38149226407678 16.990714730406097 C-74.74809856066072 16.768475838999176, -75.11470485724467 16.546236947592252, -75.45043057360569 16.3427180453909 M-75.45043057360569 16.3427180453909 C-75.744342675329 16.137697686478546, -76.03825477705229 15.932677327566193, -76.47565534457871 15.627565626425156 M-75.45043057360569 16.3427180453909 C-75.68295961488234 16.180515852216274, -75.91548865615897 16.018313659041652, -76.47565534457871 15.627565626425156 M-76.47565534457871 15.627565626425156 C-76.79169069751322 15.375535842513832, -77.10772605044771 15.123506058602509, -77.45295370850187 14.848196188198125 M-76.47565534457871 15.627565626425156 C-76.79048248890825 15.376499356724507, -77.1053096332378 15.12543308702386, -77.45295370850187 14.848196188198125 M-77.45295370850187 14.848196188198125 C-77.81718279374111 14.517412969957348, -78.18141187898036 14.186629751716573, -78.37830973676797 14.007812326905697 M-77.45295370850187 14.848196188198125 C-77.71349030419297 14.611583745412041, -77.97402689988407 14.374971302625957, -78.37830973676797 14.007812326905697 M-78.37830973676797 14.007812326905697 C-78.55458683343564 13.825791751977551, -78.73086393010328 13.643771177049405, -79.24792094296865 13.109867360095677 M-78.37830973676797 14.007812326905697 C-78.70272903527228 13.672822765880237, -79.0271483337766 13.337833204854778, -79.24792094296865 13.109867360095677 M-79.24792094296865 13.109867360095677 C-79.54116923160878 12.76540123395865, -79.83441752024892 12.420935107821622, -80.05821390812658 12.158051136245307 M-79.24792094296865 13.109867360095677 C-79.49969405026253 12.814120341972636, -79.7514671575564 12.518373323849595, -80.05821390812658 12.158051136245307 M-80.05821390812658 12.158051136245307 C-80.29719456257651 11.837838830867906, -80.53617521702644 11.517626525490506, -80.80585896464063 11.156274872382316 M-80.05821390812658 12.158051136245307 C-80.33466296135055 11.787634589952047, -80.61111201457452 11.417218043658787, -80.80585896464063 11.156274872382316 M-80.80585896464063 11.156274872382316 C-80.95461453487746 10.927746370034901, -81.1033701051143 10.699217867687489, -81.48778387860425 10.108655082055249 M-80.80585896464063 11.156274872382316 C-81.04395692364228 10.790492469101583, -81.28205488264395 10.424710065820852, -81.48778387860425 10.108655082055249 M-81.48778387860425 10.108655082055249 C-81.70618345623392 9.720864516618422, -81.9245830338636 9.333073951181596, -82.1011864742735 9.019496659696289 M-81.48778387860425 10.108655082055249 C-81.72234765196667 9.69216335029261, -81.9569114253291 9.275671618529971, -82.1011864742735 9.019496659696289 M-82.1011864742735 9.019496659696289 C-82.23276916794218 8.746262380874644, -82.36435186161087 8.473028102052998, -82.64354614880834 7.893275190886686 M-82.1011864742735 9.019496659696289 C-82.28374401358151 8.640412023217625, -82.4663015528895 8.26132738673896, -82.64354614880834 7.893275190886686 M-82.64354614880834 7.893275190886686 C-82.78135353691695 7.552888277933803, -82.91916092502558 7.212501364980921, -83.11263422997033 6.73461856121551 M-82.64354614880834 7.893275190886686 C-82.81975428690937 7.458037683024546, -82.9959624250104 7.022800175162407, -83.11263422997033 6.73461856121551 M-83.11263422997033 6.73461856121551 C-83.26772333293849 6.26751489316826, -83.42281243590666 5.800411225121009, -83.50652313421489 5.5482879393051325 M-83.11263422997033 6.73461856121551 C-83.2699021020767 6.260952787663678, -83.42716997418309 5.787287014111845, -83.50652313421489 5.5482879393051325 M-83.50652313421489 5.5482879393051325 C-83.58741199280746 5.239823664038557, -83.66830085140005 4.93135938877198, -83.82359428754556 4.339158212148136 M-83.50652313421489 5.5482879393051325 C-83.57833557734388 5.274435969944535, -83.65014802047288 5.000584000583938, -83.82359428754556 4.339158212148136 M-83.82359428754556 4.339158212148136 C-83.90531511347493 3.9195390427035406, -83.98703593940428 3.4999198732589454, -84.06254477658177 3.112197953150904 M-83.82359428754556 4.339158212148136 C-83.90409359264046 3.9258112940199354, -83.98459289773538 3.5124643758917355, -84.06254477658177 3.112197953150904 M-84.06254477658177 3.112197953150904 C-84.1134226595695 2.7175991396725245, -84.16430054255721 2.3230003261941445, -84.22239270250937 1.872449005199809 M-84.06254477658177 3.112197953150904 C-84.10620678565242 2.773564032837895, -84.14986879472306 2.4349301125248854, -84.22239270250937 1.872449005199809 M-84.22239270250937 1.872449005199809 C-84.24322138209072 1.5480255081126253, -84.26405006167208 1.2236020110254415, -84.30248121591342 0.6250057626472781 M-84.22239270250937 1.872449005199809 C-84.25072008918195 1.4312270923192525, -84.27904747585455 0.9900051794386959, -84.30248121591342 0.6250057626472781 M-84.30248121591342 0.6250057626472781 C-84.30248121591342 0.15359456572135655, -84.30248121591342 -0.31781663120456505, -84.30248121591342 -0.6250057626472687 M-84.30248121591342 0.6250057626472781 C-84.30248121591342 0.17480977734204367, -84.30248121591342 -0.2753862079631908, -84.30248121591342 -0.6250057626472687 M-84.30248121591342 -0.6250057626472687 C-84.2754792982952 -1.0455824251067178, -84.24847738067697 -1.4661590875661672, -84.22239270250937 -1.8724490051997822 M-84.30248121591342 -0.6250057626472687 C-84.28221444831699 -0.9406770270020354, -84.26194768072055 -1.256348291356802, -84.22239270250937 -1.8724490051997822 M-84.22239270250937 -1.8724490051997822 C-84.17089096679388 -2.2718862972411182, -84.11938923107837 -2.671323589282455, -84.06254477658177 -3.112197953150895 M-84.22239270250937 -1.8724490051997822 C-84.18713321487662 -2.1459146285059267, -84.1518737272439 -2.4193802518120715, -84.06254477658177 -3.112197953150895 M-84.06254477658177 -3.112197953150895 C-83.99963228919304 -3.4352402793331054, -83.93671980180432 -3.7582826055153156, -83.82359428754556 -4.339158212148126 M-84.06254477658177 -3.112197953150895 C-84.01266530714157 -3.3683184866967357, -83.96278583770138 -3.6244390202425762, -83.82359428754556 -4.339158212148126 M-83.82359428754556 -4.339158212148126 C-83.69909865339451 -4.813914021915209, -83.57460301924348 -5.2886698316822915, -83.50652313421489 -5.548287939305123 M-83.82359428754556 -4.339158212148126 C-83.70424558881825 -4.7942865264485945, -83.58489689009095 -5.249414840749064, -83.50652313421489 -5.548287939305123 M-83.50652313421489 -5.548287939305123 C-83.4082184967653 -5.8443658445863145, -83.30991385931573 -6.140443749867506, -83.11263422997033 -6.734618561215485 M-83.50652313421489 -5.548287939305123 C-83.35361300934501 -6.008828872493329, -83.20070288447513 -6.469369805681535, -83.11263422997033 -6.734618561215485 M-83.11263422997033 -6.734618561215485 C-83.00233083220944 -7.007070086255999, -82.89202743444855 -7.279521611296514, -82.64354614880834 -7.893275190886676 M-83.11263422997033 -6.734618561215485 C-83.00559630823281 -6.999004297344574, -82.89855838649531 -7.263390033473663, -82.64354614880834 -7.893275190886676 M-82.64354614880834 -7.893275190886676 C-82.46342661837014 -8.267297249782183, -82.28330708793192 -8.641319308677692, -82.1011864742735 -9.019496659696282 M-82.64354614880834 -7.893275190886676 C-82.49642891672968 -8.198767271102493, -82.34931168465104 -8.50425935131831, -82.1011864742735 -9.019496659696282 M-82.1011864742735 -9.019496659696282 C-81.92606815670224 -9.330436965196574, -81.75094983913098 -9.641377270696866, -81.48778387860425 -10.108655082055243 M-82.1011864742735 -9.019496659696282 C-81.90603702198902 -9.36600427325224, -81.71088756970454 -9.7125118868082, -81.48778387860425 -10.108655082055243 M-81.48778387860425 -10.108655082055243 C-81.33591100056844 -10.341972606296226, -81.18403812253264 -10.575290130537207, -80.80585896464063 -11.156274872382308 M-81.48778387860425 -10.108655082055243 C-81.33010460009245 -10.350892796664185, -81.17242532158066 -10.593130511273127, -80.80585896464063 -11.156274872382308 M-80.80585896464063 -11.156274872382308 C-80.54790810877313 -11.501905519438363, -80.28995725290562 -11.84753616649442, -80.05821390812659 -12.158051136245302 M-80.80585896464063 -11.156274872382308 C-80.60501340014724 -11.425389631396124, -80.40416783565384 -11.69450439040994, -80.05821390812659 -12.158051136245302 M-80.05821390812659 -12.158051136245302 C-79.77655039885119 -12.488909121347893, -79.49488688957578 -12.819767106450486, -79.24792094296866 -13.10986736009567 M-80.05821390812659 -12.158051136245302 C-79.84816880712583 -12.40478206378562, -79.63812370612507 -12.651512991325937, -79.24792094296866 -13.10986736009567 M-79.24792094296866 -13.10986736009567 C-78.98921727621676 -13.37700013598305, -78.73051360946486 -13.644132911870429, -78.37830973676799 -14.007812326905677 M-79.24792094296866 -13.10986736009567 C-78.9599730187983 -13.40719723276581, -78.67202509462793 -13.704527105435949, -78.37830973676799 -14.007812326905677 M-78.37830973676799 -14.007812326905677 C-78.08627989027862 -14.273026106801005, -77.79425004378923 -14.538239886696331, -77.4529537085019 -14.848196188198107 M-78.37830973676799 -14.007812326905677 C-78.18057787462023 -14.18738717240989, -77.98284601247246 -14.366962017914105, -77.4529537085019 -14.848196188198107 M-77.4529537085019 -14.848196188198107 C-77.10846290973481 -15.122918432929698, -76.76397211096773 -15.397640677661286, -76.47565534457871 -15.627565626425149 M-77.4529537085019 -14.848196188198107 C-77.20775336637921 -15.043736935985805, -76.96255302425654 -15.239277683773501, -76.47565534457871 -15.627565626425149 M-76.47565534457871 -15.627565626425149 C-76.10857702901508 -15.88362356879817, -75.74149871345145 -16.13968151117119, -75.45043057360571 -16.342718045390885 M-76.47565534457871 -15.627565626425149 C-76.21682506294168 -15.80811442631284, -75.95799478130465 -15.988663226200531, -75.45043057360571 -16.342718045390885 M-75.45043057360571 -16.342718045390885 C-75.12378907094256 -16.540730043863825, -74.7971475682794 -16.738742042336764, -74.38149226407678 -16.99071473040609 M-75.45043057360571 -16.342718045390885 C-75.02788695745281 -16.598866468644687, -74.6053433412999 -16.855014891898488, -74.38149226407678 -16.99071473040609 M-74.38149226407678 -16.99071473040609 C-74.13167212066661 -17.121045739205744, -73.88185197725643 -17.251376748005395, -73.2732329127924 -17.56889292409717 M-74.38149226407678 -16.99071473040609 C-74.04490279147684 -17.166313242665638, -73.70831331887689 -17.341911754925185, -73.2732329127924 -17.56889292409717 M-73.2732329127924 -17.56889292409717 C-72.93800997541634 -17.717286174438424, -72.60278703804029 -17.865679424779678, -72.13020659514781 -18.07487676824742 M-73.2732329127924 -17.56889292409717 C-72.88922886763356 -17.73888012381371, -72.50522482247473 -17.908867323530252, -72.13020659514781 -18.07487676824742 M-72.13020659514781 -18.07487676824742 C-71.76565466932702 -18.20903524683053, -71.40110274350623 -18.34319372541364, -70.95711025146062 -18.506587066708033 M-72.13020659514781 -18.07487676824742 C-71.682002254815 -18.2398201086454, -71.23379791448218 -18.404763449043376, -70.95711025146062 -18.506587066708033 M-70.95711025146062 -18.506587066708033 C-70.68862089444086 -18.586273298542103, -70.4201315374211 -18.66595953037617, -69.75876438623541 -18.862249829261067 M-70.95711025146062 -18.506587066708033 C-70.54060909795146 -18.630202422810385, -70.1241079444423 -18.753817778912733, -69.75876438623541 -18.862249829261067 M-69.75876438623541 -18.862249829261067 C-69.43018552449614 -18.937245810275602, -69.10160666275686 -19.012241791290133, -68.54009325967677 -19.140403561325773 M-69.75876438623541 -18.862249829261067 C-69.38036054642289 -18.948618036382452, -69.00195670661036 -19.034986243503837, -68.54009325967677 -19.140403561325773 M-68.54009325967677 -19.140403561325773 C-68.27837809606066 -19.18271563934782, -68.01666293244455 -19.225027717369866, -67.30610465284788 -19.3399052695533 M-68.54009325967677 -19.140403561325773 C-68.12299193054297 -19.20783726955101, -67.70589060140915 -19.275270977776245, -67.30610465284788 -19.3399052695533 M-67.30610465284788 -19.3399052695533 C-67.05468157541392 -19.364159751452863, -66.80325849797997 -19.388414233352425, -66.0618692896239 -19.45993515863156 M-67.30610465284788 -19.3399052695533 C-66.89640304511887 -19.379428690912643, -66.48670143738987 -19.418952112271988, -66.0618692896239 -19.45993515863156 M-66.0618692896239 -19.45993515863156 C-65.61986936884026 -19.474109235790436, -65.1778694480566 -19.488283312949314, -64.8125 -19.5 M-66.0618692896239 -19.45993515863156 C-65.73232813717365 -19.470502901977696, -65.4027869847234 -19.481070645323836, -64.8125 -19.5 M-64.8125 -19.5 C-64.8125 -19.5, -64.8125 -19.5, -64.8125 -19.5 M-64.8125 -19.5 C-64.8125 -19.5, -64.8125 -19.5, -64.8125 -19.5" stroke="#1565C0" stroke-width="2" fill="none" stroke-dasharray="0 0" style="fill:#E3F2FD !important;stroke:#1565C0 !important;stroke-width:2px !important"></path></g><g class="label" style="color:#0D47A1 !important" transform="translate(-71.9375, -12)"><rect></rect><foreignObject width="143.875" height="24"><div style="color: rgb(13, 71, 161) !important; display: table-cell; white-space: nowrap; line-height: 1.5; max-width: 200px; text-align: center;" xmlns="http://www.w3.org/1999/xhtml"><span style="color:#0D47A1 !important" class="nodeLabel"><p>Bulk Delete Request</p></span></div></foreignObject></g></g><g class="node default danger" id="flowchart-EXEC-13" transform="translate(736.953125, 889.5)"><rect class="basic label-container" style="fill:#FFCDD2 !important;stroke:#C62828 !important;stroke-width:2px !important" x="-94.28125" y="-27" width="188.5625" height="54"></rect><g class="label" style="color:#B71C1C !important" transform="translate(-64.28125, -12)"><rect></rect><foreignObject width="128.5625" height="24"><div style="color: rgb(183, 28, 28) !important; display: table-cell; white-space: nowrap; line-height: 1.5; max-width: 200px; text-align: center;" xmlns="http://www.w3.org/1999/xhtml"><span style="color:#B71C1C !important" class="nodeLabel"><p>Execute Deletions</p></span></div></foreignObject></g></g><g class="node default danger" id="flowchart-REJECT1-15" transform="translate(92.984375, 889.5)"><rect class="basic label-container" style="fill:#FFCDD2 !important;stroke:#C62828 !important;stroke-width:2px !important" x="-80.984375" y="-27" width="161.96875" height="54"></rect><g class="label" style="color:#B71C1C !important" transform="translate(-50.984375, -12)"><rect></rect><foreignObject width="101.96875" height="24"><div style="color: rgb(183, 28, 28) !important; display: table-cell; white-space: nowrap; line-height: 1.5; max-width: 200px; text-align: center;" xmlns="http://www.w3.org/1999/xhtml"><span style="color:#B71C1C !important" class="nodeLabel"><p>403 Forbidden</p></span></div></foreignObject></g></g><g class="node default danger" id="flowchart-REJECT2-17" transform="translate(297.859375, 901.5)"><rect class="basic label-container" style="fill:#FFCDD2 !important;stroke:#C62828 !important;stroke-width:2px !important" x="-88.890625" y="-39" width="177.78125" height="78"></rect><g class="label" style="color:#B71C1C !important" transform="translate(-58.890625, -24)"><rect></rect><foreignObject width="117.78125" height="48"><div style="color: rgb(183, 28, 28) !important; display: table-cell; white-space: nowrap; line-height: 1.5; max-width: 200px; text-align: center;" xmlns="http://www.w3.org/1999/xhtml"><span style="color:#B71C1C !important" class="nodeLabel"><p>400 Bad Request<br/>(no filter)</p></span></div></foreignObject></g></g><g class="node default danger" id="flowchart-REJECT3-19" transform="translate(514.7109375, 901.5)"><rect class="basic label-container" style="fill:#FFCDD2 !important;stroke:#C62828 !important;stroke-width:2px !important" x="-92.9609375" y="-39" width="185.921875" height="78"></rect><g class="label" style="color:#B71C1C !important" transform="translate(-62.9609375, -24)"><rect></rect><foreignObject width="125.921875" height="48"><div style="color: rgb(183, 28, 28) !important; display: table-cell; white-space: nowrap; line-height: 1.5; max-width: 200px; text-align: center;" xmlns="http://www.w3.org/1999/xhtml"><span style="color:#B71C1C !important" class="nodeLabel"><p>400 Bad Request<br/>(count mismatch)</p></span></div></foreignObject></g></g><g class="node default danger" id="flowchart-REJECT4-21" transform="translate(955.125, 901.5)"><rect class="basic label-container" style="fill:#FFCDD2 !important;stroke:#C62828 !important;stroke-width:2px !important" x="-88.890625" y="-39" width="177.78125" height="78"></rect><g class="label" style="color:#B71C1C !important" transform="translate(-58.890625, -24)"><rect></rect><foreignObject width="117.78125" height="48"><div style="color: rgb(183, 28, 28) !important; display: table-cell; white-space: nowrap; line-height: 1.5; max-width: 200px; text-align: center;" xmlns="http://www.w3.org/1999/xhtml"><span style="color:#B71C1C !important" class="nodeLabel"><p>400 Bad Request<br/>(&gt;100 matches)</p></span></div></foreignObject></g></g></g><g class="edges edgePaths"><path d="M166.635,51L166.635,56.833C166.635,62.667,166.635,74.333,166.635,87.25C166.635,100.167,166.635,114.333,166.635,121.417L166.635,128.5" id="L_REQ_S1_0_0" class="edge-thickness-normal edge-pattern-solid edge-thickness-normal edge-pattern-solid flowchart-link" style=";" data-edge="true" data-et="edge" data-id="L_REQ_S1_0_0" data-points="W3sieCI6MTY2LjYzNTQxNjY2NjY2NjY5LCJ5Ijo1MX0seyJ4IjoxNjYuNjM1NDE2NjY2NjY2NjksInkiOjg2fSx7IngiOjE2Ni42MzU0MTY2NjY2NjY2OSwieSI6MTMyLjV9XQ==" marker-end="url(#mermaid-1770215487952_flowchart-v2-pointEnd)"></path><path d="M204.461,210.5L204.461,290.5" id="L_S1_S2_0_0" class="edge-thickness-normal edge-pattern-solid edge-thickness-normal edge-pattern-solid flowchart-link" style=";" data-edge="true" data-et="edge" data-id="L_S1_S2_0_0" data-points="W3sieCI6MjA0LjQ2MDkzNzUsInkiOjIxMC41fSx7IngiOjIwNC40NjA5Mzc1LCJ5IjoyOTQuNX1d" marker-end="url(#mermaid-1770215487952_flowchart-v2-pointEnd)"></path><path d="M236.286,372.5L236.286,452.5" id="L_S2_S3_0_0" class="edge-thickness-normal edge-pattern-solid edge-thickness-normal edge-pattern-solid flowchart-link" style=";" data-edge="true" data-et="edge" data-id="L_S2_S3_0_0" data-points="W3sieCI6MjM2LjI4NjQ1ODMzMzMzMzMxLCJ5IjozNzIuNX0seyJ4IjoyMzYuMjg2NDU4MzMzMzMzMzEsInkiOjQ1Ni41fV0=" marker-end="url(#mermaid-1770215487952_flowchart-v2-pointEnd)"></path><path d="M272.849,534.5L272.849,614.5" id="L_S3_S4_0_0" class="edge-thickness-normal edge-pattern-solid edge-thickness-normal edge-pattern-solid flowchart-link" style=";" data-edge="true" data-et="edge" data-id="L_S3_S4_0_0" data-points="W3sieCI6MjcyLjg0ODk1ODMzMzMzMzMsInkiOjUzNC41fSx7IngiOjI3Mi44NDg5NTgzMzMzMzMzLCJ5Ijo2MTguNX1d" marker-end="url(#mermaid-1770215487952_flowchart-v2-pointEnd)"></path><path d="M235.073,696.5L235.073,699.75C235.073,703,235.073,709.5,235.073,717.75C235.073,726,235.073,736,235.435,741.471C235.797,746.943,236.521,747.886,237.354,748.719C238.187,749.552,239.13,750.276,321.582,750.638C404.033,751,567.993,751,650.444,751.362C732.896,751.724,733.839,752.448,734.672,753.281C735.505,754.114,736.229,755.057,736.591,772.612C736.953,790.167,736.953,824.333,736.953,841.417L736.953,858.5" id="L_S4_EXEC_0_0" class="edge-thickness-normal edge-pattern-solid edge-thickness-normal edge-pattern-solid flowchart-link" style=";" data-edge="true" data-et="edge" data-id="L_S4_EXEC_0_0" data-points="W3sieCI6MjM1LjA3MjkxNjY2NjY2NjY5LCJ5Ijo2OTYuNX0seyJ4IjoyMzUuMDcyOTE2NjY2NjY2NjksInkiOjcxNn0seyJ4IjoyMzUuMDcyOTE2NjY2NjY2NjksInkiOjc1MX0seyJ4Ijo3MzYuOTUzMTI1LCJ5Ijo3NTF9LHsieCI6NzM2Ljk1MzEyNSwieSI6ODYyLjV9XQ==" marker-end="url(#mermaid-1770215487952_flowchart-v2-pointEnd)"></path><path d="M128.81,210.5L128.81,212.167C128.81,213.833,128.81,217.167,128.448,219.305C128.086,221.443,127.362,222.386,126.529,223.219C125.696,224.052,124.753,224.776,119.977,225.138C115.201,225.5,106.593,225.5,101.817,225.862C97.042,226.224,96.099,226.948,95.265,227.781C94.432,228.614,93.708,229.557,93.346,310.945C92.984,392.333,92.984,554.167,92.984,658.833C92.984,763.5,92.984,811,92.984,834.75L92.984,858.5" id="L_S1_REJECT1_0_0" class="edge-thickness-normal edge-pattern-solid edge-thickness-normal edge-pattern-solid flowchart-link" style=";" data-edge="true" data-et="edge" data-id="L_S1_REJECT1_0_0" data-points="W3sieCI6MTI4LjgwOTg5NTgzMzMzMzM0LCJ5IjoyMTAuNX0seyJ4IjoxMjguODA5ODk1ODMzMzMzMzQsInkiOjIyNS41fSx7IngiOjkyLjk4NDM3NSwieSI6MjI1LjV9LHsieCI6OTIuOTg0Mzc1LCJ5Ijo3MTZ9LHsieCI6OTIuOTg0Mzc1LCJ5Ijo4NjIuNX1d" marker-end="url(#mermaid-1770215487952_flowchart-v2-pointEnd)"></path><path d="M172.635,372.5L172.635,374.167C172.635,375.833,172.635,379.167,172.273,381.305C171.912,383.443,171.188,384.386,170.354,385.219C169.521,386.052,168.578,386.776,159.434,387.138C150.29,387.5,132.944,387.5,123.8,387.862C114.656,388.224,113.713,388.948,112.88,389.781C112.047,390.614,111.323,391.557,110.961,445.945C110.599,500.333,110.599,608.167,110.599,672.917C110.599,737.667,110.599,759.333,110.961,770.638C111.323,781.943,112.047,782.886,112.88,783.719C113.713,784.552,114.656,785.276,144.671,785.638C174.686,786,233.773,786,263.787,786.362C293.802,786.724,294.745,787.448,295.578,788.281C296.412,789.114,297.136,790.057,297.497,801.779C297.859,813.5,297.859,836,297.859,847.25L297.859,858.5" id="L_S2_REJECT2_0_0" class="edge-thickness-normal edge-pattern-solid edge-thickness-normal edge-pattern-solid flowchart-link" style=";" data-edge="true" data-et="edge" data-id="L_S2_REJECT2_0_0" data-points="W3sieCI6MTcyLjYzNTQxNjY2NjY2NjY2LCJ5IjozNzIuNX0seyJ4IjoxNzIuNjM1NDE2NjY2NjY2NjYsInkiOjM4Ny41fSx7IngiOjExMC41OTg5NTgzMzMzMzMzMywieSI6Mzg3LjV9LHsieCI6MTEwLjU5ODk1ODMzMzMzMzMzLCJ5Ijo3MTZ9LHsieCI6MTEwLjU5ODk1ODMzMzMzMzMzLCJ5Ijo3ODZ9LHsieCI6Mjk3Ljg1OTM3NSwieSI6Nzg2fSx7IngiOjI5Ny44NTkzNzUsInkiOjg2Mi41fV0=" marker-end="url(#mermaid-1770215487952_flowchart-v2-pointEnd)"></path><path d="M199.724,534.5L199.724,536.167C199.724,537.833,199.724,541.167,199.362,543.305C199,545.443,198.276,546.386,197.443,547.219C196.61,548.052,195.667,548.776,187.495,549.138C179.323,549.5,163.922,549.5,155.75,549.862C147.578,550.224,146.635,550.948,145.802,551.781C144.969,552.614,144.245,553.557,143.883,580.945C143.521,608.333,143.521,662.167,143.521,697C143.521,731.833,143.521,747.667,143.883,756.055C144.245,764.443,144.969,765.386,145.802,766.219C146.635,767.052,147.578,767.776,208.248,768.138C268.918,768.5,389.314,768.5,449.984,768.862C510.654,769.224,511.597,769.948,512.43,770.781C513.263,771.614,513.987,772.557,514.349,787.195C514.711,801.833,514.711,830.167,514.711,844.333L514.711,858.5" id="L_S3_REJECT3_0_0" class="edge-thickness-normal edge-pattern-solid edge-thickness-normal edge-pattern-solid flowchart-link" style=";" data-edge="true" data-et="edge" data-id="L_S3_REJECT3_0_0" data-points="W3sieCI6MTk5LjcyMzk1ODMzMzMzMzMxLCJ5Ijo1MzQuNX0seyJ4IjoxOTkuNzIzOTU4MzMzMzMzMzEsInkiOjU0OS41fSx7IngiOjE0My41MjA4MzMzMzMzMzMzMSwieSI6NTQ5LjV9LHsieCI6MTQzLjUyMDgzMzMzMzMzMzMxLCJ5Ijo3MTZ9LHsieCI6MTQzLjUyMDgzMzMzMzMzMzMxLCJ5Ijo3NjguNX0seyJ4Ijo1MTQuNzEwOTM3NSwieSI6NzY4LjV9LHsieCI6NTE0LjcxMDkzNzUsInkiOjg2Mi41fV0=" marker-end="url(#mermaid-1770215487952_flowchart-v2-pointEnd)"></path><path d="M310.625,696.5L310.625,699.75C310.625,703,310.625,709.5,310.625,714.833C310.625,720.167,310.625,724.333,310.987,726.888C311.349,729.443,312.073,730.386,312.906,731.219C313.739,732.052,314.682,732.776,420.904,733.138C527.125,733.5,738.625,733.5,844.846,733.862C951.068,734.224,952.011,734.948,952.844,735.781C953.677,736.614,954.401,737.557,954.763,758.029C955.125,778.5,955.125,818.5,955.125,838.5L955.125,858.5" id="L_S4_REJECT4_0_0" class="edge-thickness-normal edge-pattern-solid edge-thickness-normal edge-pattern-solid flowchart-link" style=";" data-edge="true" data-et="edge" data-id="L_S4_REJECT4_0_0" data-points="W3sieCI6MzEwLjYyNSwieSI6Njk2LjV9LHsieCI6MzEwLjYyNSwieSI6NzE2fSx7IngiOjMxMC42MjUsInkiOjczMy41fSx7IngiOjk1NS4xMjUsInkiOjczMy41fSx7IngiOjk1NS4xMjUsInkiOjg2Mi41fV0=" marker-end="url(#mermaid-1770215487952_flowchart-v2-pointEnd)"></path></g><g class="edgeLabels"><g class="edgeLabel"><g class="label" data-id="L_REQ_S1_0_0" transform="translate(0, 0)"><foreignObject width="0" height="0"><div xmlns="http://www.w3.org/1999/xhtml" class="labelBkg" style="display: table-cell; white-space: nowrap; line-height: 1.5; max-width: 200px; text-align: center;"><span class="edgeLabel"></span></div></foreignObject></g></g><g class="edgeLabel" transform="translate(204.2265625, 252.5)"><g class="label" data-id="L_S1_S2_0_0" transform="translate(-14.765625, -12)"><foreignObject width="29.53125" height="24"><div xmlns="http://www.w3.org/1999/xhtml" class="labelBkg" style="display: table-cell; white-space: nowrap; line-height: 1.5; max-width: 200px; text-align: center;"><span class="edgeLabel"><p>Pass</p></span></div></foreignObject></g></g><g class="edgeLabel" transform="translate(236.05208333333331, 414.5)"><g class="label" data-id="L_S2_S3_0_0" transform="translate(-14.765625, -12)"><foreignObject width="29.53125" height="24"><div xmlns="http://www.w3.org/1999/xhtml" class="labelBkg" style="display: table-cell; white-space: nowrap; line-height: 1.5; max-width: 200px; text-align: center;"><span class="edgeLabel"><p>Pass</p></span></div></foreignObject></g></g><g class="edgeLabel" transform="translate(272.6145833333333, 576.5)"><g class="label" data-id="L_S3_S4_0_0" transform="translate(-14.765625, -12)"><foreignObject width="29.53125" height="24"><div xmlns="http://www.w3.org/1999/xhtml" class="labelBkg" style="display: table-cell; white-space: nowrap; line-height: 1.5; max-width: 200px; text-align: center;"><span class="edgeLabel"><p>Pass</p></span></div></foreignObject></g></g><g class="edgeLabel" transform="translate(736.71875, 815.5)"><g class="label" data-id="L_S4_EXEC_0_0" transform="translate(-14.765625, -12)"><foreignObject width="29.53125" height="24"><div xmlns="http://www.w3.org/1999/xhtml" class="labelBkg" style="display: table-cell; white-space: nowrap; line-height: 1.5; max-width: 200px; text-align: center;"><span class="edgeLabel"><p>Pass</p></span></div></foreignObject></g></g><g class="edgeLabel" transform="translate(92.53125, 815.5)"><g class="label" data-id="L_S1_REJECT1_0_0" transform="translate(-13.046875, -12)"><foreignObject width="26.09375" height="24"><div xmlns="http://www.w3.org/1999/xhtml" class="labelBkg" style="display: table-cell; white-space: nowrap; line-height: 1.5; max-width: 200px; text-align: center;"><span class="edgeLabel"><p>Fail</p></span></div></foreignObject></g></g><g class="edgeLabel" transform="translate(297.40625, 815.5)"><g class="label" data-id="L_S2_REJECT2_0_0" transform="translate(-13.046875, -12)"><foreignObject width="26.09375" height="24"><div xmlns="http://www.w3.org/1999/xhtml" class="labelBkg" style="display: table-cell; white-space: nowrap; line-height: 1.5; max-width: 200px; text-align: center;"><span class="edgeLabel"><p>Fail</p></span></div></foreignObject></g></g><g class="edgeLabel" transform="translate(514.2578125, 815.5)"><g class="label" data-id="L_S3_REJECT3_0_0" transform="translate(-13.046875, -12)"><foreignObject width="26.09375" height="24"><div xmlns="http://www.w3.org/1999/xhtml" class="labelBkg" style="display: table-cell; white-space: nowrap; line-height: 1.5; max-width: 200px; text-align: center;"><span class="edgeLabel"><p>Fail</p></span></div></foreignObject></g></g><g class="edgeLabel" transform="translate(954.671875, 815.5)"><g class="label" data-id="L_S4_REJECT4_0_0" transform="translate(-13.046875, -12)"><foreignObject width="26.09375" height="24"><div xmlns="http://www.w3.org/1999/xhtml" class="labelBkg" style="display: table-cell; white-space: nowrap; line-height: 1.5; max-width: 200px; text-align: center;"><span class="edgeLabel"><p>Fail</p></span></div></foreignObject></g></g></g></svg>